<svg xmlns="http://www.w3.org/2000/svg" xmlns:xlink="http://www.w3.org/1999/xlink" xmlns:svgjs="http://svgjs.dev/svgjs" height="300" viewBox="0 0 64 64" width="300"><g width="100%" height="100%" transform="matrix(1,0,0,1,0,0)"><g id="outline"><path d="m37 38h12v2h-12z" fill="#ffc107" fill-opacity="1" data-original-color="#000000ff" stroke="none" stroke-opacity="1"></path><path d="m37.447 32.9c5.46-2.73 11.052-.027 11.108 0l.892-1.791c-.263-.131-6.521-3.188-12.894 0z" fill="#ffc107" fill-opacity="1" data-original-color="#000000ff" stroke="none" stroke-opacity="1"></path><path d="m61 5h-12a6.671 6.671 0 0 0 -5.955 4.7l-2.445 7.83a2.988 2.988 0 0 0 -2.6-1.53h-4a3 3 0 0 0 -3 3v2a3 3 0 0 0 3 3h4a3 3 0 0 0 .6-.06l-.477 1.527-5.826 5.826a1 1 0 0 0 -.297.707v2h-4v3h-6a3 3 0 0 1 -3-3v-3a5.006 5.006 0 0 0 -5-5h-1a5.006 5.006 0 0 0 -5 5h-2v4.184a3 3 0 0 0 -2 2.816v5h2v3h2v-3h2v3h2v-3h2v-5a3 3 0 0 0 -2-2.816v-4.184h-2a3 3 0 0 1 3-3h1a3 3 0 0 1 3 3v3a5.006 5.006 0 0 0 5 5h6v3h4v7a1 1 0 0 0 1 1h1v7a3 3 0 0 0 3 3h4a3 3 0 0 0 3-3v-7h17a1 1 0 0 0 1-1v-43a1 1 0 0 0 -1-1zm-53 28h2v2h-2zm3 4a1 1 0 0 1 1 1v3h-6v-3a1 1 0 0 1 1-1zm21 3h-2v-4h2zm6-18h-4a1 1 0 0 1 -1-1v-2a1 1 0 0 1 1-1h4a1 1 0 0 1 1 1v2a1 1 0 0 1 -1 1zm4 35a1 1 0 0 1 -1 1h-4a1 1 0 0 1 -1-1v-7h6zm18-9h-2v-2h-2v2h-2v-2h-2v2h-18v-4h26zm0-6h-4v-6h4zm0-8h-4v-2h4zm0-4h-5a1 1 0 0 0 -1 1v11h-20v-9.586l5.414-5.414h20.586zm0-10.414-4.293-4.293-1.414 1.414 4.293 4.293h-3.172l-5.707-5.707-1.414 1.414 4.293 4.293h-6.2l2.98-8.94 2.852 3.565 1.562-1.25-2.7-3.375h8.92zm0-10.586h-11a1 1 0 0 0 -.949.684l-4 12a1 1 0 0 0 .949 1.316h15v2h-19.64l4.6-14.713a4.714 4.714 0 0 1 4.04-3.287h11z" fill="#ffc107" fill-opacity="1" data-original-color="#000000ff" stroke="none" stroke-opacity="1"></path><path d="m16 49h-14v10h14zm-2 8h-10v-6h10z" fill="#ffc107" fill-opacity="1" data-original-color="#000000ff" stroke="none" stroke-opacity="1"></path><path d="m6 53h2v2h-2z" fill="#ffc107" fill-opacity="1" data-original-color="#000000ff" stroke="none" stroke-opacity="1"></path><path d="m10 53h2v2h-2z" fill="#ffc107" fill-opacity="1" data-original-color="#000000ff" stroke="none" stroke-opacity="1"></path></g></g></svg>