<svg xmlns="http://www.w3.org/2000/svg" xmlns:xlink="http://www.w3.org/1999/xlink" xmlns:svgjs="http://svgjs.dev/svgjs" id="Layer_1" viewBox="0 0 512 512" width="300" height="300"><g width="100%" height="100%" transform="matrix(1,0,0,1,0,0)"><path d="m166.95 127.26h-54.11c-4.42 0-8.01 3.58-8.01 8.01v51.99c0 4.42 3.58 8.01 8.01 8.01h54.11c4.42 0 8.01-3.58 8.01-8.01v-51.99c0-4.42-3.59-8.01-8.01-8.01zm-8.01 51.99h-38.1v-35.97h38.1zm8.01 30.64h-54.11c-4.42 0-8.01 3.58-8.01 8.01v52.02c0 4.42 3.58 8.01 8.01 8.01h54.11c4.42 0 8.01-3.58 8.01-8.01v-52.02c0-4.42-3.59-8.01-8.01-8.01zm-8.01 52.02h-38.1v-36h38.1zm8.01 30.64h-54.11c-4.42 0-8.01 3.58-8.01 8.01v52.02c0 4.42 3.58 8.01 8.01 8.01h54.11c4.42 0 8.01-3.58 8.01-8.01v-52.02c0-4.42-3.59-8.01-8.01-8.01zm-8.01 52.02h-38.1v-36h38.1zm8.01 30.64h-54.11c-4.42 0-8.01 3.58-8.01 8.01v52.02c0 4.42 3.58 8.01 8.01 8.01h54.11c4.42 0 8.01-3.58 8.01-8.01v-52.02c0-4.42-3.59-8.01-8.01-8.01zm-8.01 52.02h-38.1v-36h38.1zm33.68-280.45c0-4.42 3.58-8.01 8.01-8.01h89.12c4.42 0 8.01 3.58 8.01 8.01s-3.58 8.01-8.01 8.01h-89.12c-4.43 0-8.01-3.59-8.01-8.01zm0 28.97c0-4.42 3.58-8.01 8.01-8.01h89.12c4.42 0 8.01 3.58 8.01 8.01s-3.58 8.01-8.01 8.01h-89.12c-4.43 0-8.01-3.59-8.01-8.01zm0 53.69c0-4.42 3.58-8.01 8.01-8.01h44.67c4.42 0 8.01 3.58 8.01 8.01s-3.58 8.01-8.01 8.01h-44.67c-4.43 0-8.01-3.59-8.01-8.01zm0 28.97c0-4.42 3.58-8.01 8.01-8.01h30.9c4.42 0 8.01 3.58 8.01 8.01s-3.58 8.01-8.01 8.01h-30.9c-4.43 0-8.01-3.59-8.01-8.01zm0 53.69c0-4.42 3.58-8.01 8.01-8.01h23.81c4.42 0 8.01 3.58 8.01 8.01s-3.58 8.01-8.01 8.01h-23.81c-4.43 0-8.01-3.59-8.01-8.01zm0 28.97c0-4.42 3.58-8.01 8.01-8.01h28.52c4.42 0 8.01 3.58 8.01 8.01s-3.58 8.01-8.01 8.01h-28.52c-4.43 0-8.01-3.59-8.01-8.01zm0 53.69c0-4.42 3.58-8.01 8.01-8.01h60.29c4.42 0 8.01 3.58 8.01 8.01s-3.58 8.01-8.01 8.01h-60.29c-4.43-.01-8.01-3.59-8.01-8.01zm85.04 28.97c0 4.42-3.58 8.01-8.01 8.01h-69.02c-4.42 0-8.01-3.58-8.01-8.01s3.58-8.01 8.01-8.01h69.02c4.42 0 8.01 3.58 8.01 8.01zm166.12-37.44c18.64-20.83 36.24-40.5 36.24-83.37 0-62.04-48.38-112.99-109.39-117.12v-105.69c0-16.69-13.57-30.26-30.26-30.26h-62.89c-3.07-5.17-8.69-8.65-15.12-8.65h-12.49c-3.84-23.35-24.16-41.22-48.57-41.22s-44.74 17.87-48.57 41.22h-12.51c-6.42 0-12.03 3.48-15.09 8.65h-62.89c-16.69 0-30.26 13.57-30.26 30.26v401.64c0 16.69 13.57 30.26 30.26 30.26h273.69 4.45 48.93c16.51 0 29.95-13.42 29.95-29.92v-10.93c12.26-1.15 21.88-11.5 21.88-24.05 0-11.73-8.4-21.53-19.49-23.71 1.97-10.01 6.41-19.01 13.49-27.3 2.88-3.38 5.8-6.65 8.64-9.81zm-89.16-306.18v105.69c-7.23.49-14.28 1.63-21.09 3.37v-94.2c0-4.42-3.58-8.01-8.01-8.01h-45.57v-21.09h60.42c7.86 0 14.25 6.39 14.25 14.24zm-67.42 378.78h-202.13v-355.92h40.05c3.06 5.17 8.67 8.65 15.09 8.65h122.14c6.43 0 12.05-3.48 15.12-8.65h40.03v91.56c-42.42 17.72-72.31 59.62-72.31 108.38 0 42.84 17.58 62.5 36.2 83.32 2.85 3.18 5.79 6.47 8.69 9.88 7.09 8.29 11.55 17.28 13.52 27.3-11.1 2.18-19.49 11.98-19.49 23.71.01 4.27 1.13 8.28 3.09 11.77zm-146.98-401.67h19.87c4.42 0 8.01-3.58 8.01-8.01 0-18.31 14.9-33.21 33.21-33.21s33.21 14.9 33.21 33.21c0 4.42 3.58 8.01 8.01 8.01h19.84c.79 0 1.46.63 1.55 1.4 0 .04.01.08.01.12 0 .02.01.03.01.05v35.23c0 .02 0 .03-.01.05 0 .04-.01.08-.01.12-.09.77-.76 1.4-1.55 1.4h-122.15c-.82 0-1.54-.74-1.54-1.57v-35.23c-.01-.83.72-1.57 1.54-1.57zm-92.23 424.53v-401.64c0-7.85 6.39-14.24 14.24-14.24h60.42v21.09h-45.6c-4.42 0-8.01 3.59-8.01 8.01v371.93c0 4.42 3.58 8.01 8.01 8.01h228.95v7.19c0 5.02 1.25 9.75 3.44 13.9h-247.2c-7.86 0-14.25-6.39-14.25-14.25zm341.31 14.25h-48.93-4.45c-7.67 0-13.9-6.24-13.9-13.9v-10.81h81.21v10.81c0 7.66-6.25 13.9-13.93 13.9zm35.82-48.89c0 4.49-3.66 8.15-8.15 8.15h-108.68c-4.49 0-8.15-3.66-8.15-8.15s3.66-8.15 8.15-8.15h104.31.02.01 4.35c4.48 0 8.14 3.66 8.14 8.15zm-2.17-61.41c-9.56 11.2-15.32 23.45-17.5 37.24h-85.65c-2.19-13.8-7.95-26.05-17.53-37.24-3.02-3.54-6.03-6.9-8.93-10.15-17.95-20.07-32.12-35.92-32.12-72.64 0-55.9 45.49-101.38 101.41-101.38 55.9 0 101.38 45.48 101.38 101.38 0 36.75-14.19 52.61-32.16 72.69-2.9 3.24-5.89 6.58-8.9 10.1zm-75.2-23.9c.9.33 1.82.48 2.74.48 2.32 0 4.58-1.01 6.13-2.85l50.85-60.46c2-2.38 2.45-5.71 1.13-8.53-1.31-2.82-4.15-4.63-7.26-4.63h-18.58v-34.23c0-3.36-2.1-6.37-5.26-7.52s-6.71-.21-8.87 2.37l-50.85 60.43c-2 2.38-2.45 5.71-1.13 8.54 1.31 2.82 4.15 4.63 7.26 4.63h18.58v34.26c0 3.35 2.1 6.36 5.26 7.51zm-6.64-57.79 25.64-30.47v20.28c0 4.42 3.58 8.01 8.01 8.01h9.39l-25.65 30.49v-20.3c0-4.42-3.58-8.01-8.01-8.01zm113.94 20.88c-1.43 1.05-3.1 1.56-4.75 1.56-2.25 0-4.47-.96-6.03-2.75-9.25 36.67-42.35 63.44-81.65 63.44-33.3 0-63.54-19.67-77.05-50.11-1.79-4.04.03-8.77 4.07-10.57 4.05-1.79 8.77.03 10.57 4.07 10.94 24.66 35.44 40.59 62.41 40.59 31.58 0 58.22-21.35 65.94-50.69l-.5.37c-3.56 2.62-8.57 1.86-11.2-1.69-2.62-3.56-1.87-8.57 1.69-11.2l15.53-11.45c3.56-2.63 8.57-1.87 11.2 1.69l11.45 15.53c2.64 3.58 1.88 8.59-1.68 11.21zm-168.64-13.97c-2.46 0-4.88-1.12-6.45-3.25l-11.45-15.51c-2.63-3.56-1.87-8.57 1.68-11.2 3.38-2.5 8.07-1.93 10.79 1.18 9.23-36.67 42.3-63.44 81.65-63.44 33.33 0 63.56 19.67 77.03 50.12 1.79 4.04-.04 8.77-4.09 10.56-4.04 1.79-8.77-.04-10.56-4.08-10.9-24.65-35.39-40.58-62.38-40.58-31.61 0-58.21 21.33-65.93 50.66l.46-.34c3.56-2.62 8.57-1.86 11.2 1.7 2.62 3.56 1.86 8.57-1.7 11.2l-15.51 11.42c-1.43 1.05-3.09 1.56-4.74 1.56z" fill="#ffc107" fill-opacity="1" data-original-color="#000000ff" stroke="none" stroke-opacity="1"></path></g></svg>