<svg xmlns="http://www.w3.org/2000/svg" xmlns:xlink="http://www.w3.org/1999/xlink" xmlns:svgjs="http://svgjs.dev/svgjs" id="Capa_1" x="0px" y="0px" viewBox="0 0 511.999 511.999" style="enable-background:new 0 0 511.999 511.999;" xml:space="preserve" width="300" height="300">  <g width="100%" height="100%" transform="matrix(1,0,0,1,0,0)">    <g>	<g>		<rect x="42.667" y="362.669" width="384" height="21.333" fill="#ffc107" fill-opacity="1" data-original-color="#000000ff" stroke="none" stroke-opacity="1"></rect>	</g></g>    <g>	<g>		<path d="M501.333,362.667H480v-256c0-11.782-9.551-21.333-21.333-21.333h-32V64c0-11.782-9.551-21.333-21.333-21.333h-42.667&#10;&#9;&#9;&#9;c-11.782,0-21.333,9.551-21.333,21.333v21.333H170.667V64c0-11.782-9.551-21.333-21.333-21.333h-42.667&#10;&#9;&#9;&#9;c-11.782,0-21.333,9.551-21.333,21.333v21.333h-32C41.551,85.333,32,94.885,32,106.666v256H10.667&#10;&#9;&#9;&#9;C4.776,362.667,0,367.441,0,373.333v32c0,11.782,9.551,21.333,21.333,21.333h469.333c11.782,0,21.333-9.551,21.333-21.333v-32&#10;&#9;&#9;&#9;C512,367.441,507.224,362.667,501.333,362.667z M490.669,405.333h-0.002H21.333V384h21.333c5.891,0,10.667-4.776,10.667-10.667&#10;&#9;&#9;&#9;V106.666H96c5.891,0,10.667-4.776,10.667-10.667V64h42.667v32c0,5.891,4.776,10.667,10.667,10.667h192&#10;&#9;&#9;&#9;c5.891,0,10.667-4.776,10.667-10.667V64h42.667v32c0,5.891,4.776,10.667,10.667,10.667h42.667v266.667&#10;&#9;&#9;&#9;c0,5.891,4.776,10.667,10.667,10.667h21.333V405.333z" fill="#ffc107" fill-opacity="1" data-original-color="#000000ff" stroke="none" stroke-opacity="1"></path>	</g></g>    <g>	<g>		<rect x="128" y="85.33" width="32" height="21.333" fill="#ffc107" fill-opacity="1" data-original-color="#000000ff" stroke="none" stroke-opacity="1"></rect>	</g></g>    <g>	<g>		<rect x="352" y="85.33" width="32" height="21.333" fill="#ffc107" fill-opacity="1" data-original-color="#000000ff" stroke="none" stroke-opacity="1"></rect>	</g></g>    <g>	<g>		<path d="M469.333,437.333V448H42.667v-10.667H21.333v21.333c0,5.891,4.776,10.667,10.667,10.667h448&#10;&#9;&#9;&#9;c5.891,0,10.667-4.776,10.667-10.667v-21.333H469.333z" fill="#ffc107" fill-opacity="1" data-original-color="#000000ff" stroke="none" stroke-opacity="1"></path>	</g></g>    <g>	<g>		<path d="M216.459,205.792l-35.125,35.125l-35.125-35.125l-15.083,15.083l42.667,42.667c2,2.001,4.713,3.125,7.541,3.125&#10;&#9;&#9;&#9;c2.829-0.001,5.541-1.125,7.541-3.125l42.667-42.667L216.459,205.792z" fill="#ffc107" fill-opacity="1" data-original-color="#000000ff" stroke="none" stroke-opacity="1"></path>	</g></g>    <g>	<g>		<path d="M192,160c-0.295-0.006-0.589-0.006-0.884,0c-11.538,0.244-20.693,9.795-20.449,21.333V256H192v-74.667h106.667V160H192z" fill="#ffc107" fill-opacity="1" data-original-color="#000000ff" stroke="none" stroke-opacity="1"></path>	</g></g>    <g>	<g>		<path d="M338.208,205.792c-4.165-4.164-10.917-4.164-15.083,0l-42.667,42.667l15.083,15.083l35.125-35.125l35.125,35.125&#10;&#9;&#9;&#9;l15.083-15.083L338.208,205.792z" fill="#ffc107" fill-opacity="1" data-original-color="#000000ff" stroke="none" stroke-opacity="1"></path>	</g></g>    <g>	<g>		<path d="M320,213.333V288H213.333v21.333H320c0.295,0.006,0.589,0.006,0.884,0c11.538-0.244,20.693-9.795,20.449-21.333v-74.667&#10;&#9;&#9;&#9;H320z" fill="#ffc107" fill-opacity="1" data-original-color="#000000ff" stroke="none" stroke-opacity="1"></path>	</g></g>    <g>	<g>		<rect x="42.667" y="138.669" width="85.33" height="21.333" fill="#ffc107" fill-opacity="1" data-original-color="#000000ff" stroke="none" stroke-opacity="1"></rect>	</g></g>    <g>	<g>		<rect x="384" y="138.669" width="85.33" height="21.333" fill="#ffc107" fill-opacity="1" data-original-color="#000000ff" stroke="none" stroke-opacity="1"></rect>	</g></g>    <g></g>    <g></g>    <g></g>    <g></g>    <g></g>    <g></g>    <g></g>    <g></g>    <g></g>    <g></g>    <g></g>    <g></g>    <g></g>    <g></g>    <g></g>  </g></svg>