<?xml version="1.0" encoding="UTF-8"?>
<svg xmlns="http://www.w3.org/2000/svg" width="62" height="38" viewBox="0 0 62 38" fill="none">
  <path d="M30.625 0C22.5027 0 14.7132 3.22655 8.96985 8.96985C3.22655 14.7132 0 22.5027 0 30.625C0 31.2052 0.230468 31.7616 0.640704 32.1718C1.05094 32.582 1.60734 32.8125 2.1875 32.8125H24.4563C24.9161 34.0794 25.7548 35.174 26.8585 35.9475C27.9622 36.7211 29.2772 37.136 30.625 37.136C31.9728 37.136 33.2878 36.7211 34.3915 35.9475C35.4952 35.174 36.3339 34.0794 36.7938 32.8125H59.0625C59.6427 32.8125 60.1991 32.582 60.6093 32.1718C61.0195 31.7616 61.25 31.2052 61.25 30.625C61.25 22.5027 58.0234 14.7132 52.2801 8.96985C46.5368 3.22655 38.7473 0 30.625 0ZM30.625 32.8125C30.1924 32.8125 29.7694 32.6842 29.4097 32.4438C29.05 32.2035 28.7696 31.8618 28.604 31.4621C28.4384 31.0624 28.3951 30.6226 28.4795 30.1982C28.5639 29.7739 28.7723 29.3841 29.0782 29.0782C29.3841 28.7723 29.7739 28.5639 30.1982 28.4795C30.6226 28.3951 31.0624 28.4384 31.4621 28.604C31.8618 28.7696 32.2035 29.05 32.4438 29.4097C32.6842 29.7694 32.8125 30.1924 32.8125 30.625C32.8125 31.2052 32.582 31.7616 32.1718 32.1718C31.7616 32.582 31.2052 32.8125 30.625 32.8125ZM36.7938 28.4375C36.497 27.6277 36.0436 26.8844 35.4594 26.25L39.375 20.3C40.3666 20.981 41.2703 21.7819 42.0656 22.6844C42.2706 22.9177 42.5229 23.1047 42.8058 23.233C43.0887 23.3612 43.3957 23.4277 43.7062 23.4281C44.238 23.4274 44.7512 23.233 45.15 22.8812C45.5846 22.498 45.8495 21.958 45.8864 21.3798C45.9233 20.8015 45.7293 20.2322 45.3469 19.7969C44.2993 18.6055 43.1091 17.5475 41.8031 16.6469L43.3344 14.3281C43.5253 14.0911 43.6647 13.8168 43.7436 13.5228C43.8224 13.2289 43.8391 12.9217 43.7925 12.6209C43.7459 12.3201 43.637 12.0324 43.4729 11.7761C43.3087 11.5198 43.0929 11.3005 42.8391 11.1324C42.5854 10.9643 42.2994 10.851 41.9994 10.7997C41.6994 10.7484 41.3919 10.7603 41.0968 10.8346C40.8016 10.9089 40.5252 11.044 40.2852 11.2312C40.0453 11.4184 39.847 11.6537 39.7031 11.9219L37.9313 14.5687C35.6077 13.6342 33.1293 13.1444 30.625 13.125C27.8313 13.1258 25.0698 13.7212 22.524 14.8715C19.9782 16.0218 17.7063 17.7008 15.8594 19.7969C15.6548 20.0098 15.4955 20.262 15.391 20.5382C15.2865 20.8144 15.239 21.1089 15.2514 21.4039C15.2638 21.699 15.3358 21.9884 15.4631 22.2549C15.5903 22.5214 15.7702 22.7593 15.9919 22.9544C16.2136 23.1495 16.4725 23.2976 16.7529 23.39C17.0334 23.4823 17.3297 23.5169 17.6239 23.4917C17.9181 23.4665 18.2042 23.3819 18.4648 23.2432C18.7255 23.1044 18.9554 22.9144 19.1406 22.6844C20.5776 21.055 22.3448 19.75 24.3248 18.8562C26.3049 17.9623 28.4525 17.5 30.625 17.5C32.2749 17.5072 33.9136 17.7729 35.4812 18.2875L31.5875 24.0625C31.267 24.0409 30.9455 24.0409 30.625 24.0625C29.2711 24.0663 27.9514 24.4888 26.847 25.2721C25.7427 26.0553 24.9076 27.161 24.4563 28.4375H4.375C4.375 21.4756 7.14062 14.7988 12.0634 9.87595C16.9863 4.95312 23.6631 2.1875 30.625 2.1875C37.5869 2.1875 44.2637 4.95312 49.1866 9.87595C54.1094 14.7988 56.875 21.4756 56.875 28.4375H36.7938Z" fill="white"></path>
</svg>
