<svg xmlns="http://www.w3.org/2000/svg" viewBox="0 0 64 64" id="builder"><path d="M13.5,25.85773c-.06592,1.94086,1.28101,3.61798,3.10468,4.03253,.64917,4.57568,4.58124,8.1095,9.33331,8.1095h3.12402c4.75208,0,8.68414-3.53381,9.33331-8.1095,1.82367-.41449,3.17065-2.09174,3.10468-4.03253,4.12372-1.07306,3.88684-7.04443-.3125-7.78845,.05566-2.35687-.49585-4.65588-1.5235-6.62952l.8985-.8985c1.17731-1.1123,1.1778-3.13782,.00439-4.24854l-1.40527-1.40576c-1.11224-1.1767-3.13788-1.1781-4.24854-.00439l-.81793,.81793c-1.68127-.92877-3.5791-1.50323-5.59515-1.65009v-1.05066c0-.55225-.44775-1-1-1s-1,.44775-1,1v1.05066c-2.02887,.14777-3.93713,.73004-5.62628,1.66907l-.83221-.83252c-1.13379-1.14844-3.12549-1.14307-4.24854-.00439l-1.40576,1.40527c-1.177,1.11237-1.17859,3.13739-.00433,4.24902-.00006,0,.93677,.93683,.93677,.93683-1.01654,1.96539-1.5625,4.2522-1.50714,6.59558-4.20203,.7453-4.43365,6.71686-.3125,7.78845Zm3,1.87347c-.59717-.34619-1-.99268-1-1.73145h1v1.73145Zm20,.83057c0,4.10107-3.33691,7.43799-7.43799,7.43799h-3.12402c-4.10107,0-7.43799-3.33691-7.43799-7.43799v-2.56201h18v2.56201Zm2-.83057v-1.73145h1c0,.73877-.40283,1.38525-1,1.73145Zm-2.16797-21.43896c.37598-.38086,1.02734-.38428,1.41113,.00439l1.41406,1.41504c.39246,.37341,.39136,1.0365-.00439,1.41113l-.56757,.56757c-.78564-1.08588-1.72467-2.04932-2.78796-2.86365l.53473-.53448Zm-7.83203-.24176c6.08905,.50842,10.8504,5.73987,10.6875,11.94928h-10.6875V6.05048Zm-2,0v11.94928H15.8125c-.16284-6.20953,4.59845-11.4408,10.6875-11.94928Zm-10.70312,1.65631l1.41504-1.41455c.37549-.38086,1.02686-.38428,1.41113,.00439l.55121,.55139c-1.06122,.81708-1.99817,1.78302-2.78107,2.87109l-.60071-.60071c-.39246-.37396-.39178-1.03638,.00439-1.41162Zm-1.29688,12.29297h26c2.63123,.06647,2.64197,3.93042-.00006,4,.00006,0-25.99994,0-25.99994,0-2.62939-.06586-2.64343-3.93018,0-4Z"></path><path d="M53.39453,36.82886l-3-1.5c-.62451-.31201-1.35254-.27979-1.9458,.0874-.59424,.36719-.94873,1.00342-.94873,1.70166v4.71191c-.03607,2.7757-3.88226,2.89117-4,.16986,0,.00006,0-4.88177,0-4.88177,.04639-1.44116-1.6261-2.4751-2.89453-1.789,0-.00006-3,1.49994-3,1.49994-.68164,.34082-1.10547,1.02637-1.10547,1.78906v1.81586c-1.50653-.87244-3.11896-1.52142-4.81787-1.9267-.55914-.1485-1.16858,.27521-1.22461,.85205-.46674,3.49036-5.45117,3.48114-5.91504-.00012-.05707-.57538-.66187-1.00018-1.22412-.85193-8.13623,1.93555-13.81836,9.12891-13.81836,17.49268v2c0,2.20557,1.79443,4,4,4,5.78149,.0014,30.55957-.0011,35.81934,0,1.19885,.02795,2.20001-1.14917,1.97314-2.32916,0,.00006-1.60742-9.64545-1.60742-9.64545l3.70947-1.85449c.68164-.34082,1.10547-1.02637,1.10547-1.78906v-7.76367c0-.7627-.42383-1.44824-1.10547-1.78906Zm-13.68701,22.84229c-.01825,.10968-.01849,.21924-.01855,.32861H21.5v-6c0-.55225-.44775-1-1-1s-1,.44775-1,1v6h-6c-1.10303,0-2-.89697-2-2-.6283-7.78809,3.77747-15.04028,11.32227-17.28809,1.53967,4.34283,7.81519,4.34137,9.35498,.00146,1.53589,.46881,2.98077,1.17725,4.32275,2.09113v3.57733c0,.7627,.42383,1.44824,1.10547,1.78906l3.70947,1.85449-1.60742,9.646Zm12.79248-13.28955l-4.37012,2.18506c-.39258,.19629-.61133,.62598-.53906,1.05908l1.72852,10.37402h-7.63916l1.729-10.37402c.07227-.43311-.14648-.86279-.53906-1.05908l-4.37012-2.18506v-7.76367l3-1.5v4.88184c-.04199,2.22644,1.98694,4.16541,4.21344,3.99408,2.12347-.11127,3.78656-1.94037,3.78656-4.164v-4.71191l3,1.5v7.76367Z"></path><path d="M24.5,49.99976h-6c-1.31262,.02179-1.31567,1.9776,.00006,2-.00006,0,5.99994,0,5.99994,0,1.31262-.02179,1.31573-1.97766,0-2Z"></path></svg>