<svg xmlns="http://www.w3.org/2000/svg" viewBox="0 0 96 96" id="building"><path d="M90.12,84.86a7.26,7.26,0,0,0-5.81-4.75V50.31l1.62,1.62a3.93,3.93,0,0,0,5.56,0l1.82-1.82a4,4,0,0,0,0-5.57l-42-42a4.16,4.16,0,0,0-5.88,0L27.76,20.29c0-5.65-.06-5.29,0-5.29a2.81,2.81,0,0,0,2.82-2.81V9.07A2.82,2.82,0,0,0,27.8,6.25H11.66A2.82,2.82,0,0,0,8.84,9.07v3.12A2.81,2.81,0,0,0,11.7,15V36.35L3.51,44.54a3.94,3.94,0,0,0,0,5.57l1.81,1.82a4,4,0,0,0,5.57,0l.81-.81v29a7.31,7.31,0,0,0-5.82,4.75,4.93,4.93,0,1,0-.94,9.77H91.07a4.93,4.93,0,1,0-.95-9.77Zm.95,7.77H84.31V82.14a5.28,5.28,0,0,1,4.14,4.18A1,1,0,0,0,89,87c.71.37.94-.26,2.09-.26a2.94,2.94,0,0,1,0,5.87Zm-8.76,0H76.85V56.14A3.15,3.15,0,0,0,73.7,53H53.48a3.15,3.15,0,0,0-3.14,3.15V92.63H13.7V49.12L48.41,14.41l33.9,33.9Zm-30-34.39v-2.1A1.15,1.15,0,0,1,53.48,55H73.7a1.16,1.16,0,0,1,1.15,1.15v2.1Zm0,2H74.85V92.63H52.34ZM4.94,86.76c1.15,0,1.35.63,2.09.26a1,1,0,0,0,.52-.7,5.29,5.29,0,0,1,4.15-4.18V92.63H4.94a2.94,2.94,0,1,1,0-5.87Zm1.8-36.25L4.92,48.7a2,2,0,0,1,0-2.74C47,3.88,7.27,43.62,46.89,4a2.15,2.15,0,0,1,3,0l42,42a1.93,1.93,0,0,1,0,2.74l-1.81,1.81a2,2,0,0,1-2.74,0c-56.12-56.12-32-32-38.22-38.22a1,1,0,0,0-1.42,0C34.76,25.22,14.87,45.12,9.48,50.51A2,2,0,0,1,6.74,50.51Zm4.1-38.32V9.07a.82.82,0,0,1,.82-.82H27.8a.82.82,0,0,1,.82.82v3.12a.81.81,0,0,1-.82.81H11.66A.81.81,0,0,1,10.84,12.19ZM13.7,15H25.76v7.29L13.7,34.35Z"></path><path d="M42.53 53H22.31a3.15 3.15 0 00-3.15 3.15V77.23a1 1 0 001 1H44.67a1 1 0 001-1V56.14A3.15 3.15 0 0042.53 53zm1.14 23.24H33.42v-7H43.67zM21.16 56.14A1.15 1.15 0 0122.31 55H42.53a1.15 1.15 0 011.14 1.15v2.1H21.16zm10.26 11.1H21.16v-7H31.42zm-10.26 2H31.42v7H21.16zm12.26-2v-7H43.67v7zM60.7 76.43a3 3 0 00-3-3 3.09 3.09 0 00-2.8 1.85 3 3 0 105.83 1.18zm-4 .43l0 0a1 1 0 112-.41A1 1 0 0156.71 76.84zM36.45 81.25H28.38a1 1 0 100 2h8.07a1 1 0 000-2z"></path></svg>