<?xml version="1.0" encoding="UTF-8"?>
<svg xmlns="http://www.w3.org/2000/svg" width="70" height="70" viewBox="0 0 70 70" fill="none">
  <path d="M35.6559 4.37496C32.7285 4.2871 29.8132 4.78798 27.083 5.84789C24.3528 6.90781 21.8632 8.50518 19.7619 10.5453C17.6606 12.5854 15.9904 15.0267 14.8502 17.7244C13.7101 20.4221 13.1233 23.3212 13.1246 26.25C13.0972 28.4762 13.4296 30.6922 14.109 32.8125C15.4068 36.7335 17.7882 40.207 20.9777 42.8312C21.9482 43.6263 22.7287 44.6281 23.2624 45.7635C23.796 46.8989 24.0692 48.1392 24.0621 49.3937V54.4031C24.0632 55.2 24.264 55.9839 24.6461 56.6832C25.0283 57.3825 25.5796 57.9749 26.2496 58.4062V60.025C26.2895 61.5241 26.9132 62.9484 27.9879 63.9944C29.0625 65.0404 30.5031 65.6255 32.0027 65.625H38.0184C39.5366 65.6192 40.991 65.0135 42.0646 63.9399C43.1382 62.8664 43.7439 61.4119 43.7496 59.8937V58.275C44.4197 57.8436 44.971 57.2512 45.3531 56.5519C45.7352 55.8526 45.936 55.0687 45.9371 54.2718V49.5031C45.9179 48.3221 46.1588 47.1514 46.6427 46.074C47.1266 44.9966 47.8416 44.0388 48.7371 43.2687C51.2773 41.2188 53.3266 38.6264 54.7347 35.6816C56.1427 32.7367 56.8739 29.5141 56.8746 26.25C56.839 20.5718 54.6121 15.1268 50.6585 11.051C46.705 6.97517 41.3303 4.58348 35.6559 4.37496ZM41.5621 52.5V54.2718C41.5653 54.3272 41.5567 54.3827 41.5369 54.4346C41.5172 54.4864 41.4867 54.5335 41.4474 54.5728C41.4082 54.612 41.3611 54.6425 41.3092 54.6623C41.2574 54.682 41.2019 54.6906 41.1465 54.6875H28.8527C28.7973 54.6906 28.7419 54.682 28.69 54.6623C28.6381 54.6425 28.591 54.612 28.5518 54.5728C28.5126 54.5335 28.482 54.4864 28.4623 54.4346C28.4425 54.3827 28.4339 54.3272 28.4371 54.2718V52.5H41.5621ZM39.3746 59.8937C39.3746 60.2534 39.2317 60.5984 38.9774 60.8527C38.723 61.1071 38.3781 61.25 38.0184 61.25H32.0027C31.641 61.25 31.2937 61.1078 31.0359 60.8541C30.7781 60.6003 30.6304 60.2554 30.6246 59.8937V59.0625H39.3746V59.8937ZM45.9371 39.8562C44.6973 40.8767 43.6722 42.1329 42.9212 43.5523C42.1702 44.9716 41.7083 46.5258 41.5621 48.125H28.4371C28.1306 44.7183 26.4867 41.572 23.8652 39.375C21.3085 37.2803 19.3973 34.5045 18.3527 31.3687C17.7845 29.7221 17.4962 27.9919 17.4996 26.25C17.4996 21.6087 19.3434 17.1575 22.6252 13.8756C25.9071 10.5937 30.3583 8.74996 34.9996 8.74996H35.5246C39.0926 8.86848 42.539 10.0754 45.4015 12.2088C48.2639 14.3422 50.4053 17.3 51.5386 20.6853C52.6718 24.0707 52.7425 27.7216 51.7413 31.1483C50.74 34.575 48.7147 37.6135 45.9371 39.8562Z" fill="white"></path>
  <path d="M39.3742 24.0625H34.168L36.9461 18.4844C37.1584 17.9745 37.17 17.4031 36.9785 16.885C36.787 16.367 36.4067 15.9405 35.9138 15.6913C35.4208 15.4421 34.8519 15.3885 34.3211 15.5414C33.7904 15.6943 33.3371 16.0423 33.0524 16.5156L28.6774 25.2656C28.5096 25.5986 28.4297 25.969 28.4453 26.3415C28.4609 26.7141 28.5715 27.0765 28.7665 27.3943C28.9616 27.7121 29.2347 27.9748 29.5598 28.1573C29.8849 28.3399 30.2514 28.4364 30.6242 28.4375H34.9992L31.0617 33.6875C30.8894 33.9173 30.764 34.1788 30.6927 34.4571C30.6214 34.7354 30.6056 35.025 30.6462 35.3093C30.6869 35.5937 30.7831 35.8673 30.9295 36.1145C31.0758 36.3617 31.2694 36.5776 31.4992 36.75C31.8779 37.034 32.3384 37.1875 32.8117 37.1875C33.1513 37.1875 33.4863 37.1084 33.79 36.9565C34.0938 36.8047 34.358 36.5842 34.5617 36.3125L41.1242 27.5625C41.368 27.2375 41.5164 26.851 41.5529 26.4464C41.5894 26.0418 41.5125 25.6351 41.3308 25.2717C41.1491 24.9083 40.8699 24.6028 40.5243 24.3892C40.1787 24.1756 39.7805 24.0625 39.3742 24.0625Z" fill="white"></path>
</svg>
