<?xml version="1.0" encoding="UTF-8"?>
<svg xmlns="http://www.w3.org/2000/svg" width="54" height="57" viewBox="0 0 54 57" fill="none">
  <path d="M51.7708 0H2.1875C0.991667 0 0 0.991667 0 2.1875C0 3.38333 0.991667 4.375 2.1875 4.375H2.91667V54.6875C2.91667 55.8833 3.90833 56.875 5.10417 56.875H48.8542C50.05 56.875 51.0417 55.8833 51.0417 54.6875V4.375H51.7708C52.9667 4.375 53.9583 3.38333 53.9583 2.1875C53.9583 0.991667 52.9667 0 51.7708 0ZM46.6667 29.1667H36.4583V18.9583H46.6667V29.1667ZM32.0833 29.1667H21.875V18.9583H32.0833V29.1667ZM7.29167 29.1667V18.9583H17.5V29.1667H7.29167ZM21.875 14.5833V4.375H32.0833V14.5833H21.875ZM17.5 4.375V14.5833H7.29167V4.375H17.5ZM18.9583 52.5V43.0208C18.9583 42.6125 19.2792 42.2917 19.6875 42.2917H24.7917V52.5H18.9583ZM29.1667 52.5V42.2917H34.2708C34.6792 42.2917 35 42.6125 35 43.0208V52.5H29.1667ZM39.375 52.5V43.0208C39.375 40.2208 37.0708 37.9167 34.2708 37.9167H19.6875C16.8875 37.9167 14.5833 40.2208 14.5833 43.0208V52.5H7.29167V33.5417H46.6667V52.5H39.375ZM46.6667 14.5833H36.4583V4.375H46.6667V14.5833Z" fill="white"></path>
</svg>
