<?xml version="1.0" encoding="UTF-8"?>
<svg xmlns="http://www.w3.org/2000/svg" width="70" height="70" viewBox="0 0 70 70" fill="none">
  <path d="M56.875 35H52.5V12.5562C52.4942 10.3882 51.6304 8.31064 50.0974 6.77761C48.5644 5.24458 46.4868 4.38077 44.3188 4.375H25.6812C23.5132 4.38077 21.4356 5.24458 19.9026 6.77761C18.3696 8.31064 17.5058 10.3882 17.5 12.5562V35H13.125C12.5448 35 11.9884 35.2305 11.5782 35.6407C11.168 36.0509 10.9375 36.6073 10.9375 37.1875C10.9375 37.7677 11.168 38.3241 11.5782 38.7343C11.9884 39.1445 12.5448 39.375 13.125 39.375H17.5V42.1313C17.5058 44.2993 18.3696 46.3769 19.9026 47.9099C21.4356 49.4429 23.5132 50.3067 25.6812 50.3125H26.25V63.4375C26.25 64.0177 26.4805 64.5741 26.8907 64.9843C27.3009 65.3945 27.8573 65.625 28.4375 65.625C29.0177 65.625 29.5741 65.3945 29.9843 64.9843C30.3945 64.5741 30.625 64.0177 30.625 63.4375V50.3125H39.375V63.4375C39.375 64.0177 39.6055 64.5741 40.0157 64.9843C40.4259 65.3945 40.9823 65.625 41.5625 65.625C42.1427 65.625 42.6991 65.3945 43.1093 64.9843C43.5195 64.5741 43.75 64.0177 43.75 63.4375V50.3125H44.3188C46.4868 50.3067 48.5644 49.4429 50.0974 47.9099C51.6304 46.3769 52.4942 44.2993 52.5 42.1313V39.375H56.875C57.4552 39.375 58.0116 39.1445 58.4218 38.7343C58.832 38.3241 59.0625 37.7677 59.0625 37.1875C59.0625 36.6073 58.832 36.0509 58.4218 35.6407C58.0116 35.2305 57.4552 35 56.875 35ZM21.875 12.5562C21.875 11.5468 22.276 10.5786 22.9898 9.86482C23.7036 9.15101 24.6718 8.75 25.6812 8.75H44.3188C45.3282 8.75 46.2964 9.15101 47.0102 9.86482C47.724 10.5786 48.125 11.5468 48.125 12.5562V35H21.875V12.5562ZM48.125 42.1313C48.125 43.1407 47.724 44.1089 47.0102 44.8227C46.2964 45.5365 45.3282 45.9375 44.3188 45.9375H25.6812C24.6718 45.9375 23.7036 45.5365 22.9898 44.8227C22.276 44.1089 21.875 43.1407 21.875 42.1313V39.375H48.125V42.1313Z" fill="white"></path>
</svg>
