<svg xmlns="http://www.w3.org/2000/svg" xmlns:xlink="http://www.w3.org/1999/xlink" xmlns:svgjs="http://svgjs.dev/svgjs" id="Layer_1" height="300" viewBox="0 0 64 64" width="300"><g width="100%" height="100%" transform="matrix(1,0,0,1,0,0)"><g><path d="m61 12c0-.79-.41-1.5-1.1-1.89l-2.14-1.21c-.07-.04-.1-.12-.08-.19l.66-2.38c.21-.76 0-1.55-.56-2.11s-1.35-.77-2.11-.56l-2.37.66c-.08.02-.15-.01-.19-.08l-1.22-2.14c-.39-.69-1.1-1.1-1.89-1.1s-1.5.41-1.89 1.1l-1.21 2.14c-.04.07-.12.1-.19.08l-2.38-.66c-.76-.21-1.55 0-2.11.56s-.77 1.35-.56 2.11l.47 1.67h-34.13c-2.76 0-5 2.24-5 5v34c0 2.76 2.24 5 5 5h48c2.76 0 5-2.24 5-5v-34c0-.14-.03-.28-.09-.4.06-.19.09-.39.09-.6zm-15.02 7.88.73-.2c.07-.02.15.01.19.08l1.22 2.14c.38.69 1.09 1.1 1.88 1.1s1.5-.41 1.89-1.1l1.22-2.14c.04-.07.12-.1.19-.08l.73.2c-.01.04-.03.08-.03.12v7.81c0 .03 0 .13-.12.17-.12.05-.18-.02-.21-.04l-1.37-1.37c-1.27-1.27-3.35-1.27-4.62 0l-1.37 1.37c-.02.02-.09.09-.21.04-.1-.04-.1-.14-.1-.17v-7.81c0-.04-.02-.08-.02-.12zm4.02-3.88c-2.21 0-4-1.79-4-4s1.79-4 4-4 4 1.79 4 4-1.79 4-4 4zm-42-6h32.3l-.2.11c-.69.39-1.1 1.1-1.1 1.89s.41 1.5 1.1 1.89l2.15 1.22c.07.04.1.12.08.19l-.66 2.38c-.21.76 0 1.55.56 2.11.48.48 1.12.68 1.78.6v7.43c0 .89.53 1.68 1.35 2.02s1.76.16 2.38-.47l1.37-1.37c.48-.48 1.31-.48 1.79 0l1.37 1.37c.42.42.98.64 1.54.64.28 0 .57-.05.84-.17.82-.35 1.35-1.14 1.35-2.03v-7.43c.65.08 1.3-.12 1.78-.6.56-.56.77-1.35.56-2.11l-.66-2.38c-.02-.07.01-.15.08-.19l1.24-.7v32.33h-54v-33.73c0-1.65 1.35-3 3-3z" fill="#ffc107" fill-opacity="1" data-original-color="#000000ff" stroke="none" stroke-opacity="1"></path><path d="m25 26h13c.55 0 1-.45 1-1s-.45-1-1-1h-13c-.55 0-1 .45-1 1s.45 1 1 1z" fill="#ffc107" fill-opacity="1" data-original-color="#000000ff" stroke="none" stroke-opacity="1"></path><path d="m25 34h15c.55 0 1-.45 1-1s-.45-1-1-1h-15c-.55 0-1 .45-1 1s.45 1 1 1z" fill="#ffc107" fill-opacity="1" data-original-color="#000000ff" stroke="none" stroke-opacity="1"></path><path d="m25 42h10c.55 0 1-.45 1-1s-.45-1-1-1h-10c-.55 0-1 .45-1 1s.45 1 1 1z" fill="#ffc107" fill-opacity="1" data-original-color="#000000ff" stroke="none" stroke-opacity="1"></path><path d="m11.29 25.71 2 2c.2.19.45.29.71.29s.51-.1.71-.29l4-4c.39-.39.39-1.02 0-1.41s-1.02-.39-1.41 0l-3.3 3.29-1.29-1.29c-.39-.39-1.02-.39-1.41 0s-.4 1.02-.01 1.41z" fill="#ffc107" fill-opacity="1" data-original-color="#000000ff" stroke="none" stroke-opacity="1"></path><path d="m17.29 29.29-3.29 3.3-1.29-1.29c-.39-.39-1.02-.39-1.41 0s-.39 1.02 0 1.41l2 2c.19.19.44.29.7.29s.51-.1.71-.29l4-4c.39-.39.39-1.02 0-1.41s-1.03-.4-1.42-.01z" fill="#ffc107" fill-opacity="1" data-original-color="#000000ff" stroke="none" stroke-opacity="1"></path><path d="m14 38c-1.65 0-3 1.35-3 3s1.35 3 3 3 3-1.35 3-3-1.35-3-3-3zm0 4c-.55 0-1-.45-1-1s.45-1 1-1 1 .45 1 1-.45 1-1 1z" fill="#ffc107" fill-opacity="1" data-original-color="#000000ff" stroke="none" stroke-opacity="1"></path><circle cx="10" cy="15" r="1" fill="#ffc107" fill-opacity="1" data-original-color="#000000ff" stroke="none" stroke-opacity="1"></circle><circle cx="14" cy="15" r="1" fill="#ffc107" fill-opacity="1" data-original-color="#000000ff" stroke="none" stroke-opacity="1"></circle><circle cx="18" cy="15" r="1" fill="#ffc107" fill-opacity="1" data-original-color="#000000ff" stroke="none" stroke-opacity="1"></circle></g></g></svg>