<svg xmlns="http://www.w3.org/2000/svg" xmlns:xlink="http://www.w3.org/1999/xlink" xmlns:svgjs="http://svgjs.dev/svgjs" id="Capa_1" x="0px" y="0px" viewBox="0 0 512 512" style="enable-background:new 0 0 512 512;" xml:space="preserve" width="300" height="300">  <g width="100%" height="100%" transform="matrix(1,0,0,1,0,0)">    <g>	<path style="stroke-linecap: round; stroke-linejoin: round; stroke-miterlimit: 10;" d="&#10;&#9;&#9;M467.536,362.84h17.496c10.752,0,19.468-8.716,19.468-19.468V26.968c0-10.752-8.716-19.468-19.468-19.468H98.652" fill="none" fill-opacity="1" stroke="#ffc107" stroke-opacity="1" data-original-stroke-color="#000000ff" stroke-width="15" data-original-stroke-width="15"></path>	<path style="stroke-linecap: round; stroke-linejoin: round; stroke-miterlimit: 10;" d="&#10;&#9;&#9;M69.652,7.5H26.968C16.216,7.5,7.5,16.216,7.5,26.968v316.405c0,10.752,8.716,19.468,19.468,19.468h225.529" fill="none" fill-opacity="1" stroke="#ffc107" stroke-opacity="1" data-original-stroke-color="#000000ff" stroke-width="15" data-original-stroke-width="15"></path>			<line style="stroke-linecap: round; stroke-linejoin: round; stroke-miterlimit: 10;" x1="454.5" y1="262.294" x2="454.5" y2="183.564" fill="none" fill-opacity="1" stroke="#ffc107" stroke-opacity="1" data-original-stroke-color="#000000ff" stroke-width="15" data-original-stroke-width="15"></line>	<path style="stroke-linecap: round; stroke-linejoin: round; stroke-miterlimit: 10;" d="&#10;&#9;&#9;M454.5,154.564v-60.81c-20.022,0-36.253-16.231-36.253-36.253H93.753c0,20.022-16.231,36.253-36.253,36.253v182.833&#10;&#9;&#9;c20.022,0,36.253,16.231,36.253,36.253h155.13" fill="none" fill-opacity="1" stroke="#ffc107" stroke-opacity="1" data-original-stroke-color="#000000ff" stroke-width="15" data-original-stroke-width="15"></path>			<polyline style="stroke-linecap: round; stroke-linejoin: round; stroke-miterlimit: 10;" points="&#10;&#9;&#9;256.542,162.191 238.959,187.405 270.145,187.405 251.898,216.124 &#9;" fill="none" fill-opacity="1" stroke="#ffc107" stroke-opacity="1" data-original-stroke-color="#000000ff" stroke-width="15" data-original-stroke-width="15"></polyline>	<path style="stroke-linecap: round; stroke-linejoin: round; stroke-miterlimit: 10;" d="&#10;&#9;&#9;M362.044,137.064H149.956c-3.154,0-5.712-2.557-5.712-5.712v-34.21c0-3.154,2.557-5.712,5.712-5.712h212.088&#10;&#9;&#9;c3.154,0,5.712,2.557,5.712,5.712v34.21C367.756,134.507,365.198,137.064,362.044,137.064z" fill="none" fill-opacity="1" stroke="#ffc107" stroke-opacity="1" data-original-stroke-color="#000000ff" stroke-width="15" data-original-stroke-width="15"></path>	<g>					<line style="stroke-linecap: round; stroke-linejoin: round; stroke-miterlimit: 10;" x1="129.764" y1="240.545" x2="290.498" y2="240.545" fill="none" fill-opacity="1" stroke="#ffc107" stroke-opacity="1" data-original-stroke-color="#000000ff" stroke-width="15" data-original-stroke-width="15"></line>					<line style="stroke-linecap: round; stroke-linejoin: round; stroke-miterlimit: 10;" x1="129.764" y1="274.404" x2="254.552" y2="274.404" fill="none" fill-opacity="1" stroke="#ffc107" stroke-opacity="1" data-original-stroke-color="#000000ff" stroke-width="15" data-original-stroke-width="15"></line>	</g>	<path style="stroke-linecap: round; stroke-linejoin: round; stroke-miterlimit: 10;" d="&#10;&#9;&#9;M367.223,452.157l17.386,48.803c1.233,3.461,5.712,4.356,8.18,1.635l16.182-17.835c1.409-1.553,3.656-2.028,5.573-1.177&#10;&#9;&#9;l46.146,20.485c3.886,1.725,7.957-2.016,6.567-6.034l-29.574-85.447" fill="none" fill-opacity="1" stroke="#ffc107" stroke-opacity="1" data-original-stroke-color="#000000ff" stroke-width="15" data-original-stroke-width="15"></path>	<path style="stroke-linecap: round; stroke-linejoin: round; stroke-miterlimit: 10;" d="&#10;&#9;&#9;M284.061,413.578l-29.231,84.457c-1.39,4.017,2.681,7.758,6.567,6.034l46.146-20.485c1.917-0.851,4.163-0.377,5.573,1.177&#10;&#9;&#9;l16.182,17.835c2.469,2.721,6.947,1.826,8.18-1.635l17.386-48.803" fill="none" fill-opacity="1" stroke="#ffc107" stroke-opacity="1" data-original-stroke-color="#000000ff" stroke-width="15" data-original-stroke-width="15"></path>	<path style="stroke-linecap: round; stroke-linejoin: round; stroke-miterlimit: 10;" d="&#10;&#9;&#9;M481.187,332.014c0,10.23-12.903,18.629-15.425,28.064c-2.609,9.763,4.289,23.472-0.656,32.02&#10;&#9;&#9;c-5.017,8.671-20.385,9.519-27.422,16.556c-7.037,7.037-7.886,22.405-16.556,27.422c-8.547,4.945-22.257-1.953-32.02,0.656&#10;&#9;&#9;c-9.435,2.522-17.834,15.425-28.064,15.425c-10.23,0-18.629-12.903-28.064-15.425c-9.763-2.609-23.472,4.289-32.02-0.656&#10;&#9;&#9;c-8.671-5.017-9.519-20.385-16.556-27.422c-7.037-7.037-22.405-7.886-27.422-16.556c-4.945-8.547,1.953-22.257-0.656-32.02&#10;&#9;&#9;c-2.522-9.435-15.425-17.834-15.425-28.064c0-10.23,12.903-18.629,15.425-28.064c2.609-9.763-4.289-23.472,0.656-32.02&#10;&#9;&#9;c5.017-8.67,20.385-9.519,27.422-16.556c7.037-7.037,7.886-22.405,16.556-27.422c8.547-4.945,22.257,1.953,32.02-0.656&#10;&#9;&#9;c9.435-2.522,17.834-15.425,28.064-15.425c10.23,0,18.629,12.903,28.064,15.425c9.763,2.609,23.472-4.289,32.02,0.656&#10;&#9;&#9;c8.671,5.017,9.519,20.385,16.556,27.422c7.037,7.037,22.405,7.886,27.422,16.556c4.945,8.547-1.953,22.257,0.656,32.02&#10;&#9;&#9;C468.284,313.386,481.187,321.784,481.187,332.014z" fill="none" fill-opacity="1" stroke="#ffc107" stroke-opacity="1" data-original-stroke-color="#000000ff" stroke-width="15" data-original-stroke-width="15"></path>			<polyline style="stroke-linecap: round; stroke-linejoin: round; stroke-miterlimit: 10;" points="&#10;&#9;&#9;363.034,305.048 345.451,330.262 376.637,330.262 358.39,358.981 &#9;" fill="none" fill-opacity="1" stroke="#ffc107" stroke-opacity="1" data-original-stroke-color="#000000ff" stroke-width="15" data-original-stroke-width="15"></polyline>	<path style="stroke-linecap: round; stroke-linejoin: round; stroke-miterlimit: 10;" d="&#10;&#9;&#9;M375.544,396.881c29.735-6.619,51.972-33.138,51.972-64.867c0-36.711-29.761-66.472-66.472-66.472s-66.472,29.761-66.472,66.472&#10;&#9;&#9;c0,31.729,22.237,58.248,51.972,64.867" fill="none" fill-opacity="1" stroke="#ffc107" stroke-opacity="1" data-original-stroke-color="#000000ff" stroke-width="15" data-original-stroke-width="15"></path>	<path style="stroke-linecap: round; stroke-linejoin: round; stroke-miterlimit: 10;" d="&#10;&#9;&#9;M284.404,408.654c-8.705,11.281-18.281,18.753-29.221,20.268c-10.599,1.468-17.793,11.582-16.211,22.163v0&#10;&#9;&#9;c1.168,7.807-2.48,15.549-9.244,19.618l-9.138,5.498" fill="none" fill-opacity="1" stroke="#ffc107" stroke-opacity="1" data-original-stroke-color="#000000ff" stroke-width="15" data-original-stroke-width="15"></path>	<path style="stroke-linecap: round; stroke-linejoin: round; stroke-miterlimit: 10;" d="&#10;&#9;&#9;M437.684,408.654c8.705,11.281,18.281,18.753,29.221,20.268c10.599,1.468,17.793,11.582,16.211,22.163v0&#10;&#9;&#9;c-1.168,7.807,2.48,15.549,9.244,19.618l9.138,5.498" fill="none" fill-opacity="1" stroke="#ffc107" stroke-opacity="1" data-original-stroke-color="#000000ff" stroke-width="15" data-original-stroke-width="15"></path></g>  </g></svg>