<?xml version="1.0" encoding="UTF-8"?>
<svg xmlns="http://www.w3.org/2000/svg" width="62" height="57" viewBox="0 0 62 57" fill="none">
  <path d="M53.4188 0.00114585H7.83125C5.79272 -0.0340042 3.82346 0.74077 2.35538 2.15554C0.887294 3.57031 0.040242 5.50958 0 7.54802V38.3918C0.040242 40.4302 0.887294 42.3695 2.35538 43.7843C3.82346 45.199 5.79272 45.9738 7.83125 45.9386H37.1875V54.6886C37.1897 55.1205 37.3196 55.5421 37.561 55.9002C37.8023 56.2584 38.1443 56.537 38.5438 56.7011C38.9421 56.8687 39.3812 56.9144 39.8055 56.8327C40.2299 56.7509 40.6205 56.5453 40.9281 56.2418L43.75 53.398L46.5719 56.2418C46.7763 56.4445 47.0187 56.6049 47.2852 56.7138C47.5517 56.8226 47.8371 56.8778 48.125 56.8761C48.4119 56.8835 48.6966 56.8236 48.9562 56.7011C49.3557 56.537 49.6977 56.2584 49.939 55.9002C50.1804 55.5421 50.3103 55.1205 50.3125 54.6886V45.9386H53.4188C55.4573 45.9738 57.4265 45.199 58.8946 43.7843C60.3627 42.3695 61.2098 40.4302 61.25 38.3918V7.54802C61.2098 5.50958 60.3627 3.57031 58.8946 2.15554C57.4265 0.74077 55.4573 -0.0340042 53.4188 0.00114585ZM43.75 37.1886C42.8847 37.1886 42.0388 36.9321 41.3194 36.4513C40.5999 35.9706 40.0392 35.2873 39.708 34.4879C39.3769 33.6885 39.2903 32.8088 39.4591 31.9601C39.6279 31.1115 40.0446 30.3319 40.6564 29.7201C41.2683 29.1082 42.0478 28.6915 42.8965 28.5227C43.7451 28.3539 44.6248 28.4405 45.4242 28.7717C46.2237 29.1028 46.9069 29.6636 47.3877 30.383C47.8684 31.1025 48.125 31.9484 48.125 32.8136C48.125 33.974 47.6641 35.0868 46.8436 35.9072C46.0231 36.7277 44.9103 37.1886 43.75 37.1886ZM45.3031 48.7605C45.0998 48.5555 44.8578 48.3928 44.5913 48.2817C44.3247 48.1706 44.0388 48.1135 43.75 48.1135C43.4612 48.1135 43.1753 48.1706 42.9087 48.2817C42.6422 48.3928 42.4002 48.5555 42.1969 48.7605L41.5625 49.4168V41.2574C42.9922 41.6659 44.5078 41.6659 45.9375 41.2574V49.4168L45.3031 48.7605ZM56.875 38.3918C56.8352 39.27 56.4493 40.0967 55.8016 40.6911C55.1539 41.2855 54.2971 41.5993 53.4188 41.5636H50.3125V39.3761C50.3025 39.1449 50.2583 38.9163 50.1813 38.698C51.3344 37.4481 52.0983 35.8892 52.3795 34.2121C52.6608 32.5349 52.4472 30.8121 51.7649 29.2544C51.0826 27.6967 49.9612 26.3715 48.5378 25.441C47.1143 24.5105 45.4506 24.0149 43.75 24.0149C42.0494 24.0149 40.3857 24.5105 38.9622 25.441C37.5388 26.3715 36.4174 27.6967 35.7351 29.2544C35.0528 30.8121 34.8392 32.5349 35.1205 34.2121C35.4017 35.8892 36.1656 37.4481 37.3187 38.698C37.2417 38.9163 37.1975 39.1449 37.1875 39.3761V41.5636H7.83125C6.95286 41.5993 6.09611 41.2855 5.44841 40.6911C4.80071 40.0967 4.41476 39.27 4.375 38.3918V7.54802C4.41476 6.66981 4.80071 5.84308 5.44841 5.24867C6.09611 4.65426 6.95286 4.34054 7.83125 4.37615H53.4188C54.2971 4.34054 55.1539 4.65426 55.8016 5.24867C56.4493 5.84308 56.8352 6.66981 56.875 7.54802V38.3918Z" fill="white"></path>
  <path d="M21.875 13.126H39.375C39.9552 13.126 40.5116 12.8955 40.9218 12.4853C41.332 12.075 41.5625 11.5186 41.5625 10.9385C41.5625 10.3583 41.332 9.80192 40.9218 9.39168C40.5116 8.98145 39.9552 8.75098 39.375 8.75098H21.875C21.2948 8.75098 20.7384 8.98145 20.3282 9.39168C19.918 9.80192 19.6875 10.3583 19.6875 10.9385C19.6875 11.5186 19.918 12.075 20.3282 12.4853C20.7384 12.8955 21.2948 13.126 21.875 13.126Z" fill="white"></path>
  <path d="M48.125 17.501H13.125C12.5448 17.501 11.9884 17.7314 11.5782 18.1417C11.168 18.5519 10.9375 19.1083 10.9375 19.6885C10.9375 20.2686 11.168 20.825 11.5782 21.2353C11.9884 21.6455 12.5448 21.876 13.125 21.876H48.125C48.7052 21.876 49.2616 21.6455 49.6718 21.2353C50.082 20.825 50.3125 20.2686 50.3125 19.6885C50.3125 19.1083 50.082 18.5519 49.6718 18.1417C49.2616 17.7314 48.7052 17.501 48.125 17.501Z" fill="white"></path>
  <path d="M24.0625 30.626H13.125C12.5448 30.626 11.9884 30.8564 11.5782 31.2667C11.168 31.6769 10.9375 32.2333 10.9375 32.8135C10.9375 33.3936 11.168 33.95 11.5782 34.3603C11.9884 34.7705 12.5448 35.001 13.125 35.001H24.0625C24.6427 35.001 25.1991 34.7705 25.6093 34.3603C26.0195 33.95 26.25 33.3936 26.25 32.8135C26.25 32.2333 26.0195 31.6769 25.6093 31.2667C25.1991 30.8564 24.6427 30.626 24.0625 30.626Z" fill="white"></path>
</svg>
