<svg xmlns="http://www.w3.org/2000/svg" xmlns:xlink="http://www.w3.org/1999/xlink" xmlns:svgjs="http://svgjs.dev/svgjs" height="300" viewBox="0 0 64 64" width="300"><g width="100%" height="100%" transform="matrix(1,0,0,1,0,0)"><g id="Home_Charger-Electric_Charging_Station-Charging_Station-Electric_Car-Battery" data-name="Home Charger-Electric Charging Station-Charging Station-Electric Car-Battery"><path d="m24 25h2v3h-2z" fill="#ffc107" fill-opacity="1" data-original-color="#000000ff" stroke="none" stroke-opacity="1"></path><path d="m28 25h2v3h-2z" fill="#ffc107" fill-opacity="1" data-original-color="#000000ff" stroke="none" stroke-opacity="1"></path><path d="m32 25h2v3h-2z" fill="#ffc107" fill-opacity="1" data-original-color="#000000ff" stroke="none" stroke-opacity="1"></path><path d="m49 27v-6h-2v2h-4v-2h-2v6a2.006 2.006 0 0 0 -2 2v2a2 2 0 0 0 1 1.72v1.28a5.017 5.017 0 0 0 4 4.9v8.1a2 2 0 0 1 -4 0v-8a3.009 3.009 0 0 0 -3-3v-11a8 8 0 0 0 -16 0v5a2.006 2.006 0 0 0 -2 2v8h-10a3.009 3.009 0 0 0 -3 3v17a2.006 2.006 0 0 0 2 2h27a2.006 2.006 0 0 0 2-2v-1a3.009 3.009 0 0 0 -3-3h-2v-8h3a2.006 2.006 0 0 0 2-2v-8a1 1 0 0 1 1 1v8a4 4 0 0 0 8 0v-8.1a5.017 5.017 0 0 0 4-4.9v-1.28a2 2 0 0 0 1-1.72v-2a2.006 2.006 0 0 0 -2-2zm-28 13h4v-2h-4v-2h4v-2h-4v-2h6v10h-6zm-7 20h-2v-8h2zm0-10h-2v-1a1 1 0 0 1 2 0zm7 9v1h-5v-11a3 3 0 0 0 -6 0v11h-2v-17a1 1 0 0 1 1-1h10a2.006 2.006 0 0 0 2 2v2a2.006 2.006 0 0 0 2 2h3v8h-2a3.009 3.009 0 0 0 -3 3zm13-1a1 1 0 0 1 1 1v1h-12v-1a1 1 0 0 1 1-1zm-6-2v-8h2v8zm7-10h-12v-2h4a2.006 2.006 0 0 0 2-2v-4h6zm0-10h-6v-4a2.006 2.006 0 0 0 -2-2h-4v-5a6 6 0 0 1 12 0zm8-11h4v2h-4zm5 9a3 3 0 0 1 -6 0v-1h6zm1-3h-8v-2h8z" fill="#ffc107" fill-opacity="1" data-original-color="#000000ff" stroke="none" stroke-opacity="1"></path><path d="m18 48h2v2h-2z" fill="#ffc107" fill-opacity="1" data-original-color="#000000ff" stroke="none" stroke-opacity="1"></path><path d="m18 52h2v2h-2z" fill="#ffc107" fill-opacity="1" data-original-color="#000000ff" stroke="none" stroke-opacity="1"></path><path d="m18 56h2v2h-2z" fill="#ffc107" fill-opacity="1" data-original-color="#000000ff" stroke="none" stroke-opacity="1"></path><path d="m56 53h-2l1.8-2.4-1.6-1.2-3 4a1 1 0 0 0 .8 1.6h2l-1.8 2.4 1.6 1.2 3-4a1 1 0 0 0 -.8-1.6z" fill="#ffc107" fill-opacity="1" data-original-color="#000000ff" stroke="none" stroke-opacity="1"></path><path d="m54 46a8 8 0 1 0 8 8 8.009 8.009 0 0 0 -8-8zm0 14a6 6 0 1 1 6-6 6.006 6.006 0 0 1 -6 6z" fill="#ffc107" fill-opacity="1" data-original-color="#000000ff" stroke="none" stroke-opacity="1"></path><path d="m32 8.962 25.791 16.749a3 3 0 0 0 3.269-5.032l-27.971-18.164a2 2 0 0 0 -2.179 0l-27.97 18.164a3 3 0 0 0 3.269 5.032zm-28.264 14.777a1 1 0 0 1 .294-1.383l27.97-18.164 27.97 18.164a1 1 0 0 1 -1.089 1.677l-25.792-16.749a2 2 0 0 0 -2.179 0l-25.791 16.749a1 1 0 0 1 -1.383-.294z" fill="#ffc107" fill-opacity="1" data-original-color="#000000ff" stroke="none" stroke-opacity="1"></path></g></g></svg>