<svg xmlns="http://www.w3.org/2000/svg" xmlns:xlink="http://www.w3.org/1999/xlink" xmlns:svgjs="http://svgjs.dev/svgjs" height="300" viewBox="0 0 62 61.96" width="300"><g width="100%" height="100%" transform="matrix(1,0,0,1,0,0)"><g id="Layer_2" data-name="Layer 2"><g id="Layer_1-2" data-name="Layer 1"><g id="eco_system" data-name="eco system"><path d="m9 62h-6v-14h6zm-4-2h2v-10h-2z" fill="#ffc107" fill-opacity="1" data-original-color="#000000ff" stroke="none" stroke-opacity="1"></path><path d="m12 60h-4v-2h4a3 3 0 1 0 0-6h-4v-2h4a5 5 0 1 1 0 10z" fill="#ffc107" fill-opacity="1" data-original-color="#000000ff" stroke="none" stroke-opacity="1"></path><path d="m0 49.96h4v2h-4z" fill="#ffc107" fill-opacity="1" data-original-color="#000000ff" stroke="none" stroke-opacity="1"></path><path d="m0 57.96h4v2h-4z" fill="#ffc107" fill-opacity="1" data-original-color="#000000ff" stroke="none" stroke-opacity="1"></path><path d="m41 57.96h-2v-2h-23v-2h25z" fill="#ffc107" fill-opacity="1" data-original-color="#000000ff" stroke="none" stroke-opacity="1"></path><path d="m43 51.96h2v6h-2z" fill="#ffc107" fill-opacity="1" data-original-color="#000000ff" stroke="none" stroke-opacity="1"></path><path d="m57 56h-10v-4h2v2h8a3 3 0 0 0 0-6h-20a4 4 0 0 1 0-8h11a3 3 0 0 0 0-6h-6v4h-28v-2h26v-4h8a5 5 0 0 1 0 10h-11a2 2 0 0 0 0 4h20a5 5 0 0 1 0 10z" fill="#ffc107" fill-opacity="1" data-original-color="#000000ff" stroke="none" stroke-opacity="1"></path><path d="m40 17.96h2v12h-2z" fill="#ffc107" fill-opacity="1" data-original-color="#000000ff" stroke="none" stroke-opacity="1"></path><path d="m12 37.96h-6v-20h2v18h2v-8h10v9h-2v-7h-6z" fill="#ffc107" fill-opacity="1" data-original-color="#000000ff" stroke="none" stroke-opacity="1"></path><path d="m37 32h-12v-8h12zm-10-2h8v-4h-8z" fill="#ffc107" fill-opacity="1" data-original-color="#000000ff" stroke="none" stroke-opacity="1"></path><path d="m24 19a3 3 0 1 1 3-3 3 3 0 0 1 -3 3zm0-4a1 1 0 1 0 1 1 1 1 0 0 0 -1-1z" fill="#ffc107" fill-opacity="1" data-original-color="#000000ff" stroke="none" stroke-opacity="1"></path><path d="m31 16h-2a5 5 0 0 0 -10 0h-2a7 7 0 0 1 14 0z" fill="#ffc107" fill-opacity="1" data-original-color="#000000ff" stroke="none" stroke-opacity="1"></path><path d="m43 19h-10v-2h10a1 1 0 0 0 1-1 1 1 0 0 0 -.4-.8l-16.6-12.2a5.23 5.23 0 0 0 -6 0l-16.6 12.16a1 1 0 0 0 -.4.84 1 1 0 0 0 1 1h10v2h-10a3 3 0 0 1 -1.77-5.41l16.57-12.25a7.24 7.24 0 0 1 8.4 0l16.58 12.21a3 3 0 0 1 -1.78 5.45z" fill="#ffc107" fill-opacity="1" data-original-color="#000000ff" stroke="none" stroke-opacity="1"></path></g></g></g></g></svg>