<?xml version="1.0" encoding="UTF-8"?>
<svg xmlns="http://www.w3.org/2000/svg" width="70" height="70" viewBox="0 0 70 70" fill="none">
  <path d="M61.0531 4.375H8.94688C7.73611 4.38075 6.57658 4.86428 5.72043 5.72043C4.86428 6.57658 4.38075 7.73611 4.375 8.94688V45.7406C4.38075 46.9514 4.86428 48.1109 5.72043 48.9671C6.57658 49.8232 7.73611 50.3067 8.94688 50.3125H15.3125V56.875C15.3125 57.4552 15.543 58.0116 15.9532 58.4218C16.3634 58.832 16.9198 59.0625 17.5 59.0625H19.6875V63.4375C19.6875 64.0177 19.918 64.5741 20.3282 64.9843C20.7384 65.3945 21.2948 65.625 21.875 65.625C22.4552 65.625 23.0116 65.3945 23.4218 64.9843C23.832 64.5741 24.0625 64.0177 24.0625 63.4375V59.0625H26.25V63.4375C26.25 64.0177 26.4805 64.5741 26.8907 64.9843C27.3009 65.3945 27.8573 65.625 28.4375 65.625C29.0177 65.625 29.5741 65.3945 29.9843 64.9843C30.3945 64.5741 30.625 64.0177 30.625 63.4375V59.0625H39.375V63.4375C39.375 64.0177 39.6055 64.5741 40.0157 64.9843C40.4259 65.3945 40.9823 65.625 41.5625 65.625C42.1427 65.625 42.6991 65.3945 43.1093 64.9843C43.5195 64.5741 43.75 64.0177 43.75 63.4375V59.0625H45.9375V63.4375C45.9375 64.0177 46.168 64.5741 46.5782 64.9843C46.9884 65.3945 47.5448 65.625 48.125 65.625C48.7052 65.625 49.2616 65.3945 49.6718 64.9843C50.082 64.5741 50.3125 64.0177 50.3125 63.4375V59.0625H52.5C53.0802 59.0625 53.6366 58.832 54.0468 58.4218C54.457 58.0116 54.6875 57.4552 54.6875 56.875V50.3125H61.0531C62.2639 50.3067 63.4234 49.8232 64.2796 48.9671C65.1357 48.1109 65.6192 46.9514 65.625 45.7406V8.94688C65.6192 7.73611 65.1357 6.57658 64.2796 5.72043C63.4234 4.86428 62.2639 4.38075 61.0531 4.375ZM50.3125 54.6875H19.6875V50.3125H50.3125V54.6875ZM61.25 45.7406C61.25 45.7928 61.2293 45.8429 61.1923 45.8798C61.1554 45.9168 61.1053 45.9375 61.0531 45.9375H8.94688C8.89466 45.9375 8.84458 45.9168 8.80766 45.8798C8.77074 45.8429 8.75 45.7928 8.75 45.7406V8.94688C8.75 8.89466 8.77074 8.84458 8.80766 8.80766C8.84458 8.77074 8.89466 8.75 8.94688 8.75H61.0531C61.1053 8.75 61.1554 8.77074 61.1923 8.80766C61.2293 8.84458 61.25 8.89466 61.25 8.94688V45.7406Z" fill="white"></path>
  <path d="M54.6875 13.125H15.3125C14.7323 13.125 14.1759 13.3555 13.7657 13.7657C13.3555 14.1759 13.125 14.7323 13.125 15.3125V28.4375C13.125 29.0177 13.3555 29.5741 13.7657 29.9843C14.1759 30.3945 14.7323 30.625 15.3125 30.625H54.6875C55.2677 30.625 55.8241 30.3945 56.2343 29.9843C56.6445 29.5741 56.875 29.0177 56.875 28.4375V15.3125C56.875 14.7323 56.6445 14.1759 56.2343 13.7657C55.8241 13.3555 55.2677 13.125 54.6875 13.125ZM52.5 26.25H17.5V17.5H52.5V26.25Z" fill="white"></path>
  <path d="M51.4063 32.8125C50.3246 32.8125 49.2673 33.1332 48.368 33.7341C47.4686 34.3351 46.7677 35.1892 46.3538 36.1884C45.9399 37.1877 45.8316 38.2873 46.0426 39.3482C46.2536 40.409 46.7744 41.3834 47.5393 42.1482C48.3041 42.9131 49.2785 43.4339 50.3394 43.6449C51.4002 43.8559 52.4998 43.7476 53.4991 43.3337C54.4983 42.9198 55.3524 42.2189 55.9534 41.3195C56.5543 40.4202 56.875 39.3629 56.875 38.2812C56.875 36.8308 56.2988 35.4398 55.2732 34.4143C54.2477 33.3887 52.8567 32.8125 51.4063 32.8125ZM51.4063 39.375C51.1899 39.375 50.9785 39.3109 50.7986 39.1907C50.6187 39.0705 50.4785 38.8997 50.3958 38.6998C50.313 38.5 50.2913 38.28 50.3335 38.0679C50.3757 37.8557 50.4799 37.6608 50.6329 37.5079C50.7858 37.3549 50.9807 37.2507 51.1929 37.2085C51.405 37.1663 51.625 37.188 51.8248 37.2708C52.0247 37.3535 52.1955 37.4937 52.3157 37.6736C52.4359 37.8535 52.5 38.0649 52.5 38.2812C52.5 38.5713 52.3848 38.8495 52.1797 39.0546C51.9745 39.2598 51.6963 39.375 51.4063 39.375Z" fill="white"></path>
  <path d="M26.25 37.1875H15.3125C14.7323 37.1875 14.1759 37.418 13.7657 37.8282C13.3555 38.2384 13.125 38.7948 13.125 39.375C13.125 39.9552 13.3555 40.5116 13.7657 40.9218C14.1759 41.332 14.7323 41.5625 15.3125 41.5625H26.25C26.8302 41.5625 27.3866 41.332 27.7968 40.9218C28.207 40.5116 28.4375 39.9552 28.4375 39.375C28.4375 38.7948 28.207 38.2384 27.7968 37.8282C27.3866 37.418 26.8302 37.1875 26.25 37.1875Z" fill="white"></path>
</svg>
