<svg xmlns="http://www.w3.org/2000/svg" xmlns:xlink="http://www.w3.org/1999/xlink" xmlns:svgjs="http://svgjs.dev/svgjs" id="Layer_3" data-name="Layer 3" viewBox="0 0 64 64" width="300" height="300"><g width="100%" height="100%" transform="matrix(1,0,0,1,0,0)"><path d="M32,9A14,14,0,1,0,46,23,14.015,14.015,0,0,0,32,9Zm0,26A12,12,0,1,1,44,23,12.013,12.013,0,0,1,32,35Z" fill="#ffc107" fill-opacity="1" data-original-color="#000000ff" stroke="none" stroke-opacity="1"></path><path d="M59,51V45a1,1,0,0,0-.219-.625L55,39.649V36a1,1,0,0,0-1-1V23a22,22,0,0,0-44,0V37a1,1,0,0,0-1,1v3.649L5.219,46.375A1,1,0,0,0,5,47v6a1,1,0,0,0-1,1v4a1,1,0,0,0,1,1H21a1,1,0,0,0,1-1V54a1,1,0,0,0-1-1V47a1,1,0,0,0-.219-.625L17,41.649V38a1,1,0,0,0-1-1V31.208a17.968,17.968,0,0,0,32,0V35a1,1,0,0,0-1,1v3.649l-3.781,4.726A1,1,0,0,0,43,45v6a1,1,0,0,0-1,1v4a1,1,0,0,0,1,1h1v3a3,3,0,0,0,6,0V57h2v3a3,3,0,0,0,6,0V57h1a1,1,0,0,0,1-1V52A1,1,0,0,0,59,51ZM49,39V37h4v2ZM15,39v2H11V39Zm5,18H6V55H20Zm-1-9.649V53H7V47.351L10.481,43h5.038ZM32,39A16,16,0,1,1,48,23,16.019,16.019,0,0,1,32,39ZM50,23a18,18,0,0,0-36,0V37H12V23a20,20,0,0,1,40,0V35H50ZM45,45.351,48.481,41h5.038L57,45.351V51H45ZM48,60a1,1,0,0,1-2,0V57h2Zm8,0a1,1,0,0,1-2,0V57h2Zm2-5H44V53H58Z" fill="#ffc107" fill-opacity="1" data-original-color="#000000ff" stroke="none" stroke-opacity="1"></path><path d="M52.707,45.293l-2-2-1.414,1.414L50.586,46l-1.293,1.293a1,1,0,0,0,0,1.414l2,2,1.414-1.414L51.414,48l1.293-1.293A1,1,0,0,0,52.707,45.293Z" fill="#ffc107" fill-opacity="1" data-original-color="#000000ff" stroke="none" stroke-opacity="1"></path></g></svg>