<svg xmlns="http://www.w3.org/2000/svg" xmlns:xlink="http://www.w3.org/1999/xlink" xmlns:svgjs="http://svgjs.dev/svgjs" clip-rule="evenodd" fill-rule="evenodd" height="300" image-rendering="optimizeQuality" shape-rendering="geometricPrecision" text-rendering="geometricPrecision" viewBox="0 0 7111 7111" width="300"><g width="100%" height="100%" transform="matrix(1,0,0,1,0,0)"><g id="Layer_x0020_1"><path d="m3423 7110c-925 0-1678-753-1678-1678 0-926 753-1678 1678-1678 926 0 1679 752 1679 1678 0 925-753 1678-1679 1678zm0-3190c-833 0-1511 678-1511 1512 0 833 678 1511 1511 1511 834 0 1512-678 1512-1511 0-834-678-1512-1512-1512z" fill="#ffc107" fill-opacity="1" data-original-color="#000000ff" stroke="none" stroke-opacity="1"></path><path d="m2461 3117h-1286c-169 0-306-137-306-306v-891c0-169 137-307 306-307h1286c169 0 306 138 306 307v891c0 169-137 306-306 306zm-1286-1337c-77 0-140 63-140 140v891c0 77 63 139 140 139h1286c77 0 139-62 139-139v-891c0-77-62-140-139-140z" fill="#ffc107" fill-opacity="1" data-original-color="#000000ff" stroke="none" stroke-opacity="1"></path><path d="m5999 1920h-1012c-46 0-84-37-84-83s38-83 84-83h1012c46 0 83 37 83 83s-37 83-83 83z" fill="#ffc107" fill-opacity="1" data-original-color="#000000ff" stroke="none" stroke-opacity="1"></path><path d="m5999 2395h-1012c-46 0-84-37-84-83s38-84 84-84h1012c46 0 83 38 83 84s-37 83-83 83z" fill="#ffc107" fill-opacity="1" data-original-color="#000000ff" stroke="none" stroke-opacity="1"></path><path d="m5999 2870h-1012c-46 0-84-37-84-83s38-84 84-84h1012c46 0 83 38 83 84s-37 83-83 83z" fill="#ffc107" fill-opacity="1" data-original-color="#000000ff" stroke="none" stroke-opacity="1"></path><path d="m5868 3752c-188 0-340-153-340-340 0-188 152-341 340-341s340 153 340 341c0 187-152 340-340 340zm0-514c-96 0-174 78-174 174s78 174 174 174 174-78 174-174-78-174-174-174z" fill="#ffc107" fill-opacity="1" data-original-color="#000000ff" stroke="none" stroke-opacity="1"></path><path d="m5117 3752c-188 0-340-153-340-340 0-188 152-341 340-341s341 153 341 341c0 187-153 340-341 340zm0-514c-96 0-174 78-174 174s78 174 174 174 174-78 174-174-78-174-174-174z" fill="#ffc107" fill-opacity="1" data-original-color="#000000ff" stroke="none" stroke-opacity="1"></path><path d="m6533 5107h-1568c-46 0-83-38-83-84s37-83 83-83h1568c100 0 182-82 182-183v-3704c0-100-81-182-182-182h-5955c-100 0-182 82-182 182v3704c0 101 82 183 182 183h1303c46 0 84 37 84 83s-38 84-84 84h-1303c-192 0-349-157-349-350v-3704c0-192 157-349 349-349h5955c192 0 349 157 349 349v3704c0 193-157 350-349 350z" fill="#ffc107" fill-opacity="1" data-original-color="#000000ff" stroke="none" stroke-opacity="1"></path><path d="m4811 871c-36 0-69-24-80-60l-130-437c-61-207-155-207-186-207h-1719c-31 0-125 0-186 207l-130 437c-13 44-60 69-104 56s-69-59-56-103l130-438c80-269 232-325 346-325h1719c114 0 266 56 346 325l130 438c16 54-24 107-80 107z" fill="#ffc107" fill-opacity="1" data-original-color="#000000ff" stroke="none" stroke-opacity="1"></path><path d="m2801 5756c-34 0-65-21-78-55-140-375-50-805 228-1093 210-218 503-334 805-319 46 2 82 41 79 87-2 46-41 81-87 79-254-12-501 85-677 268-234 243-309 604-192 920 21 55-21 113-78 113z" fill="#ffc107" fill-opacity="1" data-original-color="#000000ff" stroke="none" stroke-opacity="1"></path><path d="m2801 5756c-20 0-41-8-56-22l-438-402c-33-31-36-84-5-117 32-34 84-37 118-5l343 314 147-441c15-44 62-67 106-53 43 15 67 62 52 106l-188 563c-11 34-43 57-79 57z" fill="#ffc107" fill-opacity="1" data-original-color="#000000ff" stroke="none" stroke-opacity="1"></path><path d="m3515 6202c-109 0-220-17-327-52-44-15-67-62-53-106 15-43 62-67 106-52 320 106 678 17 912-225 176-183 265-434 243-687-4-46 30-87 76-90 46-4 86 30 90 76 26 301-80 599-289 816-200 208-477 320-758 320z" fill="#ffc107" fill-opacity="1" data-original-color="#000000ff" stroke="none" stroke-opacity="1"></path><path d="m3632 6576c-22 0-43-8-60-24l-417-423c-42-43-26-115 30-136l556-209c43-16 91 6 107 49s-6 91-49 107l-435 164 327 331c52 52 14 141-59 141z" fill="#ffc107" fill-opacity="1" data-original-color="#000000ff" stroke="none" stroke-opacity="1"></path><path d="m6266 871c-46 0-83-37-83-83v-589h-865v589c0 46-37 83-83 83s-84-37-84-83v-672c0-46 38-84 84-84h1031c46 0 83 38 83 84v672c0 46-37 83-83 83z" fill="#ffc107" fill-opacity="1" data-original-color="#000000ff" stroke="none" stroke-opacity="1"></path><path d="m1876 871c-46 0-83-37-83-83v-589h-865v589c0 46-37 83-83 83s-83-37-83-83v-672c0-46 37-84 83-84h1031c46 0 84 38 84 84v672c0 46-38 83-84 83z" fill="#ffc107" fill-opacity="1" data-original-color="#000000ff" stroke="none" stroke-opacity="1"></path></g></g></svg>