<?xml version="1.0" encoding="UTF-8"?>
<svg xmlns="http://www.w3.org/2000/svg" width="70" height="70" viewBox="0 0 70 70" fill="none">
  <path d="M59.0625 44.0781V14.875C59.0567 13.2523 58.4096 11.6978 57.2622 10.5503C56.1147 9.40293 54.5602 8.75576 52.9375 8.75H17.0625C15.4398 8.75576 13.8853 9.40293 12.7378 10.5503C11.5904 11.6978 10.9433 13.2523 10.9375 14.875V44.0781C9.06757 44.5609 7.40989 45.6488 6.22285 47.1721C5.03581 48.6955 4.3861 50.5688 4.375 52.5V59.0625C4.375 59.6427 4.60547 60.1991 5.0157 60.6093C5.42594 61.0195 5.98234 61.25 6.5625 61.25H63.4375C64.0177 61.25 64.5741 61.0195 64.9843 60.6093C65.3945 60.1991 65.625 59.6427 65.625 59.0625V52.5C65.6139 50.5688 64.9642 48.6955 63.7771 47.1721C62.5901 45.6488 60.9324 44.5609 59.0625 44.0781ZM15.3125 14.875C15.3125 14.4109 15.4969 13.9658 15.8251 13.6376C16.1533 13.3094 16.5984 13.125 17.0625 13.125H52.9375C53.4016 13.125 53.8467 13.3094 54.1749 13.6376C54.5031 13.9658 54.6875 14.4109 54.6875 14.875V43.75H15.3125V14.875ZM61.25 56.875H8.75V52.5C8.75 51.3397 9.21094 50.2269 10.0314 49.4064C10.8519 48.5859 11.9647 48.125 13.125 48.125H56.875C58.0353 48.125 59.1481 48.5859 59.9686 49.4064C60.7891 50.2269 61.25 51.3397 61.25 52.5V56.875Z" fill="white"></path>
  <path d="M30.625 50.3125H19.6875C19.1073 50.3125 18.5509 50.543 18.1407 50.9532C17.7305 51.3634 17.5 51.9198 17.5 52.5C17.5 53.0802 17.7305 53.6366 18.1407 54.0468C18.5509 54.457 19.1073 54.6875 19.6875 54.6875H30.625C31.2052 54.6875 31.7616 54.457 32.1718 54.0468C32.582 53.6366 32.8125 53.0802 32.8125 52.5C32.8125 51.9198 32.582 51.3634 32.1718 50.9532C31.7616 50.543 31.2052 50.3125 30.625 50.3125Z" fill="white"></path>
  <path d="M35 19.6875C33.0393 19.6941 31.1045 20.1349 29.3344 20.9781L28.1969 18.7906C27.9121 18.3174 27.4588 17.9693 26.9281 17.8164C26.3973 17.6635 25.8284 17.7171 25.3355 17.9663C24.8426 18.2155 24.4622 18.642 24.2707 19.1601C24.0792 19.6782 24.0908 20.2495 24.3031 20.7594L25.725 23.625C24.5105 24.8279 23.5453 26.2586 22.8846 27.8352C22.2239 29.4117 21.8809 31.1031 21.875 32.8125C21.875 33.3927 22.1055 33.9491 22.5157 34.3593C22.9259 34.7695 23.4823 35 24.0625 35C24.6427 35 25.1991 34.7695 25.6093 34.3593C26.0195 33.9491 26.25 33.3927 26.25 32.8125C26.2601 31.0123 26.817 29.2577 27.8469 27.7813L33.0531 38.1719C33.2349 38.5326 33.513 38.836 33.8567 39.0484C34.2003 39.2607 34.596 39.3738 35 39.375C35.3432 39.3791 35.6818 39.2963 35.9844 39.1344C36.4996 38.8721 36.89 38.4166 37.0704 37.8673C37.2507 37.3181 37.2063 36.7197 36.9469 36.2031L31.3031 24.9156C32.6339 24.2953 34.0995 24.0198 35.5647 24.1145C37.03 24.2093 38.4478 24.6712 39.6876 25.4578C40.9275 26.2444 41.9494 27.3304 42.6593 28.6157C43.3693 29.9009 43.7443 31.3442 43.75 32.8125C43.75 33.3927 43.9805 33.9491 44.3907 34.3593C44.8009 34.7695 45.3573 35 45.9375 35C46.5177 35 47.0741 34.7695 47.4843 34.3593C47.8945 33.9491 48.125 33.3927 48.125 32.8125C48.125 29.3315 46.7422 25.9931 44.2808 23.5317C41.8194 21.0703 38.481 19.6875 35 19.6875Z" fill="white"></path>
</svg>
