<?xml version="1.0" encoding="UTF-8"?>
<svg xmlns="http://www.w3.org/2000/svg" width="70" height="70" viewBox="0 0 70 70" fill="none">
  <path d="M60.9875 13.125H24.0625V8.75H26.25C26.8302 8.75 27.3866 8.51953 27.7968 8.1093C28.207 7.69906 28.4375 7.14266 28.4375 6.5625C28.4375 5.98234 28.207 5.42594 27.7968 5.0157C27.3866 4.60547 26.8302 4.375 26.25 4.375H6.56251C5.98235 4.375 5.42595 4.60547 5.01571 5.0157C4.60548 5.42594 4.37501 5.98234 4.37501 6.5625C4.37501 7.14266 4.60548 7.69906 5.01571 8.1093C5.42595 8.51953 5.98235 8.75 6.56251 8.75H8.75001V13.125C7.56421 13.1975 6.45088 13.7202 5.63768 14.5863C4.82447 15.4524 4.37279 16.5964 4.37501 17.7844V63.4375C4.37501 64.0177 4.60548 64.5741 5.01571 64.9843C5.42595 65.3945 5.98235 65.625 6.56251 65.625H24.0625C24.3504 65.6267 24.6358 65.5715 24.9023 65.4626C25.1688 65.3538 25.4112 65.1934 25.6156 64.9906L29.3344 61.25H40.6656L44.3844 64.9906C44.5888 65.1934 44.8312 65.3538 45.0977 65.4626C45.3642 65.5715 45.6496 65.6267 45.9375 65.625H63.4375C64.0177 65.625 64.5741 65.3945 64.9843 64.9843C65.3945 64.5741 65.625 64.0177 65.625 63.4375V17.7844C65.6279 17.1735 65.5101 16.5681 65.2783 16.003C65.0465 15.4378 64.7054 14.924 64.2745 14.491C63.8436 14.0581 63.3313 13.7145 62.7673 13.4801C62.2032 13.2457 61.5984 13.125 60.9875 13.125ZM19.6875 8.75V13.125H13.125V8.75H19.6875ZM8.75001 17.7844C8.75001 17.747 8.75736 17.7101 8.77166 17.6755C8.78595 17.641 8.80689 17.6097 8.8333 17.5833C8.85971 17.5569 8.89106 17.5359 8.92556 17.5216C8.96006 17.5074 8.99704 17.5 9.03438 17.5H60.9875C61.0591 17.5055 61.1259 17.5379 61.1746 17.5906C61.2233 17.6434 61.2502 17.7126 61.25 17.7844V50.3125H8.75001V17.7844ZM61.25 61.25H46.8344L43.1156 57.5094C42.9112 57.3066 42.6688 57.1462 42.4023 57.0374C42.1358 56.9285 41.8504 56.8733 41.5625 56.875H28.4375C28.1496 56.8733 27.8642 56.9285 27.5977 57.0374C27.3312 57.1462 27.0888 57.3066 26.8844 57.5094L23.1656 61.25H8.75001V54.6875H61.25V61.25Z" fill="white"></path>
  <path d="M34.9999 19.6875C31.3769 19.8411 27.9622 21.4232 25.5026 24.0878C23.043 26.7524 21.7387 30.2826 21.8749 33.9062C21.7387 37.5299 23.043 41.0601 25.5026 43.7247C27.9622 46.3893 31.3769 47.9714 34.9999 48.125C38.6229 47.9714 42.0377 46.3893 44.4973 43.7247C46.9569 41.0601 48.2612 37.5299 48.1249 33.9062C48.2612 30.2826 46.9569 26.7524 44.4973 24.0878C42.0377 21.4232 38.6229 19.8411 34.9999 19.6875ZM34.9999 43.75C32.5369 43.5978 30.2342 42.4771 28.5948 40.6327C26.9553 38.7883 26.1123 36.3701 26.2499 33.9062C26.1123 31.4424 26.9553 29.0242 28.5948 27.1798C30.2342 25.3354 32.5369 24.2147 34.9999 24.0625C37.4629 24.2147 39.7657 25.3354 41.4051 27.1798C43.0446 29.0242 43.8876 31.4424 43.7499 33.9062C43.8876 36.3701 43.0446 38.7883 41.4051 40.6327C39.7657 42.4771 37.4629 43.5978 34.9999 43.75Z" fill="white"></path>
  <path d="M38.74 26.8844C38.5367 26.6793 38.2947 26.5166 38.0281 26.4055C37.7616 26.2945 37.4757 26.2373 37.1869 26.2373C36.8981 26.2373 36.6122 26.2945 36.3456 26.4055C36.0791 26.5166 35.8371 26.6793 35.6338 26.8844L31.2588 31.2594C31.0128 31.5051 30.8289 31.8059 30.7224 32.1369C30.6159 32.4678 30.5898 32.8194 30.6463 33.1625C30.7032 33.503 30.8399 33.8252 31.0452 34.1027C31.2505 34.3803 31.5186 34.6053 31.8275 34.7594L33.49 35.5906L31.3025 37.7781C31.0975 37.9815 30.9347 38.2234 30.8237 38.49C30.7126 38.7565 30.6555 39.0425 30.6555 39.3312C30.6555 39.62 30.7126 39.9059 30.8237 40.1725C30.9347 40.4391 31.0975 40.681 31.3025 40.8844C31.5059 41.0894 31.7478 41.2521 32.0144 41.3632C32.2809 41.4742 32.5669 41.5314 32.8556 41.5314C33.1444 41.5314 33.4303 41.4742 33.6969 41.3632C33.9635 41.2521 34.2054 41.0894 34.4088 40.8844L38.7838 36.5094C39.0298 36.2637 39.2136 35.9628 39.3201 35.6319C39.4267 35.3009 39.4528 34.9493 39.3963 34.6062C39.3393 34.2657 39.2026 33.9435 38.9973 33.666C38.792 33.3885 38.5239 33.1634 38.215 33.0094L36.5525 32.1781L38.74 29.9906C38.945 29.7873 39.1078 29.5453 39.2188 29.2788C39.3299 29.0122 39.3871 28.7263 39.3871 28.4375C39.3871 28.1487 39.3299 27.8628 39.2188 27.5962C39.1078 27.3297 38.945 27.0877 38.74 26.8844Z" fill="white"></path>
</svg>
