<?xml version="1.0" encoding="UTF-8"?>
<svg xmlns="http://www.w3.org/2000/svg" width="56" height="70" viewBox="0 0 56 70" fill="none">
  <path d="M27.7108 44.685C35.9284 44.685 42.5897 37.84 42.5897 29.3956C42.5897 20.9517 35.9284 14.1064 27.7108 14.1064C19.4936 14.1064 12.832 20.9517 12.832 29.3956C12.832 37.84 19.4936 44.685 27.7108 44.685Z" stroke="white" stroke-width="4" stroke-miterlimit="10" stroke-linecap="round" stroke-linejoin="round"></path>
  <path d="M30.6867 4.80301C32.4311 1.62201 37.1513 2.92177 37.0829 6.58164C37.0487 9.3522 39.9561 11.0624 42.2478 9.66003C45.292 7.77879 48.7808 11.336 46.9338 14.4829C45.5656 16.843 47.2416 19.8529 49.9095 19.7845C53.4668 19.7161 54.7324 24.5731 51.6198 26.3518C49.2597 27.6856 49.2597 31.1402 51.6198 32.4742C54.7324 34.2528 53.4668 39.1102 49.9095 39.0418C47.2416 39.0076 45.5314 41.983 46.9338 44.3431C48.7466 47.4899 45.292 51.0475 42.2478 49.1663C39.9561 47.7639 37.0145 49.4738 37.0829 52.2443C37.1513 55.9042 32.3969 57.2043 30.6867 54.0233C29.3869 51.629 26.0007 51.629 24.7009 54.0233C22.9565 57.2043 18.2363 55.9042 18.3047 52.2443C18.3389 49.4738 15.4315 47.7639 13.1398 49.1663C10.0956 51.0475 6.60676 47.4899 8.4538 44.3431C9.82197 41.983 8.14596 38.9734 5.47802 39.0418C1.92076 39.1102 0.655201 34.2528 3.7678 32.4742C6.1279 31.1402 6.1279 27.6856 3.7678 26.3518C0.655201 24.5731 1.92076 19.7161 5.47802 19.7845C8.14596 19.8187 9.85618 16.843 8.4538 14.4829C6.64097 11.336 10.0956 7.77879 13.1398 9.66003C15.4315 11.0624 18.3731 9.3522 18.3047 6.58164C18.2363 2.92177 22.9907 1.62201 24.7009 4.80301C26.0349 7.19732 29.3869 7.19732 30.6867 4.80301Z" stroke="white" stroke-width="4" stroke-miterlimit="10" stroke-linecap="round" stroke-linejoin="round"></path>
  <path d="M6.70909 55.4248L4.89626 58.6746C4.00695 60.248 5.71713 61.9924 7.32474 61.1031L13.1737 57.8537C14.3709 57.238 15.8075 58.0589 15.8417 59.4271L15.9785 66.2337C16.0811 68.0808 18.4754 68.6622 19.399 67.0888L21.8275 62.7107" stroke="white" stroke-width="4" stroke-miterlimit="10" stroke-linecap="round" stroke-linejoin="round"></path>
  <path d="M48.7111 55.459L50.5239 58.6745C51.4132 60.2479 49.703 61.9924 48.0612 61.1031L42.2465 57.8536C41.0493 57.238 39.6127 58.0589 39.5785 59.427L39.4417 66.2337C39.3391 68.0807 36.9448 68.6622 36.0213 67.0888L33.627 62.7107" stroke="white" stroke-width="4" stroke-miterlimit="10" stroke-linecap="round" stroke-linejoin="round"></path>
</svg>
