<?xml version="1.0" encoding="UTF-8"?>
<svg xmlns="http://www.w3.org/2000/svg" width="53" height="58" viewBox="0 0 53 58" fill="none">
  <path d="M7 27H22V31H7V27Z" fill="white"></path>
  <path d="M4.76837 19.3728H43.2001V31.2345H48V4.79015C48 2.14923 45.8672 0 43.2448 0H41.4492C39.533 0 37.8365 1.10567 37.1258 2.81474C36.7511 3.71422 35.2988 3.7162 34.9241 2.81474C34.2114 1.10435 32.5149 0 30.6 0H29.4082C27.4919 0 25.7955 1.10567 25.0848 2.81474C24.7101 3.71422 23.2578 3.7162 22.8831 2.81474C22.1704 1.10435 20.4739 0 18.559 0H17.4151C15.4988 0 13.8024 1.10567 13.0917 2.81474C12.717 3.71422 11.2647 3.7162 10.8899 2.81474C10.1772 1.10435 8.48082 0 6.56586 0H4.75656C2.13415 0 0 2.14923 0 4.79015V58H28.7303V53.1662H4.79659L4.76837 19.3728ZM6.46217 4.68309C7.39865 6.93475 9.56758 8.39004 11.9898 8.39004C14.4108 8.39004 16.5804 6.93608 17.4145 4.83443L18.4553 4.68309C19.3918 6.93475 21.5607 8.39004 23.9829 8.39004C26.4039 8.39004 28.5735 6.93608 29.4076 4.83443L30.4963 4.68309C31.4328 6.93475 33.6017 8.39004 36.024 8.39004C38.4449 8.39004 40.6145 6.93608 41.4486 4.83443L43.1995 4.79082V14.539H4.76377L4.7559 4.83443L6.46217 4.68309Z" fill="white"></path>
  <path d="M53 54.5911L49.227 50.8876C50.4088 49.1607 51.1011 47.0839 51.1011 44.8469C51.1011 38.8563 46.1536 34 40.0505 34C33.9475 34 29 38.8563 29 44.8469C29 50.8375 33.9475 55.6938 40.0505 55.6938C42.0918 55.6938 43.98 55.1125 45.6211 54.1653L49.5278 58L53 54.5911ZM33.9112 44.8469C33.9112 41.5243 36.6656 38.8207 40.0505 38.8207C43.4361 38.8207 46.1899 41.5243 46.1899 44.8469C46.1899 48.1694 43.4361 50.8731 40.0505 50.8731C36.6656 50.8731 33.9112 48.1694 33.9112 44.8469Z" fill="white"></path>
</svg>
