<?xml version="1.0" encoding="UTF-8"?>
<svg xmlns="http://www.w3.org/2000/svg" width="48" height="56" viewBox="0 0 48 56" fill="none">
  <path d="M24 0L0 8V32C0 45.2562 10.7437 56 24 56C37.2562 56 48 45.2562 48 32V8L24 0ZM43.5 32C43.5 42.7687 34.7687 51.5 24 51.5C13.2312 51.5 4.5 42.7687 4.5 32V11.375L24 4.5L43.5 11.375V32Z" fill="white"></path>
  <path d="M15.6508 25.6938C15.4423 25.4843 15.1944 25.318 14.9214 25.2046C14.6485 25.0912 14.3558 25.0328 14.0602 25.0328C13.7646 25.0328 13.4719 25.0912 13.199 25.2046C12.926 25.318 12.6781 25.4843 12.4696 25.6938C12.2601 25.9023 12.0938 26.1502 11.9804 26.4231C11.867 26.6961 11.8086 26.9888 11.8086 27.2844C11.8086 27.58 11.867 27.8727 11.9804 28.1456C12.0938 28.4186 12.2601 28.6665 12.4696 28.875L20.5571 36.9625L20.6883 37.0938C20.8856 37.2914 21.1199 37.4482 21.3778 37.5552C21.6357 37.6621 21.9122 37.7172 22.1914 37.7172C22.4707 37.7172 22.7472 37.6621 23.0051 37.5552C23.263 37.4482 23.4973 37.2914 23.6946 37.0938L37.6633 23.125C37.861 22.9277 38.0177 22.6934 38.1247 22.4355C38.2317 22.1776 38.2868 21.9011 38.2868 21.6219C38.2868 21.3426 38.2317 21.0662 38.1247 20.8082C38.0177 20.5503 37.861 20.316 37.6633 20.1188L37.4883 19.9438C37.2911 19.7461 37.0568 19.5893 36.7988 19.4824C36.5409 19.3754 36.2644 19.3203 35.9852 19.3203C35.706 19.3203 35.4295 19.3754 35.1716 19.4824C34.9136 19.5893 34.6793 19.7461 34.4821 19.9438L22.1883 32.2313L15.6508 25.6938Z" fill="white"></path>
</svg>
