<?xml version="1.0" encoding="UTF-8"?>
<svg xmlns="http://www.w3.org/2000/svg" width="70" height="70" viewBox="0 0 70 70" fill="none">
  <path d="M63.4375 21.8748H56.6781C54.4724 21.8557 52.2983 21.3477 50.3125 20.3873L49.6562 20.0592C48.4155 19.4514 47.023 19.2231 45.6531 19.403L36.1375 20.6936C35.8163 20.7422 35.5099 20.8618 35.2406 21.0436L24.3031 16.2311C23.148 15.812 21.9212 15.6262 20.6938 15.6842C18.9332 15.7844 17.2326 16.3589 15.7719 17.3467C14.3759 18.368 12.8249 19.1582 11.1781 19.6873C9.68588 20.1721 8.13108 20.4374 6.5625 20.4748C5.98234 20.4748 5.42594 20.7053 5.0157 21.1155C4.60547 21.5258 4.375 22.0822 4.375 22.6623V45.9373C4.375 46.5175 4.60547 47.0739 5.0157 47.4841C5.42594 47.8944 5.98234 48.1248 6.5625 48.1248H26.25L34.3438 54.6873C35.9292 56.0221 37.9369 56.7508 40.0094 56.7436C41.6365 56.74 43.232 56.2939 44.625 55.4529L50.1375 52.1061C52.178 50.9055 54.5077 50.2853 56.875 50.3123H63.4375C64.0177 50.3123 64.5741 50.0819 64.9843 49.6716C65.3945 49.2614 65.625 48.705 65.625 48.1248V24.0623C65.625 23.4822 65.3945 22.9258 64.9843 22.5155C64.5741 22.1053 64.0177 21.8748 63.4375 21.8748ZM8.75 24.6967C10.0433 24.5248 11.3177 24.2318 12.5562 23.8217C14.5824 23.1572 16.4936 22.1832 18.2219 20.9342C18.8569 20.5075 19.5789 20.2272 20.3355 20.1137C21.0922 20.0002 21.8646 20.0563 22.5969 20.278L41.8906 28.8092L42.3063 28.9405C42.577 28.9937 42.8175 29.1472 42.9798 29.3703C43.1421 29.5935 43.214 29.8696 43.1812 30.1436C43.1046 30.3816 42.9516 30.5878 42.746 30.7301C42.5404 30.8725 42.2936 30.9431 42.0437 30.9311H41.825C39.4365 31.0376 37.0436 30.8688 34.6937 30.428C32.4439 29.9906 30.2449 29.3235 28.1312 28.4373C27.5975 28.2115 26.9959 28.2068 26.4586 28.4242C25.9213 28.6415 25.4922 29.0632 25.2656 29.5967C25.2656 29.5967 25.2656 29.7061 25.2656 29.7498L21.5687 40.6873C21.5585 40.8184 21.5585 40.95 21.5687 41.0811C21.413 41.9816 21.5193 42.908 21.875 43.7498H8.75V24.6967ZM61.25 45.9373H56.875C53.7185 45.9398 50.6234 46.8101 47.9281 48.453L42.3937 51.7998C41.5925 52.2828 40.6607 52.5043 39.7278 52.4338C38.7949 52.3632 37.907 52.004 37.1875 51.4061L25.9 42.0217C25.8222 41.9621 25.7679 41.8768 25.7469 41.7811L28.6562 33.2498C30.3829 33.8608 32.1523 34.3433 33.95 34.6936C36.5873 35.1969 39.2737 35.3951 41.9562 35.2842C43.2984 35.3723 44.6246 34.9526 45.6716 34.1083C46.7186 33.264 47.4099 32.0568 47.6082 30.7265C47.8065 29.3962 47.4974 28.0399 46.7421 26.927C45.9869 25.814 44.8407 25.0257 43.5312 24.7186L42.4813 24.2592L46.2 23.7561C46.7088 23.6795 47.2288 23.7636 47.6875 23.9967L48.3438 24.303C50.9534 25.577 53.8179 26.2426 56.7219 26.2498H61.25V45.9373Z" fill="white"></path>
</svg>
