<?xml version="1.0" encoding="UTF-8"?>
<svg xmlns="http://www.w3.org/2000/svg" width="70" height="70" viewBox="0 0 70 70" fill="none">
  <path d="M63.4375 10.9375V8.55313C63.4318 7.44679 62.9897 6.3874 62.2074 5.60509C61.4251 4.82279 60.3657 4.38075 59.2594 4.375H50.1156C49.0093 4.38075 47.9499 4.82279 47.1676 5.60509C46.3853 6.3874 45.9432 7.44679 45.9375 8.55313V10.9375C45.3573 10.9375 44.8009 11.168 44.3907 11.5782C43.9805 11.9884 43.75 12.5448 43.75 13.125V21.875C43.75 23.6155 44.4414 25.2847 45.6721 26.5154C46.9028 27.7461 48.572 28.4375 50.3125 28.4375H52.5V53.5938C52.5 55.6243 51.6934 57.5717 50.2575 59.0075C48.8217 60.4434 46.8743 61.25 44.8438 61.25C42.8132 61.25 40.8658 60.4434 39.43 59.0075C37.9941 57.5717 37.1875 55.6243 37.1875 53.5938V16.4062C37.1875 13.2154 35.9199 10.1552 33.6636 7.89887C31.4073 5.64257 28.3471 4.375 25.1562 4.375C21.9654 4.375 18.9052 5.64257 16.6489 7.89887C14.3926 10.1552 13.125 13.2154 13.125 16.4062V41.5625H10.9375C9.19702 41.5625 7.52782 42.2539 6.29711 43.4846C5.0664 44.7153 4.375 46.3845 4.375 48.125V56.875C4.375 57.4552 4.60547 58.0116 5.0157 58.4218C5.42594 58.832 5.98234 59.0625 6.5625 59.0625V61.4469C6.56825 62.5532 7.01029 63.6126 7.79259 64.3949C8.5749 65.1772 9.63429 65.6193 10.7406 65.625H19.8844C20.9907 65.6193 22.0501 65.1772 22.8324 64.3949C23.6147 63.6126 24.0568 62.5532 24.0625 61.4469V59.0625C24.6427 59.0625 25.1991 58.832 25.6093 58.4218C26.0195 58.0116 26.25 57.4552 26.25 56.875V48.125C26.25 46.3845 25.5586 44.7153 24.3279 43.4846C23.0972 42.2539 21.428 41.5625 19.6875 41.5625H17.5V16.4062C17.5 14.3757 18.3066 12.4283 19.7425 10.9925C21.1783 9.55664 23.1257 8.75 25.1562 8.75C27.1868 8.75 29.1342 9.55664 30.57 10.9925C32.0059 12.4283 32.8125 14.3757 32.8125 16.4062V53.5938C32.8125 56.7846 34.0801 59.8448 36.3364 62.1011C38.5927 64.3574 41.6529 65.625 44.8438 65.625C48.0346 65.625 51.0948 64.3574 53.3511 62.1011C55.6074 59.8448 56.875 56.7846 56.875 53.5938V28.4375H59.0625C60.803 28.4375 62.4722 27.7461 63.7029 26.5154C64.9336 25.2847 65.625 23.6155 65.625 21.875V13.125C65.625 12.5448 65.3945 11.9884 64.9843 11.5782C64.5741 11.168 64.0177 10.9375 63.4375 10.9375ZM19.6875 61.25H10.9375V59.0625H19.6875V61.25ZM21.875 48.125V54.6875H8.75V48.125C8.75 47.5448 8.98047 46.9884 9.3907 46.5782C9.80094 46.168 10.3573 45.9375 10.9375 45.9375H19.6875C20.2677 45.9375 20.8241 46.168 21.2343 46.5782C21.6445 46.9884 21.875 47.5448 21.875 48.125ZM50.3125 8.75H59.0625V10.9375H50.3125V8.75ZM61.25 21.875C61.25 22.4552 61.0195 23.0116 60.6093 23.4218C60.1991 23.832 59.6427 24.0625 59.0625 24.0625H50.3125C49.7323 24.0625 49.1759 23.832 48.7657 23.4218C48.3555 23.0116 48.125 22.4552 48.125 21.875V15.3125H61.25V21.875Z" fill="white"></path>
</svg>
