<svg xmlns="http://www.w3.org/2000/svg" xmlns:xlink="http://www.w3.org/1999/xlink" xmlns:svgjs="http://svgjs.dev/svgjs" id="Capa_1" x="0px" y="0px" viewBox="0 0 512 512" style="enable-background:new 0 0 512 512;" xml:space="preserve" width="300" height="300">  <g width="100%" height="100%" transform="matrix(1,0,0,1,0,0)">    <g>	<g>					<line style="stroke-linecap: round; stroke-linejoin: round; stroke-miterlimit: 10;" x1="322.673" y1="151.5" x2="322.673" y2="97" fill="none" fill-opacity="1" stroke="#ffc107" stroke-opacity="1" data-original-stroke-color="#000000ff" stroke-width="15" data-original-stroke-width="15"></line>		<path style="stroke-linecap: round; stroke-linejoin: round; stroke-miterlimit: 10;" d="&#10;&#9;&#9;&#9;M129.673,151.5v-114c0-16.57,13.43-30,30-30h133c16.57,0,30,13.43,30,30V62" fill="none" fill-opacity="1" stroke="#ffc107" stroke-opacity="1" data-original-stroke-color="#000000ff" stroke-width="15" data-original-stroke-width="15"></path>		<path style="stroke-linecap: round; stroke-linejoin: round; stroke-miterlimit: 10;" d="&#10;&#9;&#9;&#9;M190.489,152.5h132.183c8.284,0,15,6.716,15,15v60.746" fill="none" fill-opacity="1" stroke="#ffc107" stroke-opacity="1" data-original-stroke-color="#000000ff" stroke-width="15" data-original-stroke-width="15"></path>		<path style="stroke-linecap: round; stroke-linejoin: round; stroke-miterlimit: 10;" d="&#10;&#9;&#9;&#9;M311.237,312.252c-0.926,0.628-1.873,1.233-2.839,1.813l0,0c-15.96,9.576-25.725,26.823-25.725,45.435v0h-113v0&#10;&#9;&#9;&#9;c0-18.612-9.765-35.859-25.725-45.435l0,0c-18.162-10.897-29.275-30.525-29.275-51.706V167.5c0-8.284,6.716-15,15-15h25.817" fill="none" fill-opacity="1" stroke="#ffc107" stroke-opacity="1" data-original-stroke-color="#000000ff" stroke-width="15" data-original-stroke-width="15"></path>		<path style="stroke-linecap: round; stroke-linejoin: round; stroke-miterlimit: 10;" d="&#10;&#9;&#9;&#9;M261.673,469.5h-71v15c0,11.046,8.954,20,20,20h31c11.046,0,20-8.954,20-20V469.5z" fill="none" fill-opacity="1" stroke="#ffc107" stroke-opacity="1" data-original-stroke-color="#000000ff" stroke-width="15" data-original-stroke-width="15"></path>					<polyline style="stroke-linecap: round; stroke-linejoin: round; stroke-miterlimit: 10;" points="&#10;&#9;&#9;&#9;261.856,469.014 271.673,443 271.673,391.5 &#9;&#9;" fill="none" fill-opacity="1" stroke="#ffc107" stroke-opacity="1" data-original-stroke-color="#000000ff" stroke-width="15" data-original-stroke-width="15"></polyline>					<polyline style="stroke-linecap: round; stroke-linejoin: round; stroke-miterlimit: 10;" points="&#10;&#9;&#9;&#9;180.673,391.5 180.673,443 190.489,469.014 &#9;&#9;" fill="none" fill-opacity="1" stroke="#ffc107" stroke-opacity="1" data-original-stroke-color="#000000ff" stroke-width="15" data-original-stroke-width="15"></polyline>					<line style="stroke-linecap: round; stroke-linejoin: round; stroke-miterlimit: 10;" x1="169.173" y1="416.833" x2="283.173" y2="416.833" fill="none" fill-opacity="1" stroke="#ffc107" stroke-opacity="1" data-original-stroke-color="#000000ff" stroke-width="15" data-original-stroke-width="15"></line>					<line style="stroke-linecap: round; stroke-linejoin: round; stroke-miterlimit: 10;" x1="283.173" y1="443.167" x2="169.173" y2="443.167" fill="none" fill-opacity="1" stroke="#ffc107" stroke-opacity="1" data-original-stroke-color="#000000ff" stroke-width="15" data-original-stroke-width="15"></line>		<path style="stroke-linecap: round; stroke-linejoin: round; stroke-miterlimit: 10;" d="&#10;&#9;&#9;&#9;M213.926,390.5h-37.254c-3.866,0-7-3.134-7-7v-24" fill="none" fill-opacity="1" stroke="#ffc107" stroke-opacity="1" data-original-stroke-color="#000000ff" stroke-width="15" data-original-stroke-width="15"></path>		<path style="stroke-linecap: round; stroke-linejoin: round; stroke-miterlimit: 10;" d="&#10;&#9;&#9;&#9;M282.673,359.5v24c0,3.866-3.134,7-7,7h-26.746" fill="none" fill-opacity="1" stroke="#ffc107" stroke-opacity="1" data-original-stroke-color="#000000ff" stroke-width="15" data-original-stroke-width="15"></path>		<g>			<g>				<path style="stroke-linecap: round; stroke-linejoin: round; stroke-miterlimit: 10;" d="&#10;&#9;&#9;&#9;&#9;&#9;M186.173,243.139c10.238-10.229,24.379-16.564,40-16.564s29.762,6.335,40,16.564" fill="none" fill-opacity="1" stroke="#ffc107" stroke-opacity="1" data-original-stroke-color="#000000ff" stroke-width="15" data-original-stroke-width="15"></path>				<path style="stroke-linecap: round; stroke-linejoin: round; stroke-miterlimit: 10;" d="&#10;&#9;&#9;&#9;&#9;&#9;M206.187,264.296c5.119-5.128,12.19-8.296,19.986-8.296c7.796,0,14.867,3.168,19.986,8.296" fill="none" fill-opacity="1" stroke="#ffc107" stroke-opacity="1" data-original-stroke-color="#000000ff" stroke-width="15" data-original-stroke-width="15"></path>									<rect x="226.173" y="285.425" style="stroke-linecap: round; stroke-linejoin: round; stroke-miterlimit: 10;" width="0" height="0" fill="none" fill-opacity="1" stroke="#ffc107" stroke-opacity="1" data-original-stroke-color="#000000ff" stroke-width="15" data-original-stroke-width="15"></rect>			</g>							<line style="stroke-linecap: round; stroke-linejoin: round; stroke-miterlimit: 10;" x1="264.883" y1="195.903" x2="187.462" y2="195.903" fill="none" fill-opacity="1" stroke="#ffc107" stroke-opacity="1" data-original-stroke-color="#000000ff" stroke-width="15" data-original-stroke-width="15"></line>							<line style="stroke-linecap: round; stroke-linejoin: round; stroke-miterlimit: 10;" x1="244.883" y1="316.097" x2="207.462" y2="316.097" fill="none" fill-opacity="1" stroke="#ffc107" stroke-opacity="1" data-original-stroke-color="#000000ff" stroke-width="15" data-original-stroke-width="15"></line>		</g>		<g>			<g>									<line style="stroke-linecap: round; stroke-linejoin: round; stroke-miterlimit: 10;" x1="359.173" y1="80" x2="415.018" y2="80" fill="none" fill-opacity="1" stroke="#ffc107" stroke-opacity="1" data-original-stroke-color="#000000ff" stroke-width="15" data-original-stroke-width="15"></line>									<line style="stroke-linecap: round; stroke-linejoin: round; stroke-miterlimit: 10;" x1="392.093" y1="130.89" x2="359.173" y2="118.91" fill="none" fill-opacity="1" stroke="#ffc107" stroke-opacity="1" data-original-stroke-color="#000000ff" stroke-width="15" data-original-stroke-width="15"></line>									<line style="stroke-linecap: round; stroke-linejoin: round; stroke-miterlimit: 10;" x1="392.093" y1="29.11" x2="359.173" y2="41.09" fill="none" fill-opacity="1" stroke="#ffc107" stroke-opacity="1" data-original-stroke-color="#000000ff" stroke-width="15" data-original-stroke-width="15"></line>			</g>			<g>									<line style="stroke-linecap: round; stroke-linejoin: round; stroke-miterlimit: 10;" x1="93.173" y1="80" x2="37.327" y2="80" fill="none" fill-opacity="1" stroke="#ffc107" stroke-opacity="1" data-original-stroke-color="#000000ff" stroke-width="15" data-original-stroke-width="15"></line>									<line style="stroke-linecap: round; stroke-linejoin: round; stroke-miterlimit: 10;" x1="93.173" y1="118.91" x2="60.253" y2="130.89" fill="none" fill-opacity="1" stroke="#ffc107" stroke-opacity="1" data-original-stroke-color="#000000ff" stroke-width="15" data-original-stroke-width="15"></line>									<line style="stroke-linecap: round; stroke-linejoin: round; stroke-miterlimit: 10;" x1="93.173" y1="41.09" x2="60.253" y2="29.11" fill="none" fill-opacity="1" stroke="#ffc107" stroke-opacity="1" data-original-stroke-color="#000000ff" stroke-width="15" data-original-stroke-width="15"></line>			</g>		</g>	</g>	<g>		<path style="stroke-linecap: round; stroke-linejoin: round; stroke-miterlimit: 10;" d="&#10;&#9;&#9;&#9;M312.673,254.296V249.5c0-11.046,8.954-20,20-20h122c11.046,0,20,8.954,20,20v235c0,11.046-8.954,20-20,20h-122&#10;&#9;&#9;&#9;c-11.046,0-20-8.954-20-20V289.296" fill="none" fill-opacity="1" stroke="#ffc107" stroke-opacity="1" data-original-stroke-color="#000000ff" stroke-width="15" data-original-stroke-width="15"></path>					<line style="stroke-linecap: round; stroke-linejoin: round; stroke-miterlimit: 10;" x1="415.673" y1="259.5" x2="371.673" y2="259.5" fill="none" fill-opacity="1" stroke="#ffc107" stroke-opacity="1" data-original-stroke-color="#000000ff" stroke-width="15" data-original-stroke-width="15"></line>					<line style="stroke-linecap: round; stroke-linejoin: round; stroke-miterlimit: 10;" x1="437.176" y1="461.325" x2="350.169" y2="461.325" fill="none" fill-opacity="1" stroke="#ffc107" stroke-opacity="1" data-original-stroke-color="#000000ff" stroke-width="15" data-original-stroke-width="15"></line>					<line style="stroke-linecap: round; stroke-linejoin: round; stroke-miterlimit: 10;" x1="437.176" y1="418.913" x2="350.169" y2="418.913" fill="none" fill-opacity="1" stroke="#ffc107" stroke-opacity="1" data-original-stroke-color="#000000ff" stroke-width="15" data-original-stroke-width="15"></line>		<path style="stroke-linecap: round; stroke-linejoin: round; stroke-miterlimit: 10;" d="&#10;&#9;&#9;&#9;M435.994,314.411c3.311,6.477,5.178,13.815,5.178,21.589c0,26.234-21.266,47.5-47.5,47.5c-26.234,0-47.5-21.266-47.5-47.5&#10;&#9;&#9;&#9;s21.266-47.5,47.5-47.5c5.81,0,11.377,1.043,16.523,2.953" fill="none" fill-opacity="1" stroke="#ffc107" stroke-opacity="1" data-original-stroke-color="#000000ff" stroke-width="15" data-original-stroke-width="15"></path>					<line style="stroke-linecap: round; stroke-linejoin: round; stroke-miterlimit: 10;" x1="375.633" y1="429.992" x2="375.633" y2="407.833" fill="none" fill-opacity="1" stroke="#ffc107" stroke-opacity="1" data-original-stroke-color="#000000ff" stroke-width="15" data-original-stroke-width="15"></line>					<line style="stroke-linecap: round; stroke-linejoin: round; stroke-miterlimit: 10;" x1="408.682" y1="472.405" x2="408.682" y2="450.246" fill="none" fill-opacity="1" stroke="#ffc107" stroke-opacity="1" data-original-stroke-color="#000000ff" stroke-width="15" data-original-stroke-width="15"></line>					<circle style="stroke-linecap: round; stroke-linejoin: round; stroke-miterlimit: 10;" cx="425.597" cy="300.828" r="15.403" fill="none" fill-opacity="1" stroke="#ffc107" stroke-opacity="1" data-original-stroke-color="#000000ff" stroke-width="15" data-original-stroke-width="15"></circle>	</g></g>  </g></svg>