<svg xmlns="http://www.w3.org/2000/svg" xmlns:xlink="http://www.w3.org/1999/xlink" xmlns:svgjs="http://svgjs.dev/svgjs" id="Layer_1" viewBox="0 0 512 512" data-name="Layer 1" width="300" height="300"><g width="100%" height="100%" transform="matrix(1,0,0,1,0,0)"><path d="m101.058 480.829v15.166c0 3.867-3.135 7.002-7.001 7.002s-7.001-3.135-7.001-7.002v-15.166c0-3.867 3.135-7.002 7.001-7.002s7.001 3.135 7.001 7.002zm-40.967-16.094c-3.345-1.937-7.629-.795-9.567 2.552l-7.597 13.124c-1.937 3.347-.795 7.63 2.552 9.567 1.104.64 2.311.943 3.501.943 2.417 0 4.768-1.253 6.066-3.495l7.597-13.124c1.937-3.347.795-7.63-2.552-9.567zm77.505 2.562c-1.932-3.351-6.215-4.5-9.563-2.567-3.35 1.932-4.5 6.214-2.568 9.563l7.568 13.124c1.296 2.248 3.651 3.505 6.072 3.505 1.187 0 2.39-.302 3.491-.938 3.35-1.932 4.5-6.214 2.568-9.563zm-43.54-20.795c22.398 0 40.621-18.222 40.621-40.621 0-3.867-3.135-7.001-7.001-7.001s-7.001 3.135-7.001 7.001c0 14.677-11.941 26.618-26.618 26.618-3.867 0-7.001 3.135-7.001 7.001s3.135 7.001 7.001 7.001zm323.887 27.325c-3.867 0-7.001 3.135-7.001 7.002v15.166c0 3.867 3.135 7.002 7.001 7.002s7.001-3.135 7.001-7.002v-15.166c0-3.867-3.135-7.002-7.001-7.002zm-33.967-9.092c-3.344-1.937-7.628-.795-9.567 2.552l-7.597 13.124c-1.937 3.347-.794 7.63 2.552 9.567 1.104.64 2.31.943 3.501.943 2.417 0 4.768-1.253 6.066-3.495l7.597-13.124c1.937-3.347.794-7.63-2.552-9.567zm77.5 2.552c-1.938-3.347-6.222-4.491-9.567-2.552-3.347 1.938-4.489 6.221-2.552 9.567l7.597 13.124c1.298 2.242 3.649 3.495 6.066 3.495 1.19 0 2.397-.304 3.501-.943 3.347-1.938 4.489-6.221 2.552-9.567zm-43.534-20.785c22.414 0 40.649-18.222 40.649-40.621 0-3.867-3.135-7.001-7.001-7.001s-7.001 3.135-7.001 7.001c0 14.677-11.954 26.618-26.646 26.618-3.867 0-7.001 3.135-7.001 7.001s3.135 7.001 7.001 7.001zm-161.943 27.325c-3.867 0-7.001 3.135-7.001 7.002v15.166c0 3.867 3.135 7.002 7.001 7.002s7.001-3.135 7.001-7.002v-15.166c0-3.867-3.135-7.002-7.001-7.002zm-33.967-9.092c-3.344-1.937-7.629-.795-9.567 2.552l-7.597 13.124c-1.937 3.347-.794 7.63 2.552 9.567 1.104.64 2.31.943 3.501.943 2.417 0 4.768-1.253 6.066-3.495l7.597-13.124c1.937-3.347.794-7.63-2.552-9.567zm77.5 2.552c-1.938-3.347-6.222-4.491-9.567-2.552-3.347 1.938-4.489 6.221-2.552 9.567l7.597 13.124c1.298 2.242 3.649 3.495 6.066 3.495 1.19 0 2.397-.304 3.501-.943 3.347-1.938 4.489-6.221 2.552-9.567zm-43.534-20.785c22.398 0 40.621-18.222 40.621-40.621 0-3.867-3.135-7.001-7.001-7.001s-7.001 3.135-7.001 7.001c0 14.677-11.941 26.618-26.618 26.618-3.867 0-7.001 3.135-7.001 7.001s3.135 7.001 7.001 7.001zm247.011-267.081v41.216c0 3.867-3.135 7.001-7.001 7.001h-71.065v57.43h28.517c3.867 0 7.001 3.135 7.001 7.001v36.822c0 3.867-3.135 7.001-7.001 7.001h-1.122c2.319 4.581 5.616 8.926 9.229 13.68 9.446 12.432 21.203 27.903 21.203 56.307 0 35.747-29.082 64.829-64.828 64.829s-64.828-29.082-64.828-64.829c0-28.404 11.756-43.876 21.203-56.308 3.613-4.755 6.91-9.099 9.229-13.68h-1.122c-3.867 0-7.001-3.135-7.001-7.001v-36.822c0-3.867 3.135-7.001 7.001-7.001h28.517v-57.43h-147.94v57.43h28.517c3.867 0 7.001 3.135 7.001 7.001v36.822c0 3.867-3.135 7.001-7.001 7.001h-1.122c2.319 4.581 5.616 8.926 9.229 13.68 9.446 12.432 21.203 27.903 21.203 56.307 0 35.747-29.082 64.829-64.829 64.829s-64.828-29.082-64.828-64.829c0-28.404 11.756-43.876 21.203-56.308 3.613-4.755 6.91-9.099 9.229-13.68h-1.15c-3.867 0-7.001-3.135-7.001-7.001v-36.822c0-3.867 3.135-7.001 7.001-7.001h28.545v-57.43h-147.94v57.43h28.517c3.867 0 7.001 3.135 7.001 7.001v36.822c0 3.867-3.135 7.001-7.001 7.001h-1.123c2.318 4.581 5.612 8.925 9.221 13.68 9.438 12.432 21.184 27.903 21.184 56.307 0 35.747-29.069 64.829-64.8 64.829s-64.828-29.082-64.828-64.829c0-28.415 11.756-43.889 21.202-56.322 3.608-4.749 6.901-9.089 9.222-13.665h-1.142c-3.867 0-7.001-3.135-7.001-7.001v-36.822c0-3.867 3.135-7.001 7.001-7.001h28.545v-57.43h-71.066c-3.867 0-7.001-3.135-7.001-7.001v-41.216c0-3.867 3.135-7.001 7.001-7.001h69.591v-12.161c0-10.894 8.875-19.757 19.786-19.757h16.168c2.868-9.93 6.855-19.527 11.9-28.645l-11.476-11.475c-7.7-7.7-7.7-20.23 0-27.93l27.072-27.071c7.707-7.708 20.249-7.708 27.958 0l11.454 11.454c9.129-5.033 18.733-9.013 28.667-11.879v-16.195c0-10.895 8.863-19.757 19.757-19.757h38.268c10.895 0 19.758 8.863 19.758 19.757v16.195c9.934 2.866 19.538 6.846 28.666 11.879l11.454-11.454c7.708-7.709 20.25-7.709 27.958 0l27.045 27.073c7.697 7.698 7.697 20.228-.002 27.928l-11.451 11.472c5.018 9.077 9.003 18.676 11.895 28.648h16.177c10.894 0 19.757 8.863 19.757 19.757v12.161h69.619c3.867 0 7.001 3.135 7.001 7.001zm-389.718 156.473h-38.474c-2.889 8.503-8.131 15.416-13.237 22.136-9.021 11.874-18.349 24.152-18.349 47.851 0 28.025 22.8 50.825 50.825 50.825s50.797-22.8 50.797-50.825c0-23.69-9.321-35.967-18.334-47.84-5.104-6.724-10.346-13.639-13.229-22.147zm9.282-36.822h-57.062v22.819h53.226.052 3.783v-22.819zm152.662 36.822h-38.469c-2.885 8.51-8.132 15.427-13.242 22.152-9.021 11.872-18.349 24.148-18.349 47.835 0 28.025 22.8 50.825 50.825 50.825s50.826-22.8 50.826-50.825c0-23.687-9.328-35.963-18.35-47.835-5.11-6.725-10.357-13.642-13.241-22.152zm9.282-36.822h-57.062v22.819h3.81.058 49.358.053 3.783zm152.662 36.822h-38.469c-2.885 8.51-8.132 15.427-13.242 22.152-9.021 11.872-18.349 24.148-18.349 47.835 0 28.025 22.8 50.825 50.825 50.825s50.825-22.8 50.825-50.825c0-23.687-9.328-35.963-18.349-47.835-5.11-6.725-10.357-13.642-13.241-22.152zm9.281-36.822h-57.033v22.819h3.781.058 49.357.052 3.784v-22.819zm-346.876-126.652h68.963c3.578-45.13 41.433-80.759 87.452-80.759s83.875 35.629 87.453 80.759h68.935v-12.161c0-3.173-2.582-5.754-5.754-5.754h-21.543c-3.218 0-6.022-2.193-6.796-5.317-3.049-12.302-7.918-24.027-14.472-34.852-1.668-2.755-1.242-6.293 1.034-8.573l15.25-15.278c2.245-2.245 2.245-5.891.004-8.132l-27.045-27.073c-2.208-2.208-5.943-2.208-8.152.002l-15.25 15.25c-2.275 2.276-5.81 2.708-8.566 1.045-10.915-6.582-22.649-11.442-34.876-14.447-3.13-.769-5.331-3.576-5.331-6.799v-21.571c0-3.173-2.582-5.754-5.755-5.754h-38.268c-3.173 0-5.754 2.582-5.754 5.754v21.571c0 3.224-2.201 6.03-5.331 6.799-12.227 3.004-23.961 7.865-34.877 14.447-2.758 1.661-6.291 1.23-8.567-1.045l-15.25-15.25c-2.21-2.21-5.944-2.21-8.155 0l-27.071 27.071c-2.24 2.241-2.24 5.887 0 8.127l15.278 15.278c2.279 2.279 2.708 5.82 1.039 8.578-6.598 10.896-11.466 22.618-14.469 34.838-.769 3.13-3.576 5.331-6.799 5.331h-21.543c-3.134 0-5.783 2.635-5.783 5.754v12.161zm156.416-66.756c-38.293 0-69.85 29.359-73.388 66.756h146.776c-3.538-37.397-35.095-66.756-73.388-66.756zm233.008 80.759h-466.016v27.213h466.016z" fill="#ffc107" fill-opacity="1" data-original-color="#000000ff" stroke="none" stroke-opacity="1"></path></g></svg>