<?xml version="1.0" encoding="UTF-8"?>
<svg xmlns="http://www.w3.org/2000/svg" width="70" height="70" viewBox="0 0 70 70" fill="none">
  <path d="M59.0625 43.75H56.875V26.25C56.875 20.4484 54.5703 14.8844 50.468 10.782C46.3656 6.67968 40.8016 4.375 35 4.375C29.1984 4.375 23.6344 6.67968 19.532 10.782C15.4297 14.8844 13.125 20.4484 13.125 26.25V43.75H10.9375C10.3573 43.75 9.80094 43.9805 9.3907 44.3907C8.98047 44.8009 8.75 45.3573 8.75 45.9375C8.75 46.5177 8.98047 47.0741 9.3907 47.4843C9.80094 47.8945 10.3573 48.125 10.9375 48.125H21.875V63.4375C21.875 64.0177 22.1055 64.5741 22.5157 64.9843C22.9259 65.3945 23.4823 65.625 24.0625 65.625C24.6427 65.625 25.1991 65.3945 25.6093 64.9843C26.0195 64.5741 26.25 64.0177 26.25 63.4375V48.125H43.75V63.4375C43.75 64.0177 43.9805 64.5741 44.3907 64.9843C44.8009 65.3945 45.3573 65.625 45.9375 65.625C46.5177 65.625 47.0741 65.3945 47.4843 64.9843C47.8945 64.5741 48.125 64.0177 48.125 63.4375V48.125H59.0625C59.6427 48.125 60.1991 47.8945 60.6093 47.4843C61.0195 47.0741 61.25 46.5177 61.25 45.9375C61.25 45.3573 61.0195 44.8009 60.6093 44.3907C60.1991 43.9805 59.6427 43.75 59.0625 43.75ZM37.1875 43.75V33.7094L43.1156 27.8031C43.3196 27.5992 43.4814 27.357 43.5918 27.0905C43.7021 26.8241 43.7589 26.5384 43.7589 26.25C43.7589 25.9616 43.7021 25.6759 43.5918 25.4095C43.4814 25.143 43.3196 24.9008 43.1156 24.6969C42.9117 24.4929 42.6695 24.3311 42.403 24.2207C42.1366 24.1104 41.8509 24.0536 41.5625 24.0536C41.2741 24.0536 40.9884 24.1104 40.722 24.2207C40.4555 24.3311 40.2133 24.4929 40.0094 24.6969L35 29.7281L29.9906 24.6969C29.5787 24.285 29.02 24.0536 28.4375 24.0536C27.855 24.0536 27.2963 24.285 26.8844 24.6969C26.4725 25.1088 26.2411 25.6675 26.2411 26.25C26.2411 26.8325 26.4725 27.3912 26.8844 27.8031L32.8125 33.7094V43.75H17.5V26.25C17.5 21.6087 19.3437 17.1575 22.6256 13.8756C25.9075 10.5937 30.3587 8.75 35 8.75C39.6413 8.75 44.0925 10.5937 47.3744 13.8756C50.6563 17.1575 52.5 21.6087 52.5 26.25V43.75H37.1875Z" fill="white"></path>
</svg>
