<?xml version="1.0" encoding="UTF-8"?>
<svg xmlns="http://www.w3.org/2000/svg" width="57" height="54" viewBox="0 0 57 54" fill="none">
  <path d="M54.25 16.9167L30.9167 3.96667C29.3708 3.09167 27.5042 3.09167 25.9583 3.96667L21.875 6.24167V5.10417C21.875 2.30417 19.5708 0 16.7708 0H10.9375C8.1375 0 5.83333 2.30417 5.83333 5.10417V15.1667L2.625 16.9458C0.991667 17.85 0 19.5417 0 21.4083V48.8542C0 51.6542 2.30417 53.9583 5.10417 53.9583H16.7708C19.5708 53.9583 21.875 51.6542 21.875 48.8542V37.1875C21.875 36.7792 22.1958 36.4583 22.6042 36.4583H34.2708C34.6792 36.4583 35 36.7792 35 37.1875V48.8542C35 51.6542 37.3042 53.9583 40.1042 53.9583H51.7708C54.5708 53.9583 56.875 51.6542 56.875 48.8542V21.3792C56.875 19.5125 55.8833 17.8208 54.25 16.9167ZM52.5 48.825C52.5 49.2333 52.1792 49.5542 51.7708 49.5542H40.1042C39.6958 49.5542 39.375 49.2333 39.375 48.825V37.1583C39.375 34.3583 37.0708 32.0542 34.2708 32.0542H22.6042C19.8042 32.0542 17.5 34.3583 17.5 37.1583V48.825C17.5 49.2333 17.1792 49.5542 16.7708 49.5542H5.10417C4.69583 49.5542 4.375 49.2333 4.375 48.825V21.3792C4.375 21.1167 4.52083 20.8833 4.75417 20.7375L9.1 18.3167C9.8 17.9375 10.2375 17.2083 10.2375 16.3917V5.04583C10.2375 4.6375 10.5583 4.31667 10.9667 4.31667H16.8C17.2083 4.31667 17.5292 4.6375 17.5292 5.04583V9.91667C17.5292 10.7042 17.9375 11.4042 18.6083 11.8125C19.2792 12.1917 20.0958 12.2208 20.7958 11.8125L28.1458 7.72917C28.35 7.6125 28.6125 7.6125 28.8458 7.72917L52.1792 20.6792C52.4125 20.7958 52.5583 21.0583 52.5583 21.3208V48.7667L52.5 48.825Z" fill="white"></path>
</svg>
