<svg xmlns="http://www.w3.org/2000/svg" xmlns:svg="http://www.w3.org/2000/svg" id="svg291" width="682.66669" height="682.66669" viewBox="0 0 682.66669 682.66669"><defs id="defs295"><clipPath id="clipPath305"><path d="M 0,512 H 512 V 0 H 0 Z" id="path303"></path></clipPath></defs><mask id="custom"><rect id="bg" x="0" y="0" width="100%" height="100%" fill="white"></rect><g transform="matrix(1.3333333,0,0,-1.3333333,0,682.66667)"></g></mask><g mask="url(#custom)"><g id="g297" transform="matrix(1.3333333,0,0,-1.3333333,0,682.66667)"><g id="g299"><g id="g301" clip-path="url(#clipPath305)"><g id="g307" transform="translate(354.3077,7.5)"><path d="m 0,0 h -261.308 c -2.209,0 -4,1.791 -4,4 v 395.812" style="fill:none;stroke:#000000;stroke-width:15;stroke-linecap:round;stroke-linejoin:round;stroke-miterlimit:10;stroke-dasharray:none;stroke-opacity:1" id="path309"></path></g><g id="g311" transform="translate(89,442.2051)"><path d="m 0,0 v 58.295 c 0,2.209 1.791,4 4,4 h 326 c 2.209,0 4,-1.791 4,-4 v -489 c 0,-2.209 -1.791,-4 -4,-4 h -29.615" style="fill:none;stroke:#000000;stroke-width:15;stroke-linecap:round;stroke-linejoin:round;stroke-miterlimit:10;stroke-dasharray:none;stroke-opacity:1" id="path313"></path></g><g id="g315" transform="translate(328,422.3117)"><path d="m 0,0 v 0 c 0,-8.284 -6.716,-15 -15,-15 h -114 c -8.284,0 -15,6.716 -15,15 v 0 c 0,8.284 6.716,15 15,15 h 33.192 c 1.551,0 2.808,1.257 2.808,2.808 V 24 c 0,11.598 9.402,21 21,21 v 0 c 11.598,0 21,-9.402 21,-21 V 17.808 C -51,16.257 -49.743,15 -48.192,15 H -15 C -6.716,15 0,8.284 0,0 Z" style="fill:none;stroke:#000000;stroke-width:15;stroke-linecap:round;stroke-linejoin:round;stroke-miterlimit:10;stroke-dasharray:none;stroke-opacity:1" id="path317"></path></g><g id="g319" transform="translate(168.566,286.5)"><path d="m 0,0 v 0 c -8.284,0 -15,6.716 -15,15 v 18 c 0,8.284 6.716,15 15,15 v 0 C 8.284,48 15,41.284 15,33 V 15 C 15,6.716 8.284,0 0,0 Z" style="fill:none;stroke:#000000;stroke-width:15;stroke-linecap:round;stroke-linejoin:round;stroke-miterlimit:10;stroke-dasharray:none;stroke-opacity:1" id="path321"></path></g><g id="g323" transform="translate(168.566,286.5)"><path d="M 0,0 V -39.577" style="fill:none;stroke:#000000;stroke-width:15;stroke-linecap:round;stroke-linejoin:round;stroke-miterlimit:10;stroke-dasharray:none;stroke-opacity:1" id="path325"></path></g><g id="g327" transform="translate(226.8554,286.5)"><path d="m 0,0 v 0 c -8.284,0 -15,6.716 -15,15 v 18 c 0,8.284 6.716,15 15,15 v 0 C 8.284,48 15,41.284 15,33 V 15 C 15,6.716 8.284,0 0,0 Z" style="fill:none;stroke:#000000;stroke-width:15;stroke-linecap:round;stroke-linejoin:round;stroke-miterlimit:10;stroke-dasharray:none;stroke-opacity:1" id="path329"></path></g><g id="g331" transform="translate(226.8553,286.5)"><path d="M 0,0 V -39.577" style="fill:none;stroke:#000000;stroke-width:15;stroke-linecap:round;stroke-linejoin:round;stroke-miterlimit:10;stroke-dasharray:none;stroke-opacity:1" id="path333"></path></g><g id="g335" transform="translate(285.1447,286.5)"><path d="m 0,0 v 0 c -8.284,0 -15,6.716 -15,15 v 18 c 0,8.284 6.716,15 15,15 v 0 C 8.284,48 15,41.284 15,33 V 15 C 15,6.716 8.284,0 0,0 Z" style="fill:none;stroke:#000000;stroke-width:15;stroke-linecap:round;stroke-linejoin:round;stroke-miterlimit:10;stroke-dasharray:none;stroke-opacity:1" id="path337"></path></g><g id="g339" transform="translate(285.1447,286.5)"><path d="M 0,0 V -39.577" style="fill:none;stroke:#000000;stroke-width:15;stroke-linecap:round;stroke-linejoin:round;stroke-miterlimit:10;stroke-dasharray:none;stroke-opacity:1" id="path341"></path></g><g id="g343" transform="translate(343.434,286.5)"><path d="m 0,0 v 0 c -8.284,0 -15,6.716 -15,15 v 18 c 0,8.284 6.716,15 15,15 v 0 C 8.284,48 15,41.284 15,33 V 15 C 15,6.716 8.284,0 0,0 Z" style="fill:none;stroke:#000000;stroke-width:15;stroke-linecap:round;stroke-linejoin:round;stroke-miterlimit:10;stroke-dasharray:none;stroke-opacity:1" id="path345"></path></g><g id="g347" transform="translate(343.434,286.5)"><path d="M 0,0 V -39.577" style="fill:none;stroke:#000000;stroke-width:15;stroke-linecap:round;stroke-linejoin:round;stroke-miterlimit:10;stroke-dasharray:none;stroke-opacity:1" id="path349"></path></g><g id="g351" transform="translate(168.566,139.8462)"><path d="M 0,0 V -50.285" style="fill:none;stroke:#000000;stroke-width:15;stroke-linecap:round;stroke-linejoin:round;stroke-miterlimit:10;stroke-dasharray:none;stroke-opacity:1" id="path353"></path></g><g id="g355" transform="translate(226.8553,139.8462)"><path d="M 0,0 V -50.285" style="fill:none;stroke:#000000;stroke-width:15;stroke-linecap:round;stroke-linejoin:round;stroke-miterlimit:10;stroke-dasharray:none;stroke-opacity:1" id="path357"></path></g><g id="g359" transform="translate(285.1447,139.8462)"><path d="M 0,0 V -50.285" style="fill:none;stroke:#000000;stroke-width:15;stroke-linecap:round;stroke-linejoin:round;stroke-miterlimit:10;stroke-dasharray:none;stroke-opacity:1" id="path361"></path></g><g id="g363" transform="translate(343.434,139.8462)"><path d="M 0,0 V -50.285" style="fill:none;stroke:#000000;stroke-width:15;stroke-linecap:round;stroke-linejoin:round;stroke-miterlimit:10;stroke-dasharray:none;stroke-opacity:1" id="path365"></path></g><g id="g367" transform="translate(378,142)"><path d="m 0,0 h -244 c -2.209,0 -4,1.791 -4,4 v 94 c 0,2.209 1.791,4 4,4 H 0 c 2.209,0 4,-1.791 4,-4 V 4 C 4,1.791 2.209,0 0,0 Z" style="fill:none;stroke:#000000;stroke-width:15;stroke-linecap:round;stroke-linejoin:round;stroke-miterlimit:10;stroke-dasharray:none;stroke-opacity:1" id="path369"></path></g></g></g></g></g></svg>