<?xml version="1.0" encoding="UTF-8"?>
<svg xmlns="http://www.w3.org/2000/svg" width="70" height="70" viewBox="0 0 70 70" fill="none">
  <path d="M57.4656 4.375H12.5344C10.3704 4.375 8.29501 5.23465 6.76483 6.76483C5.23465 8.29501 4.375 10.3704 4.375 12.5344V57.4656C4.375 59.6296 5.23465 61.705 6.76483 63.2352C8.29501 64.7654 10.3704 65.625 12.5344 65.625H57.4656C59.6296 65.625 61.705 64.7654 63.2352 63.2352C64.7654 61.705 65.625 59.6296 65.625 57.4656V12.5344C65.625 10.3704 64.7654 8.29501 63.2352 6.76483C61.705 5.23465 59.6296 4.375 57.4656 4.375ZM61.25 57.4656C61.2443 58.4675 60.8437 59.4268 60.1352 60.1352C59.4268 60.8437 58.4675 61.2443 57.4656 61.25H12.5344C11.5325 61.2443 10.5732 60.8437 9.86476 60.1352C9.15629 59.4268 8.75574 58.4675 8.75 57.4656V12.5344C8.75574 11.5325 9.15629 10.5732 9.86476 9.86476C10.5732 9.15629 11.5325 8.75574 12.5344 8.75H57.4656C58.4675 8.75574 59.4268 9.15629 60.1352 9.86476C60.8437 10.5732 61.2443 11.5325 61.25 12.5344V57.4656Z" fill="white"></path>
  <path d="M35 13.125C30.6735 13.125 26.4442 14.4079 22.8469 16.8116C19.2496 19.2153 16.4458 22.6317 14.7901 26.6288C13.1345 30.6259 12.7013 35.0243 13.5453 39.2676C14.3894 43.5109 16.4728 47.4087 19.532 50.468C22.5913 53.5272 26.4891 55.6106 30.7324 56.4547C34.9757 57.2987 39.3741 56.8655 43.3712 55.2099C47.3683 53.5542 50.7847 50.7504 53.1884 47.1531C55.5921 43.5558 56.875 39.3265 56.875 35C56.875 29.1984 54.5703 23.6344 50.468 19.532C46.3656 15.4297 40.8016 13.125 35 13.125ZM37.1875 52.3469V50.3125C37.1875 49.7323 36.957 49.1759 36.5468 48.7657C36.1366 48.3555 35.5802 48.125 35 48.125C34.4198 48.125 33.8635 48.3555 33.4532 48.7657C33.043 49.1759 32.8125 49.7323 32.8125 50.3125V52.3469C28.6084 51.787 24.7507 49.7195 21.9567 46.5288C19.1627 43.338 17.6225 39.2412 17.6225 35C17.6225 30.7588 19.1627 26.662 21.9567 23.4712C24.7507 20.2805 28.6084 18.2129 32.8125 17.6531V19.6875C32.8125 20.2677 33.043 20.8241 33.4532 21.2343C33.8635 21.6445 34.4198 21.875 35 21.875C35.5802 21.875 36.1366 21.6445 36.5468 21.2343C36.957 20.8241 37.1875 20.2677 37.1875 19.6875V17.6531C41.3916 18.2129 45.2493 20.2805 48.0433 23.4712C50.8373 26.662 52.3775 30.7588 52.3775 35C52.3775 39.2412 50.8373 43.338 48.0433 46.5288C45.2493 49.7195 41.3916 51.787 37.1875 52.3469Z" fill="white"></path>
  <path d="M27.3438 30.625C26.2621 30.625 25.2048 30.9457 24.3055 31.5466C23.4061 32.1476 22.7052 33.0017 22.2913 34.0009C21.8774 35.0002 21.7691 36.0998 21.9801 37.1607C22.1911 38.2215 22.7119 39.1959 23.4768 39.9607C24.2416 40.7256 25.216 41.2464 26.2769 41.4574C27.3377 41.6684 28.4373 41.5601 29.4366 41.1462C30.4358 40.7323 31.2899 40.0314 31.8909 39.132C32.4918 38.2327 32.8125 37.1754 32.8125 36.0938C32.8125 34.6433 32.2363 33.2523 31.2107 32.2268C30.1852 31.2012 28.7942 30.625 27.3438 30.625ZM27.3438 37.1875C27.1274 37.1875 26.916 37.1234 26.7361 37.0032C26.5562 36.883 26.416 36.7122 26.3333 36.5123C26.2505 36.3125 26.2288 36.0925 26.271 35.8804C26.3132 35.6682 26.4174 35.4733 26.5704 35.3204C26.7233 35.1674 26.9182 35.0632 27.1304 35.021C27.3425 34.9788 27.5625 35.0005 27.7623 35.0833C27.9622 35.166 28.133 35.3062 28.2532 35.4861C28.3734 35.666 28.4375 35.8774 28.4375 36.0938C28.4375 36.3838 28.3223 36.662 28.1172 36.8671C27.912 37.0723 27.6338 37.1875 27.3438 37.1875Z" fill="white"></path>
  <path d="M42.6563 30.625C41.5746 30.625 40.5173 30.9457 39.618 31.5466C38.7186 32.1476 38.0177 33.0017 37.6038 34.0009C37.1899 35.0002 37.0816 36.0998 37.2926 37.1607C37.5036 38.2215 38.0244 39.1959 38.7893 39.9607C39.5541 40.7256 40.5285 41.2464 41.5894 41.4574C42.6502 41.6684 43.7498 41.5601 44.7491 41.1462C45.7483 40.7323 46.6024 40.0314 47.2034 39.132C47.8043 38.2327 48.125 37.1754 48.125 36.0938C48.125 34.6433 47.5488 33.2523 46.5232 32.2268C45.4977 31.2012 44.1067 30.625 42.6563 30.625ZM42.6563 37.1875C42.4399 37.1875 42.2285 37.1234 42.0486 37.0032C41.8687 36.883 41.7285 36.7122 41.6458 36.5123C41.563 36.3125 41.5413 36.0925 41.5835 35.8804C41.6257 35.6682 41.7299 35.4733 41.8829 35.3204C42.0358 35.1674 42.2307 35.0632 42.4429 35.021C42.655 34.9788 42.875 35.0005 43.0748 35.0833C43.2747 35.166 43.4455 35.3062 43.5657 35.4861C43.6859 35.666 43.75 35.8774 43.75 36.0938C43.75 36.3838 43.6348 36.662 43.4297 36.8671C43.2245 37.0723 42.9463 37.1875 42.6563 37.1875Z" fill="white"></path>
</svg>
