<svg xmlns="http://www.w3.org/2000/svg" xmlns:xlink="http://www.w3.org/1999/xlink" xmlns:svgjs="http://svgjs.dev/svgjs" id="Layer_3" data-name="Layer 3" viewBox="0 0 64 64" width="300" height="300"><g width="100%" height="100%" transform="matrix(1,0,0,1,0,0)"><path d="M62.707,31.293,58,26.586V14h1a1,1,0,0,0,1-1V9a1,1,0,0,0-1-1H47a1,1,0,0,0-1,1v4a1,1,0,0,0,1,1h1v2.586L32.707,1.293a1,1,0,0,0-1.414,0l-30,30A1,1,0,0,0,1,32v6a1,1,0,0,0,1.707.707L5,36.414V57H4a1,1,0,0,0-1,1v4a1,1,0,0,0,1,1H60a1,1,0,0,0,1-1V58a1,1,0,0,0-1-1H59V36.414l2.293,2.293A1,1,0,0,0,62,39a.987.987,0,0,0,.383-.076A1,1,0,0,0,63,38V32A1,1,0,0,0,62.707,31.293ZM48,10H58v2H48Zm2,4h6V24.586l-6-6Zm9,47H5V59H59Zm-2-4H7V34.414l25-25,25,25Zm4-21.414L32.707,7.293a1,1,0,0,0-1.414,0L3,35.586V32.414l29-29,29,29Z" fill="#ffc107" fill-opacity="1" data-original-color="#000000ff" stroke="none" stroke-opacity="1"></path><rect x="53" y="46" width="2" height="2" fill="#ffc107" fill-opacity="1" data-original-color="#000000ff" stroke="none" stroke-opacity="1"></rect><path d="M55,54V50H53v3H50v2h4A1,1,0,0,0,55,54Z" fill="#ffc107" fill-opacity="1" data-original-color="#000000ff" stroke="none" stroke-opacity="1"></path><path d="M11,50H9v4a1,1,0,0,0,1,1h4V53H11Z" fill="#ffc107" fill-opacity="1" data-original-color="#000000ff" stroke="none" stroke-opacity="1"></path><path d="M32,28a1,1,0,0,0-1-1H28a1,1,0,0,0-1,1v3H25V28a1,1,0,0,0-1-1H21a1,1,0,0,0-1,1v3a1,1,0,0,0-1,1v4a7,7,0,0,0,4,6.315V43a10,10,0,0,0,20,0V39h1a1,1,0,0,0,1-1V34a1,1,0,0,0-1-1H36a1,1,0,0,0-1,1v4a1,1,0,0,0,1,1h1v4a4,4,0,0,1-8,0v-.685A7,7,0,0,0,33,36V32a1,1,0,0,0-1-1Zm-1,5v2H21V33Zm-9-4h1v2H22Zm15,6h6v2H37ZM33,49a6.006,6.006,0,0,0,6-6V39h2v4a8,8,0,0,1-16,0v-.08a6.29,6.29,0,0,0,2,0V43A6.006,6.006,0,0,0,33,49Zm-7-8a5.009,5.009,0,0,1-4.9-4h9.8A5.009,5.009,0,0,1,26,41Zm3-10V29h1v2Z" fill="#ffc107" fill-opacity="1" data-original-color="#000000ff" stroke="none" stroke-opacity="1"></path></g></svg>