<svg xmlns="http://www.w3.org/2000/svg" xmlns:xlink="http://www.w3.org/1999/xlink" xmlns:svgjs="http://svgjs.dev/svgjs" height="300" viewBox="0 -49 501.08327 501" width="300"><g width="100%" height="100%" transform="matrix(1,0,0,1,0,0)"><path d="m463.464844 214.082031v-35.238281h18.398437c3.34375-.015625 6.328125-2.097656 7.496094-5.230469 1.164063-3.136719.269531-6.664062-2.25-8.859375l-109.253906-94.871094c-3.007813-2.613281-7.472657-2.617187-10.484375-.011718l-19.445313 16.835937-97.5625-84.707031c-3.003906-2.609375-7.472656-2.613281-10.480469-.007812l-97.765624 84.664062-19.332032-16.785156c-3.007812-2.609375-7.472656-2.609375-10.484375-.003906l-109.535156 94.859374c-2.527344 2.199219-3.425781 5.730469-2.265625 8.867188 1.164062 3.140625 4.148438 5.230469 7.496094 5.25h16.46875v108.414062c0 4.417969 3.875 7.585938 8.292968 7.585938h252.75c0 1-.011718.65625-.011718.882812 0 59.398438 48.320312 107.820313 107.71875 107.820313 59.394531 0 107.867187-48.269531 107.867187-107.667969.019531-31.453125-13.726562-61.335937-37.617187-81.796875zm-16-11.355469c-26.074219-15.035156-57.222656-18.566406-86-9.753906v-14.128906h86zm-74.863282-116.1875 87.847657 76.304688h-98.984375v-22h27.128906c3.355469-.050781 6.332031-2.164062 7.492188-5.308594 1.164062-3.148437.269531-6.6875-2.246094-8.90625l-33.710938-29.277344zm-127.492187-67.675781 122.070313 105.980469h-244.453126zm-127.578125 67.675781 12.363281 10.71875-33.867187 29.316407c-2.523438 2.222656-3.425782 5.769531-2.265625 8.925781 1.15625 3.160156 4.136719 5.28125 7.503906 5.34375h24.199219v22h-96.007813zm-77.066406 92.304688h85v100h-85zm101 100v-138h204v58.523438c-27 13.28125-47 37.386718-56 66.5625v-54.550782c.046875-2.042968-.757813-4.011718-2.21875-5.441406-1.460938-1.429688-3.449219-2.1875-5.492188-2.09375h-72.476562c-2.050782-.097656-4.050782.65625-5.53125 2.082031-1.480469 1.425781-2.304688 3.398438-2.28125 5.453125v67.464844zm132 0h-56v-59h56zm119.75 108.800781c-50.65625 0-91.71875-41.0625-91.71875-91.714843 0-50.65625 41.0625-91.71875 91.71875-91.71875 50.652344 0 91.714844 41.0625 91.714844 91.71875-.054688 50.628906-41.085938 91.65625-91.714844 91.714843zm0 0" fill="#ffc107" fill-opacity="1" data-original-color="#000000ff" stroke="none" stroke-opacity="1"></path><path d="m433.679688 258.84375h-15.214844v-26c0-4.417969-3.582032-8-8-8-4.417969 0-8 3.582031-8 8v26h-18v-26c0-4.417969-3.582032-8-8-8-4.417969 0-8 3.582031-8 8v26h-15.214844c-4.417969 0-8 3.582031-8 8s3.582031 8 8 8h3.214844v26.203125c-.0625 17.414063 12.003906 32.523437 29 36.320313v27.476562c0 4.417969 3.582031 8 8 8 4.417968 0 8-3.582031 8-8v-27.476562c16.996094-3.792969 29.0625-18.90625 29-36.320313v-26.203125h3.214844c4.417968 0 8-3.582031 8-8s-3.582032-8-8-8zm-40.214844 63.359375c-11.324219-.125-20.59375-9.046875-21.15625-20.359375h42.308594c-.558594 11.3125-9.828126 20.234375-21.152344 20.359375zm21-36.359375h-42v-11h42zm0 0" fill="#ffc107" fill-opacity="1" data-original-color="#000000ff" stroke="none" stroke-opacity="1"></path></g></svg>