<svg xmlns="http://www.w3.org/2000/svg" xmlns:xodm="http://www.corel.com/coreldraw/odm/2003" xmlns:xlink="http://www.w3.org/1999/xlink" xmlns:svgjs="http://svgjs.dev/svgjs" clip-rule="evenodd" fill-rule="evenodd" height="300" image-rendering="optimizeQuality" shape-rendering="geometricPrecision" text-rendering="geometricPrecision" viewBox="0 0 1706.66 1706.66" width="300"><g width="100%" height="100%" transform="matrix(1,0,0,1,0,0)"><g id="Layer_x0020_1"><path d="m532 1288.21c173.2 247.33-49.43 327.04-92.76 204.32-15.16-42.95-6-112.04 59.71-205.43l-.03-.02c8.29-11.79 25.84-10.85 33.08 1.14zm239.87-148.41 23.14-127.29h-331.92c-42.38 0-76.85 34.47-76.85 76.85 0 42.39 34.48 76.85 76.85 76.85h780.46c42.39 0 76.85-34.47 76.85-76.85s-34.47-76.85-76.85-76.85h-330.52l-105.45 142.73c-12.51 16.88-39.47 5.33-35.72-15.44zm-52.94-167.22c-.4-4.7.88-9.46 3.73-13.39l183.98-253.96c12.49-17.24 39.83-5.27 35.76 15.53l-31.83 163.35 57.5.69c16.16.19 25.44 18.82 15.82 31.82l-41.34 55.96h281.19c0-281.04-295.34-444.49-520.2-339.17-131.35 61.52-220.47 185.59-220.47 339.17-6.65 0-13.31-.14-19.97 0zm54.77-15.8c81.93 14.48 71.95.55 52.83 105.63l102.06-138.13c-79.09-.93-68.25 8.71-42.72-122.34l-112.17 154.85zm125.67-551.87v-252.89c0-11.02 8.96-19.96 19.96-19.96h323.31v-92.1h-389.33c-25.4 0-46.04 20.66-46.04 46.06v318.91c30.11-7.85 61.98-7.85 92.09-.02zm-132.02 15.68v-334.59c0-47.4 38.57-85.99 85.98-85.99h409.3c11.02 0 19.96 8.94 19.96 19.96v132.04c0 11.02-8.96 19.96-19.96 19.96h-323.3v248.59c65.13 34.85 104.91 106.69 95.44 183.69 136.76 67.74 228.74 207.23 228.74 370.05 54.93 9.5 96.85 57.48 96.85 115.09 0 64.41-52.41 116.8-116.8 116.8h-780.46c-64.4 0-116.78-52.4-116.78-116.8 0-58.03 42.54-106.3 98.06-115.29l-1.24.2c0-162.85 92.02-302.38 228.83-370.1-9.44-76.94 30.34-148.76 95.39-183.61zm228.72 166.91c3.2-80.98-61.78-148.53-142.72-148.53-80.95 0-145.94 67.57-142.72 148.5 91.81-34.19 193.63-34.16 285.44.02zm212.42 858.18c173.2 247.33-49.43 327.04-92.76 204.32-15.17-42.95-6-112.04 59.71-205.44l-.03-.02c8.3-11.79 25.84-10.84 33.08 1.14zm21.72 191.2c10.35-29.31 3.91-77.34-38.63-145.35-105.81 169.18 14.8 212.91 38.63 145.35zm-266.65-348.65c173.2 247.33-49.43 327.04-92.76 204.32-15.17-42.95-6-112.04 59.71-205.43l-.03-.02c8.3-11.79 25.85-10.85 33.08 1.14zm21.72 191.19c10.35-29.31 3.91-77.33-38.63-145.34-105.81 169.18 14.8 212.9 38.63 145.34zm-237.49-33.74c173.2 247.33-49.43 327.04-92.76 204.32-15.17-42.95-6-112.04 59.71-205.44l-.03-.02c8.3-11.79 25.83-10.84 33.08 1.14zm21.72 191.2c10.35-29.31 3.9-77.34-38.63-145.35-105.81 169.17 14.79 212.91 38.63 145.35zm-215.78-157.46c10.35-29.31 3.9-77.33-38.63-145.34-105.81 169.16 14.78 212.91 38.63 145.34z" fill-rule="nonzero" fill="#ffc107" fill-opacity="1" data-original-color="#000000ff" stroke="none" stroke-opacity="1"></path></g></g></svg>