<?xml version="1.0" encoding="UTF-8"?>
<svg xmlns="http://www.w3.org/2000/svg" width="70" height="70" viewBox="0 0 70 70" fill="none">
  <path d="M52.5 13.125H36.9688C36.4645 10.6545 35.1221 8.43413 33.1688 6.83964C31.2156 5.24515 28.7714 4.37449 26.25 4.375H15.3125C14.7323 4.375 14.1759 4.60547 13.7657 5.0157C13.3555 5.42594 13.125 5.98234 13.125 6.5625V8.75H6.5625C5.98234 8.75 5.42594 8.98047 5.0157 9.3907C4.60547 9.80094 4.375 10.3573 4.375 10.9375C4.375 11.5177 4.60547 12.0741 5.0157 12.4843C5.42594 12.8945 5.98234 13.125 6.5625 13.125H13.125V17.5H6.5625C5.98234 17.5 5.42594 17.7305 5.0157 18.1407C4.60547 18.5509 4.375 19.1073 4.375 19.6875C4.375 20.2677 4.60547 20.8241 5.0157 21.2343C5.42594 21.6445 5.98234 21.875 6.5625 21.875H13.125V24.0625C13.125 24.6427 13.3555 25.1991 13.7657 25.6093C14.1759 26.0195 14.7323 26.25 15.3125 26.25H26.25C28.7714 26.2505 31.2156 25.3798 33.1688 23.7854C35.1221 22.1909 36.4645 19.9705 36.9688 17.5H52.5C54.8206 17.5 57.0462 18.4219 58.6872 20.0628C60.3281 21.7038 61.25 23.9294 61.25 26.25V28.4375C61.25 30.7581 60.3281 32.9837 58.6872 34.6247C57.0462 36.2656 54.8206 37.1875 52.5 37.1875H17.5C14.019 37.1875 10.6806 38.5703 8.21922 41.0317C5.75781 43.4931 4.375 46.8315 4.375 50.3125C4.375 53.7935 5.75781 57.1319 8.21922 59.5933C10.6806 62.0547 14.019 63.4375 17.5 63.4375H54.6875C55.2677 63.4375 55.8241 63.207 56.2343 62.7968C56.6445 62.3866 56.875 61.8302 56.875 61.25C56.875 60.6698 56.6445 60.1134 56.2343 59.7032C55.8241 59.293 55.2677 59.0625 54.6875 59.0625H17.5C15.1794 59.0625 12.9538 58.1406 11.3128 56.4997C9.67187 54.8587 8.75 52.6331 8.75 50.3125C8.75 47.9919 9.67187 45.7663 11.3128 44.1253C12.9538 42.4844 15.1794 41.5625 17.5 41.5625H52.5C55.981 41.5625 59.3194 40.1797 61.7808 37.7183C64.2422 35.2569 65.625 31.9185 65.625 28.4375V26.25C65.625 22.769 64.2422 19.4306 61.7808 16.9692C59.3194 14.5078 55.981 13.125 52.5 13.125ZM26.25 21.875H17.5V8.75H26.25C27.9905 8.75 29.6597 9.4414 30.8904 10.6721C32.1211 11.9028 32.8125 13.572 32.8125 15.3125C32.8125 17.053 32.1211 18.7222 30.8904 19.9529C29.6597 21.1836 27.9905 21.875 26.25 21.875Z" fill="white"></path>
</svg>
