<svg xmlns="http://www.w3.org/2000/svg" xmlns:xlink="http://www.w3.org/1999/xlink" xmlns:svgjs="http://svgjs.dev/svgjs" data-name="Layer 1" id="Layer_1" viewBox="0 0 128 128" width="300" height="300"><g width="100%" height="100%" transform="matrix(1,0,0,1,0,0)"><title></title><path d="M84.72363,78.98584,75,62.45569V33a4.00458,4.00458,0,0,0-4-4H47a4.00458,4.00458,0,0,0-4,4s0,63.99878.00122,64.01215a2.21738,2.21738,0,0,0,.30365,1.01477A2.04106,2.04106,0,0,0,45,99H73a2.11344,2.11344,0,0,0,1.72363-.98584s10-17,10.0127-17.021a1.97586,1.97586,0,0,0,.18964-1.50781A2.04841,2.04841,0,0,0,84.72363,78.98584ZM47,33H71V61H47Zm0,37.67914L52.20874,80,47,89.32086ZM71.856,95H48.40869l7.26465-13H79.50293ZM55.67334,78,48.40869,65H71.856l7.647,13Z" fill="#ffc107" fill-opacity="1" data-original-color="#000000ff" stroke="none" stroke-opacity="1"></path><path d="M118,0H10A10.01114,10.01114,0,0,0,0,10V118a10.01114,10.01114,0,0,0,10,10H118a10.01114,10.01114,0,0,0,10-10V10A10.01114,10.01114,0,0,0,118,0Zm6,118a6.00656,6.00656,0,0,1-6,6H10a6.00656,6.00656,0,0,1-6-6V10a6.00656,6.00656,0,0,1,6-6H118a6.00656,6.00656,0,0,1,6,6Z" fill="#ffc107" fill-opacity="1" data-original-color="#000000ff" stroke="none" stroke-opacity="1"></path><path d="M110,10a8,8,0,1,0,8,8A8.00917,8.00917,0,0,0,110,10Zm0,12a4,4,0,1,1,4-4A4.00458,4.00458,0,0,1,110,22Z" fill="#ffc107" fill-opacity="1" data-original-color="#000000ff" stroke="none" stroke-opacity="1"></path><path d="M18,102a8,8,0,1,0,8,8A8.00917,8.00917,0,0,0,18,102Zm0,12a4,4,0,1,1,4-4A4.00458,4.00458,0,0,1,18,114Z" fill="#ffc107" fill-opacity="1" data-original-color="#000000ff" stroke="none" stroke-opacity="1"></path><path d="M110,102a8,8,0,1,0,8,8A8.00917,8.00917,0,0,0,110,102Zm0,12a4,4,0,1,1,4-4A4.00458,4.00458,0,0,1,110,114Z" fill="#ffc107" fill-opacity="1" data-original-color="#000000ff" stroke="none" stroke-opacity="1"></path><path d="M18,10a8,8,0,1,0,8,8A8.00917,8.00917,0,0,0,18,10Zm0,12a4,4,0,1,1,4-4A4.00458,4.00458,0,0,1,18,22Z" fill="#ffc107" fill-opacity="1" data-original-color="#000000ff" stroke="none" stroke-opacity="1"></path></g></svg>