<?xml version="1.0" encoding="UTF-8"?>
<svg xmlns="http://www.w3.org/2000/svg" width="70" height="70" viewBox="0 0 70 70" fill="none">
  <path d="M48.9781 13.125H43.75C43.75 10.8044 42.8281 8.57876 41.1872 6.93782C39.5462 5.29687 37.3206 4.375 35 4.375C32.6794 4.375 30.4538 5.29687 28.8128 6.93782C27.1719 8.57876 26.25 10.8044 26.25 13.125H21.0219C19.5077 13.125 18.0555 13.7265 16.9847 14.7972C15.914 15.868 15.3125 17.3202 15.3125 18.8344V40.2281C15.3125 41.7423 15.914 43.1945 16.9847 44.2653C18.0555 45.336 19.5077 45.9375 21.0219 45.9375H26.25V50.0938C26.25 51.3121 26.734 52.4805 27.5955 53.342C28.457 54.2035 29.6254 54.6875 30.8438 54.6875H32.8125V63.4375C32.8125 64.0177 33.043 64.5741 33.4532 64.9843C33.8634 65.3945 34.4198 65.625 35 65.625C35.5802 65.625 36.1366 65.3945 36.5468 64.9843C36.957 64.5741 37.1875 64.0177 37.1875 63.4375V54.6875H39.1562C40.3746 54.6875 41.543 54.2035 42.4045 53.342C43.266 52.4805 43.75 51.3121 43.75 50.0938V45.9375H48.9781C50.4923 45.9375 51.9445 45.336 53.0153 44.2653C54.086 43.1945 54.6875 41.7423 54.6875 40.2281V18.8344C54.6875 17.3202 54.086 15.868 53.0153 14.7972C51.9445 13.7265 50.4923 13.125 48.9781 13.125ZM35 8.75C36.1603 8.75 37.2731 9.21094 38.0936 10.0314C38.9141 10.8519 39.375 11.9647 39.375 13.125H30.625C30.625 11.9647 31.0859 10.8519 31.9064 10.0314C32.7269 9.21094 33.8397 8.75 35 8.75ZM21.0219 17.5H48.9781C49.332 17.5 49.6714 17.6406 49.9217 17.8908C50.1719 18.1411 50.3125 18.4805 50.3125 18.8344V21.875H19.6875V18.8344C19.6875 18.4805 19.8281 18.1411 20.0783 17.8908C20.3286 17.6406 20.668 17.5 21.0219 17.5ZM39.375 50.0938C39.3701 50.1501 39.3454 50.2029 39.3054 50.2429C39.2654 50.2829 39.2126 50.3076 39.1562 50.3125H30.8438C30.7874 50.3076 30.7346 50.2829 30.6946 50.2429C30.6546 50.2029 30.6299 50.1501 30.625 50.0938V45.9375H39.375V50.0938ZM48.9781 41.5625H21.0219C20.668 41.5625 20.3286 41.4219 20.0783 41.1717C19.8281 40.9214 19.6875 40.582 19.6875 40.2281V26.25H50.3125V40.2281C50.3125 40.582 50.1719 40.9214 49.9217 41.1717C49.6714 41.4219 49.332 41.5625 48.9781 41.5625Z" fill="white"></path>
  <path d="M28.4375 28.4375C27.8573 28.4375 27.3009 28.668 26.8907 29.0782C26.4805 29.4884 26.25 30.0448 26.25 30.625V37.1875C26.25 37.7677 26.4805 38.3241 26.8907 38.7343C27.3009 39.1445 27.8573 39.375 28.4375 39.375C29.0177 39.375 29.5741 39.1445 29.9843 38.7343C30.3945 38.3241 30.625 37.7677 30.625 37.1875V30.625C30.625 30.0448 30.3945 29.4884 29.9843 29.0782C29.5741 28.668 29.0177 28.4375 28.4375 28.4375Z" fill="white"></path>
  <path d="M41.5625 28.4375C40.9823 28.4375 40.4259 28.668 40.0157 29.0782C39.6055 29.4884 39.375 30.0448 39.375 30.625V37.1875C39.375 37.7677 39.6055 38.3241 40.0157 38.7343C40.4259 39.1445 40.9823 39.375 41.5625 39.375C42.1427 39.375 42.6991 39.1445 43.1093 38.7343C43.5195 38.3241 43.75 37.7677 43.75 37.1875V30.625C43.75 30.0448 43.5195 29.4884 43.1093 29.0782C42.6991 28.668 42.1427 28.4375 41.5625 28.4375Z" fill="white"></path>
</svg>
