<svg xmlns="http://www.w3.org/2000/svg" xmlns:xlink="http://www.w3.org/1999/xlink" xmlns:svgjs="http://svgjs.dev/svgjs" id="Layer_1" height="300" viewBox="0 0 512 512" width="300"><g width="100%" height="100%" transform="matrix(1,0,0,1,0,0)"><path d="m271.265 144.149c-2.069-1.856-4.95-2.509-7.621-1.713-2.665.792-4.729 2.911-5.448 5.598l-8.579 32.017-9.998 2.68-7.319-7.319 8.579-32.018c.72-2.686-.007-5.553-1.919-7.571s-4.737-2.898-7.457-2.327c-16.905 3.56-30.183 16.13-34.65 32.805-4.286 15.996.403 32.798 11.987 44.218l-20.842 77.784c-23.836-13.303-44.368-24.834-69.122-39.032-7.934-4.563-17.611-4.946-25.884-1.027-4.6 2.18-8.443 5.53-11.214 9.616l-61.513 41.74c-12.774 8.669-16.116 26.116-7.447 38.894 5.409 7.972 14.235 12.27 23.213 12.27 5.41 0 10.876-1.562 15.681-4.821l12.165-8.254-25.801 131.743c-1.642 7.225-.393 14.662 3.525 20.96 3.945 6.341 10.124 10.766 17.396 12.46 2.124.494 4.249.731 6.342.731 12.7-.001 24.226-8.73 27.229-21.624l14.887-64.156 20.337 13.533 3.43 23.994c.04.277.1.549.148.824h-4.916c-4.418 0-8 3.582-8 8v31.43c0 4.418 3.582 8 8 8h69.733c4.418 0 8-3.582 8-8v-31.43c0-4.418-3.582-8-8-8h-9.709c.507-2.887.563-5.863.136-8.816l-5.034-35.188c-1.265-8.841-5.863-16.128-13.299-21.076l-49.234-32.759 6.859-40.571c9.449 5.354 17.874 10.034 26.966 15.072-1.023 2.26-1.872 4.605-2.522 7.032-4.468 16.675.745 34.199 13.605 45.734 2.07 1.856 4.951 2.509 7.621 1.713 2.665-.792 4.729-2.911 5.448-5.598l8.58-32.017 9.998-2.68 7.318 7.319-8.579 32.018c-.72 2.686.007 5.553 1.919 7.571 1.527 1.612 3.636 2.499 5.809 2.499.548 0 1.101-.057 1.648-.172 16.905-3.56 30.183-16.13 34.65-32.805 4.286-15.995-.404-32.798-11.987-44.218l25.999-97.028c15.742-4.099 28.205-16.305 32.49-32.301 4.469-16.674-.744-34.198-13.604-45.734zm-228.538 188.55c-5.476 3.717-12.954 2.284-16.671-3.191-3.715-5.477-2.283-12.955 3.192-16.67l45.544-30.904-6.551 33.452zm145.46 154.885h-53.733v-15.43h53.733zm-64.269-189.392c-2.269-1.301-5.029-1.411-7.394-.296s-4.035 3.315-4.474 5.893l-9.635 57.015c-.514 3.105.841 6.224 3.461 7.967l53.54 35.623c3.637 2.42 5.705 5.698 6.324 10.021l5.035 35.2c.324 2.24-.012 4.503-.909 6.539h-21.916c-.432-.984-.736-2.025-.891-3.1l-3.935-27.527c-.323-2.256-1.592-4.267-3.488-5.528l-32.933-21.914c-2.185-1.452-4.942-1.743-7.383-.775-2.439.968-4.249 3.071-4.842 5.627l-17.495 75.399c-1.496 6.419-7.934 10.425-14.357 8.933-3.11-.725-5.752-2.617-7.439-5.329-1.688-2.713-2.218-5.919-1.494-9.029.021-.092.042-.185.06-.277l39.326-200.825c.016-.078.029-.156.043-.234.646-3.92 3.098-7.154 6.724-8.873 3.584-1.698 7.615-1.539 11.062.443 29.189 16.743 52.481 29.763 82.191 46.323 2.791 1.56 4.807 4.112 5.677 7.188s.49 6.308-1.069 9.098c-3.22 5.762-10.525 7.829-16.296 4.602-6.337-3.531-12.101-6.725-17.621-9.783-13.402-7.425-24.974-13.836-39.872-22.381zm42.219 62.321c-1.652-5.252-1.822-10.962-.332-16.525.309-1.154.708-2.27 1.147-3.366 1.287.715 2.598 1.444 3.93 2.185zm56.777-1.223c-1.49 5.562-4.493 10.423-8.55 14.146l5.208-19.437c.739-2.761-.05-5.706-2.07-7.727l-8.624-8.624c1.032-1.259 1.973-2.619 2.794-4.089.782-1.399 1.429-2.847 1.956-4.327 8.597 7.393 12.245 19.016 9.286 30.058zm46.502-173.547c-3.09 11.532-12.73 20.029-24.562 21.648-3.191.437-5.81 2.744-6.644 5.855l-25.482 95.1c-2.21-4.893-5.77-9.016-10.337-11.947l23.188-86.538c.834-3.111-.28-6.419-2.825-8.393-9.438-7.316-13.538-19.496-10.447-31.029 1.49-5.562 4.493-10.423 8.55-14.146l-5.208 19.437c-.739 2.761.05 5.706 2.07 7.728l13.852 13.852c2.021 2.021 4.97 2.811 7.728 2.07l18.921-5.07c2.761-.74 4.917-2.896 5.657-5.657l5.207-19.435c1.652 5.253 1.822 10.962.332 16.525zm-136.262 60.946c22.895 0 41.521-18.626 41.521-41.52 0-22.895-18.626-41.521-41.521-41.521-22.894 0-41.52 18.626-41.52 41.521 0 22.894 18.626 41.52 41.52 41.52zm0-67.04c14.072 0 25.521 11.448 25.521 25.521 0 14.071-11.448 25.52-25.521 25.52-14.071 0-25.52-11.448-25.52-25.52s11.449-25.521 25.52-25.521zm367.304 172.806-26.648-17.859v-121.752c0-4.418-3.582-8-8-8h-57.258c-4.418 0-8 3.582-8 8v118.021h-66.499c-4.418 0-8 3.582-8 8v3.716h-17.674c-4.418 0-8 3.582-8 8v25.294c0 4.418 3.582 8 8 8h17.674v12.703h-17.674c-4.418 0-8 3.582-8 8v25.294c0 4.418 3.582 8 8 8h17.674v12.703h-17.674c-4.418 0-8 3.582-8 8v25.294c0 4.418 3.582 8 8 8h17.674v3.716c0 4.418 3.582 8 8 8h161.951c4.418 0 8-3.582 8-8v-136.484c0-2.668-1.33-5.161-3.546-6.646zm-166.405 123.413h-17.674v-9.294h17.674c4.418 0 8-3.582 8-8v-28.703c0-4.418-3.582-8-8-8h-17.674v-9.294h17.674c4.418 0 8-3.582 8-8v-28.703c0-4.418-3.582-8-8-8h-17.674v-9.294h17.674c4.418 0 8-3.582 8-8v-3.716h66.499c4.418 0 8-3.582 8-8v-118.02h41.258l-.001 266.74h-115.756v-3.716c0-4.418-3.582-8-8-8zm153.951 11.716h-14.195v-133.728l14.195 9.513zm-170.999-293.923 11.569-5.139c5.731 3.159 11.775 5.665 18.05 7.483l4.544 11.806c1.188 3.088 4.156 5.126 7.466 5.126h25.514c3.31 0 6.277-2.038 7.466-5.127l4.542-11.801c6.278-1.818 12.324-4.325 18.057-7.485l11.563 5.137c3.022 1.343 6.562.687 8.904-1.654l18.041-18.041c2.34-2.341 2.997-5.88 1.654-8.904l-5.139-11.568c3.16-5.733 5.665-11.776 7.483-18.051l11.805-4.544c3.088-1.188 5.126-4.156 5.126-7.466v-25.513c0-3.31-2.038-6.277-5.126-7.466l-11.801-4.542c-1.818-6.277-4.325-12.324-7.485-18.057l5.137-11.564c1.343-3.024.686-6.563-1.655-8.904l-18.041-18.04c-2.34-2.339-5.877-2.998-8.903-1.654l-11.569 5.138c-5.731-3.159-11.775-5.665-18.05-7.483l-4.544-11.805c-1.188-3.088-4.156-5.126-7.466-5.126h-25.513c-3.31 0-6.277 2.038-7.466 5.126l-4.544 11.805c-6.274 1.818-12.318 4.324-18.051 7.483l-11.568-5.138c-3.025-1.344-6.565-.686-8.904 1.655l-18.04 18.041c-2.34 2.34-2.997 5.879-1.654 8.903l5.137 11.567c-3.159 5.731-5.665 11.776-7.483 18.052l-11.804 4.543c-3.088 1.188-5.126 4.156-5.126 7.466v25.514c0 3.31 2.038 6.277 5.126 7.466l11.801 4.542c1.819 6.279 4.326 12.326 7.485 18.057l-5.136 11.563c-1.343 3.024-.686 6.563 1.654 8.903l18.04 18.041c2.341 2.341 5.879 2.997 8.904 1.655zm-7.679-44.849c-4.051-6.578-7.011-13.718-8.797-21.22-.61-2.566-2.447-4.666-4.908-5.613l-10.49-4.038v-14.527l10.493-4.039c2.462-.947 4.298-3.048 4.908-5.614 1.784-7.496 4.743-14.634 8.796-21.215 1.383-2.246 1.569-5.03.499-7.441l-4.567-10.286 10.272-10.272 10.286 4.568c2.409 1.071 5.193.885 7.441-.499 6.582-4.053 13.72-7.012 21.215-8.796 2.565-.61 4.666-2.446 5.613-4.908l4.04-10.494h14.526l4.04 10.494c.947 2.462 3.048 4.298 5.613 4.908 7.495 1.784 14.633 4.743 21.214 8.796 2.246 1.384 5.032 1.57 7.441.499l10.288-4.568 10.272 10.271-4.565 10.282c-1.07 2.411-.884 5.195.5 7.442 4.053 6.581 7.013 13.72 8.796 21.219.611 2.566 2.447 4.667 4.909 5.614l10.49 4.038v14.526l-10.494 4.04c-2.462.947-4.298 3.048-4.908 5.614-1.783 7.493-4.743 14.631-8.796 21.214-1.383 2.247-1.569 5.03-.499 7.441l4.569 10.287-10.272 10.272-10.282-4.567c-2.409-1.071-5.194-.886-7.442.5-6.58 4.053-13.72 7.012-21.219 8.797-2.566.61-4.667 2.446-5.614 4.909l-4.038 10.49h-14.527l-4.04-10.495c-.947-2.462-3.048-4.298-5.613-4.908-7.495-1.784-14.633-4.743-21.214-8.796-2.246-1.384-5.032-1.569-7.441-.499l-10.288 4.569-10.271-10.272 4.566-10.282c1.068-2.41.881-5.194-.502-7.441zm62.064 14.359c28.946 0 52.495-23.549 52.495-52.494 0-28.946-23.549-52.495-52.495-52.495-28.945 0-52.494 23.549-52.494 52.495 0 28.945 23.549 52.494 52.494 52.494zm0-88.989c20.123 0 36.495 16.372 36.495 36.495s-16.372 36.494-36.495 36.494-36.494-16.371-36.494-36.494 16.371-36.495 36.494-36.495zm17.367 141.088h-48.034c-4.418 0-8 3.582-8 8v95.124c0 4.418 3.582 8 8 8h48.034c4.418 0 8-3.582 8-8v-95.124c0-4.418-3.582-8-8-8zm-8 95.124h-32.034v-79.124h32.034z" fill="#ffc107" fill-opacity="1" data-original-color="#000000ff" stroke="none" stroke-opacity="1"></path></g></svg>