<svg xmlns="http://www.w3.org/2000/svg" xmlns:svg="http://www.w3.org/2000/svg" xmlns:xlink="http://www.w3.org/1999/xlink" xmlns:svgjs="http://svgjs.dev/svgjs" id="svg717" xml:space="preserve" width="300" height="300" viewBox="0 0 682.66669 682.66669">  <g width="100%" height="100%" transform="matrix(1,0,0,1,0,0)">    <defs id="defs721">      <clipPath id="clipPath731">        <path d="M 0,512 H 512 V 0 H 0 Z" id="path729" fill="#ffc107" fill-opacity="1" data-original-color="#000000ff" stroke="none" stroke-opacity="1"></path>      </clipPath>    </defs>    <g id="g723" transform="matrix(1.3333333,0,0,-1.3333333,0,682.66667)">      <g id="g725">        <g id="g727" clip-path="url(#clipPath731)">          <g id="g733" transform="translate(197.8325,492.439)">            <path d="m 0,0 c -22.366,14.229 -50.429,15.874 -74.126,4.904 l 41.414,-41.386 -8.107,-29.707 -29.707,-8.108 -41.386,41.415 c -13.266,-28.659 -8.079,-63.752 15.534,-87.393 22.082,-22.053 54.113,-28.034 81.581,-17.943 l 36.51,-36.482 m 45.978,45.978 -36.482,36.511 c 8.193,22.365 5.755,47.763 -7.313,68.315 m 158.089,-350.817 c 23.981,-13.579 54.992,-10.148 75.43,10.289 24.548,24.577 24.548,64.376 0,88.952 -16.158,16.129 -38.892,21.657 -59.556,16.583 L 94.621,-155.651 m -45.978,-45.978 103.238,-103.239 c -3.798,-15.392 -1.673,-31.918 6.293,-46.034" style="stroke-linecap: round; stroke-linejoin: round; stroke-miterlimit: 10; stroke-dasharray: none;" id="path735" fill="none" fill-opacity="1" stroke="#ffc107" stroke-opacity="1" data-original-stroke-color="#000000ff" stroke-width="15" data-original-stroke-width="15"></path>          </g>          <g id="g737" transform="translate(393.4805,155.1997)">            <path d="m 0,0 c 9.553,-9.553 25.03,-9.553 34.583,0 9.552,9.553 9.552,25.03 0,34.583 C 25.03,44.135 9.553,44.135 0,34.583 -9.553,25.03 -9.553,9.553 0,0 Z" style="stroke-linecap: round; stroke-linejoin: round; stroke-miterlimit: 10; stroke-dasharray: none;" id="path739" fill="none" fill-opacity="1" stroke="#ffc107" stroke-opacity="1" data-original-stroke-color="#000000ff" stroke-width="15" data-original-stroke-width="15"></path>          </g>          <g id="g741" transform="translate(269.4644,313.7983)">            <path d="M 0,0 103.238,-103.238 M -66.047,66.048 -26.929,26.93" style="stroke-linecap: round; stroke-linejoin: round; stroke-miterlimit: 10; stroke-dasharray: none;" id="path743" fill="none" fill-opacity="1" stroke="#ffc107" stroke-opacity="1" data-original-stroke-color="#000000ff" stroke-width="15" data-original-stroke-width="15"></path>          </g>          <g id="g745" transform="translate(321.2246,365.5312)">            <path d="M 0,0 -100.035,-100.007 -126.963,-73.078 25.824,79.71 52.753,52.781 24.01,24.038" style="stroke-linecap: round; stroke-linejoin: round; stroke-miterlimit: 10; stroke-dasharray: none;" id="path747" fill="none" fill-opacity="1" stroke="#ffc107" stroke-opacity="1" data-original-stroke-color="#000000ff" stroke-width="15" data-original-stroke-width="15"></path>          </g>          <g id="g749" transform="translate(406.3213,504.4858)">            <path d="m 0,0 26.929,-26.929 -32.343,-50.259 -26.929,-8.985 -26.929,26.928 8.985,26.93 z" style="stroke-linecap: round; stroke-linejoin: round; stroke-miterlimit: 10; stroke-dasharray: none;" id="path751" fill="none" fill-opacity="1" stroke="#ffc107" stroke-opacity="1" data-original-stroke-color="#000000ff" stroke-width="15" data-original-stroke-width="15"></path>          </g>          <g id="g753" transform="translate(177.1958,309.5181)">            <path d="m 0,0 61.059,-61.058 c 9.382,-9.383 9.382,-24.718 0,-34.101 -9.383,-9.383 -24.746,-9.383 -34.129,0 l -61.031,61.03 c -9.382,9.382 -9.382,24.746 0,34.129 C -24.718,9.383 -9.382,9.383 0,0 Z" style="stroke-linecap: round; stroke-linejoin: round; stroke-miterlimit: 10; stroke-dasharray: none;" id="path755" fill="none" fill-opacity="1" stroke="#ffc107" stroke-opacity="1" data-original-stroke-color="#000000ff" stroke-width="15" data-original-stroke-width="15"></path>          </g>          <g id="g757" transform="translate(204.1255,214.3589)">            <path d="m 0,0 -99.185,-99.213 c -7.398,-7.398 -19.53,-7.398 -26.929,0 l -34.101,34.13 c -7.427,7.398 -7.427,19.53 0,26.928 L -61.03,61.03 Z" style="stroke-linecap: round; stroke-linejoin: round; stroke-miterlimit: 10; stroke-dasharray: none;" id="path759" fill="none" fill-opacity="1" stroke="#ffc107" stroke-opacity="1" data-original-stroke-color="#000000ff" stroke-width="15" data-original-stroke-width="15"></path>          </g>          <g id="g761" transform="translate(149.4448,220.6802)">            <path d="M 0,0 -64.318,-64.29" style="stroke-linecap: round; stroke-linejoin: round; stroke-miterlimit: 10; stroke-dasharray: none;" id="path763" fill="none" fill-opacity="1" stroke="#ffc107" stroke-opacity="1" data-original-stroke-color="#000000ff" stroke-width="15" data-original-stroke-width="15"></path>          </g>          <g id="g765" transform="translate(223.4009,149.0483)">            <path d="m 0,0 25.285,25.313 c 4.026,3.997 10.602,3.997 14.627,0 l 74.609,-74.607 c 4.024,-4.026 4.024,-10.602 0,-14.627 L 39.912,-138.53 c -4.025,-4.025 -10.601,-4.025 -14.627,0 l -74.608,74.609 c -4.025,4.025 -4.025,10.601 0,14.627 l 25.285,25.285" style="stroke-linecap: round; stroke-linejoin: round; stroke-miterlimit: 10; stroke-dasharray: none;" id="path767" fill="none" fill-opacity="1" stroke="#ffc107" stroke-opacity="1" data-original-stroke-color="#000000ff" stroke-width="15" data-original-stroke-width="15"></path>          </g>          <g id="g769" transform="translate(261.584,123.9902)">            <path d="M 0,0 -19.956,-25.229 8.787,-37.899 -11.168,-63.1" style="stroke-linecap: round; stroke-linejoin: round; stroke-miterlimit: 10; stroke-dasharray: none;" id="path771" fill="none" fill-opacity="1" stroke="#ffc107" stroke-opacity="1" data-original-stroke-color="#000000ff" stroke-width="15" data-original-stroke-width="15"></path>          </g>        </g>      </g>    </g>  </g></svg>