<svg xmlns="http://www.w3.org/2000/svg" xmlns:svg="http://www.w3.org/2000/svg" xmlns:xlink="http://www.w3.org/1999/xlink" xmlns:svgjs="http://svgjs.dev/svgjs" id="svg2388" xml:space="preserve" width="300" height="300" viewBox="0 0 682.66669 682.66669">  <g width="100%" height="100%" transform="matrix(1,0,0,1,0,0)">    <defs id="defs2392">      <clipPath id="clipPath2406">        <path d="M 0,512 H 512 V 0 H 0 Z" id="path2404" fill="#ffc107" fill-opacity="1" data-original-color="#000000ff" stroke="none" stroke-opacity="1"></path>      </clipPath>    </defs>    <g id="g2394" transform="matrix(1.3333333,0,0,-1.3333333,0,682.66667)">      <g id="g2396" transform="translate(108.0088,361.6357)">        <path d="M 0,0 V -225.043" style="stroke-linecap: round; stroke-linejoin: round; stroke-miterlimit: 10; stroke-dasharray: none;" id="path2398" fill="none" fill-opacity="1" stroke="#ffc107" stroke-opacity="1" data-original-stroke-color="#000000ff" stroke-width="15" data-original-stroke-width="15"></path>      </g>      <g id="g2400">        <g id="g2402" clip-path="url(#clipPath2406)">          <g id="g2408" transform="translate(183.4082,449.7617)">            <path d="M 0,0 H -54.966 C -66.251,0 -75.399,-9.148 -75.399,-20.433 V -53.126" style="stroke-linecap: round; stroke-linejoin: round; stroke-miterlimit: 10; stroke-dasharray: none;" id="path2410" fill="none" fill-opacity="1" stroke="#ffc107" stroke-opacity="1" data-original-stroke-color="#000000ff" stroke-width="15" data-original-stroke-width="15"></path>          </g>          <g id="g2412" transform="translate(108.0088,81.8623)">            <path d="m 0,0 v -53.929 c 0,-11.285 9.148,-20.433 20.434,-20.433 h 286.749 c 11.284,0 20.433,9.148 20.433,20.433 v 401.395 c 0,11.285 -9.149,20.433 -20.433,20.433 h -54.967" style="stroke-linecap: round; stroke-linejoin: round; stroke-miterlimit: 10; stroke-dasharray: none;" id="path2414" fill="none" fill-opacity="1" stroke="#ffc107" stroke-opacity="1" data-original-stroke-color="#000000ff" stroke-width="15" data-original-stroke-width="15"></path>          </g>          <g id="g2416" transform="translate(183.4082,419.6787)">            <path d="m 0,0 h -39.229 c -3.362,0 -6.087,-2.726 -6.087,-6.087 v -246.915" style="stroke-linecap: round; stroke-linejoin: round; stroke-miterlimit: 10; stroke-dasharray: none;" id="path2418" fill="none" fill-opacity="1" stroke="#ffc107" stroke-opacity="1" data-original-stroke-color="#000000ff" stroke-width="15" data-original-stroke-width="15"></path>          </g>          <g id="g2420" transform="translate(138.0923,111.9458)">            <path d="m 0,0 v -68.275 c 0,-3.362 2.725,-6.088 6.087,-6.088 h 255.275 c 3.362,0 6.087,2.726 6.087,6.088 v 369.921 c 0,3.361 -2.725,6.087 -6.087,6.087 h -39.229" style="stroke-linecap: round; stroke-linejoin: round; stroke-miterlimit: 10; stroke-dasharray: none;" id="path2422" fill="none" fill-opacity="1" stroke="#ffc107" stroke-opacity="1" data-original-stroke-color="#000000ff" stroke-width="15" data-original-stroke-width="15"></path>          </g>          <g id="g2424" transform="translate(336.5522,476.4429)">            <path d="m 0,0 h -31.89 c -2.517,0 -4.732,1.794 -5.113,4.281 -2.061,13.464 -13.693,23.776 -27.733,23.776 -14.039,0 -25.671,-10.312 -27.732,-23.776 C -92.849,1.794 -95.064,0 -97.581,0 h -31.89 c -13.074,0 -23.673,-10.599 -23.673,-23.673 v -38.498 c 0,-9.74 7.896,-17.636 17.636,-17.636 H 6.037 c 9.74,0 17.636,7.896 17.636,17.636 v 38.498 C 23.673,-10.599 13.074,0 0,0 Z" style="stroke-linecap: round; stroke-linejoin: round; stroke-miterlimit: 10; stroke-dasharray: none;" id="path2426" fill="none" fill-opacity="1" stroke="#ffc107" stroke-opacity="1" data-original-stroke-color="#000000ff" stroke-width="15" data-original-stroke-width="15"></path>          </g>          <g id="g2428" transform="translate(271.8169,477.9849)">            <path d="M 0,0 V 0" style="stroke-linecap: round; stroke-linejoin: round; stroke-miterlimit: 10; stroke-dasharray: none;" id="path2430" fill="none" fill-opacity="1" stroke="#ffc107" stroke-opacity="1" data-original-stroke-color="#000000ff" stroke-width="15" data-original-stroke-width="15"></path>          </g>          <g id="g2432" transform="translate(350.0581,150.9644)">            <path d="m 0,0 h 7.5 c 7.17,0 12.983,-5.812 12.983,-12.982 0,-7.17 -5.813,-12.983 -12.983,-12.983 h -171.483 c -7.17,0 -12.983,5.813 -12.983,12.983 0,7.17 5.813,12.982 12.983,12.982 H -35" style="stroke-linecap: round; stroke-linejoin: round; stroke-miterlimit: 10; stroke-dasharray: none;" id="path2434" fill="none" fill-opacity="1" stroke="#ffc107" stroke-opacity="1" data-original-stroke-color="#000000ff" stroke-width="15" data-original-stroke-width="15"></path>          </g>          <g id="g2436" transform="translate(357.5586,74.0342)">            <path d="m 0,0 h -171.484 c -7.17,0 -12.982,5.812 -12.982,12.982 0,7.171 5.812,12.983 12.982,12.983 H 0 c 7.17,0 12.982,-5.812 12.982,-12.983 C 12.982,5.812 7.17,0 0,0 Z" style="stroke-linecap: round; stroke-linejoin: round; stroke-miterlimit: 10; stroke-dasharray: none;" id="path2438" fill="none" fill-opacity="1" stroke="#ffc107" stroke-opacity="1" data-original-stroke-color="#000000ff" stroke-width="15" data-original-stroke-width="15"></path>          </g>          <g id="g2440" transform="translate(370.4243,273.8037)">            <path d="m 0,0 c 0,-54.035 -43.804,-97.839 -97.839,-97.839 -54.036,0 -97.84,43.804 -97.84,97.839 0,54.035 43.804,97.839 97.84,97.839 C -43.804,97.839 0,54.035 0,0 Z" style="stroke-linecap: round; stroke-linejoin: round; stroke-miterlimit: 10; stroke-dasharray: none;" id="path2442" fill="none" fill-opacity="1" stroke="#ffc107" stroke-opacity="1" data-original-stroke-color="#000000ff" stroke-width="15" data-original-stroke-width="15"></path>          </g>          <g id="g2444" transform="translate(333.2441,308.0112)">            <path d="m 0,0 c 5.71,-10.103 8.968,-21.775 8.968,-34.208 0,-38.454 -31.173,-69.627 -69.627,-69.627 -38.454,0 -69.628,31.173 -69.628,69.627 0,38.455 31.174,69.628 69.628,69.628 13.311,0 25.749,-3.735 36.325,-10.215" style="stroke-linecap: round; stroke-linejoin: round; stroke-miterlimit: 10; stroke-dasharray: none;" id="path2446" fill="none" fill-opacity="1" stroke="#ffc107" stroke-opacity="1" data-original-stroke-color="#000000ff" stroke-width="15" data-original-stroke-width="15"></path>          </g>          <g id="g2448" transform="translate(193.0083,171.2192)">            <path d="m 0,0 -23.008,23.008 c -1.203,1.203 -3.154,1.203 -4.358,0 l -88.364,-88.365 c -1.204,-1.204 -1.204,-3.155 0,-4.358 l 23.007,-23.008 c 1.203,-1.203 3.155,-1.203 4.358,0 L 0,-4.357 C 1.203,-3.154 1.203,-1.204 0,0 Z" style="stroke-linecap: round; stroke-linejoin: round; stroke-miterlimit: 10; stroke-dasharray: none;" id="path2450" fill="none" fill-opacity="1" stroke="#ffc107" stroke-opacity="1" data-original-stroke-color="#000000ff" stroke-width="15" data-original-stroke-width="15"></path>          </g>          <g id="g2452" transform="translate(190.312,173.915)">            <path d="M 0,0 22.458,22.458" style="stroke-linecap: round; stroke-linejoin: round; stroke-miterlimit: 10; stroke-dasharray: none;" id="path2454" fill="none" fill-opacity="1" stroke="#ffc107" stroke-opacity="1" data-original-stroke-color="#000000ff" stroke-width="15" data-original-stroke-width="15"></path>          </g>          <g id="g2456" transform="translate(195.1543,213.9888)">            <path d="M 0,0 -22.458,-22.458" style="stroke-linecap: round; stroke-linejoin: round; stroke-miterlimit: 10; stroke-dasharray: none;" id="path2458" fill="none" fill-opacity="1" stroke="#ffc107" stroke-opacity="1" data-original-stroke-color="#000000ff" stroke-width="15" data-original-stroke-width="15"></path>          </g>          <g id="g2460" transform="translate(265.5459,204.5278)">            <path d="m 0,0 47.479,74.578 c 2.279,3.58 -0.292,8.266 -4.536,8.266 H 24.061 c -3.719,0 -6.315,3.684 -5.064,7.186 L 34.45,133.3" style="stroke-linecap: round; stroke-linejoin: round; stroke-miterlimit: 10; stroke-dasharray: none;" id="path2462" fill="none" fill-opacity="1" stroke="#ffc107" stroke-opacity="1" data-original-stroke-color="#000000ff" stroke-width="15" data-original-stroke-width="15"></path>          </g>          <g id="g2464" transform="translate(257.689,341.834)">            <path d="m 0,0 -27.613,-77.319 c -1.25,-3.502 1.346,-7.186 5.065,-7.186 H 4.201 c 0.941,0 1.598,-0.933 1.281,-1.819 l -16.546,-46.333" style="stroke-linecap: round; stroke-linejoin: round; stroke-miterlimit: 10; stroke-dasharray: none;" id="path2466" fill="none" fill-opacity="1" stroke="#ffc107" stroke-opacity="1" data-original-stroke-color="#000000ff" stroke-width="15" data-original-stroke-width="15"></path>          </g>          <g id="g2468" transform="translate(360.2251,426.8857)">            <path d="M 0,0 H -176.817" style="stroke-linecap: round; stroke-linejoin: round; stroke-miterlimit: 10; stroke-dasharray: none;" id="path2470" fill="none" fill-opacity="1" stroke="#ffc107" stroke-opacity="1" data-original-stroke-color="#000000ff" stroke-width="15" data-original-stroke-width="15"></path>          </g>        </g>      </g>    </g>  </g></svg>