<svg xmlns="http://www.w3.org/2000/svg" xmlns:xlink="http://www.w3.org/1999/xlink" xmlns:svgjs="http://svgjs.dev/svgjs" clip-rule="evenodd" fill-rule="evenodd" stroke-linejoin="round" stroke-miterlimit="2" viewBox="0 0 510 510" width="300" height="300"><g width="100%" height="100%" transform="matrix(1,0,0,1,0,0)"><g id="Artboard271"><path d="m158.567 273.016h-120.256c-11.342 0-21.403-5.818-27.076-15.642l-.003-.005c-5.667-9.843-5.667-21.417.003-31.265l106.433-184.349c5.673-9.852 15.733-15.647 27.079-15.647 11.375 0 21.406 5.795 27.073 15.638l43.866 75.962h18.531v-1.424c0-4.418 3.581-8 8-8 0 0 28.605 0 28.605.001 5.422-11.956 17.463-20.28 31.437-20.28 13.995 0 26.035 8.324 31.457 20.279h28.605c4.419 0 8 3.582 8 8v1.424h52.043c12.991 0 23.607 10.616 23.607 23.607v147.096l52.181 22.367c2.941 1.261 4.848 4.153 4.848 7.353v65.069c0 49.15-35.77 91.623-84.159 100.059l-2.933.513c-.912.159-1.844.159-2.755 0l-2.929-.512c-22.63-3.945-42.5-15.334-57.242-31.367h-170.808c-12.994 0-23.607-10.593-23.607-23.587zm38.643-155.308-39.248-67.965-.003-.004c-2.767-4.807-7.663-7.631-13.212-7.631-5.535 0-10.445 2.824-13.215 7.635l-106.435 184.35c-2.771 4.814-2.771 10.474-.002 15.288 2.77 4.793 7.679 7.635 13.216 7.635h120.256v-48.001l-24.906 30.814c-2.239 2.77-6.039 3.726-9.322 2.346-3.283-1.381-5.258-4.765-4.846-8.303l5.682-48.682h-36.953c-3.059 0-5.85-1.744-7.191-4.493-1.34-2.749-.997-6.021.886-8.432l61.396-78.59c2.156-2.759 5.854-3.796 9.13-2.559 3.275 1.236 5.366 4.458 5.161 7.953 0 0-2.787 47.518-2.787 47.518h3.75v-5.272c0-12.991 10.616-23.607 23.607-23.607zm37.007 16h-52.043c-4.186 0-7.607 3.421-7.607 7.607v286.991c0 4.183 3.424 7.587 7.607 7.587h158.748c-1.136-1.86-2.213-3.758-3.23-5.691h-149.414c-4.418 0-8-3.582-8-8v-274.783c0-4.418 3.582-8 8-8h45.939zm-75.65 49.854v-20.975h-12.233c-2.204 0-4.309-.909-5.821-2.511-1.511-1.603-2.295-3.758-2.166-5.958l1.782-30.377-35.506 45.449h29.539c2.284 0 4.458.976 5.976 2.681 1.518 1.706 2.235 3.979 1.971 6.247l-3.52 30.162zm211.754-49.854v5.711h45.939c4.418 0 8 3.582 8 8v131.686l5.711 2.447v-140.237c0-4.186-3.421-7.607-7.607-7.607zm0 21.711v1.424c0 4.418-3.581 8-8 8h-120.104c-4.419 0-8-3.582-8-8v-1.424h-37.939v258.783h134.673c-2.78-8.589-4.437-17.641-4.81-26.964h-20.442c-4.416 0-8-3.585-8-8s3.584-8 8-8h20.362v-8.454h-20.362c-4.416 0-8-3.585-8-8 0-4.416 3.584-8 8-8h20.362v-28.653c0-3.2 1.907-6.092 4.848-7.353l77.351-33.156v-122.203zm-120.104-31.135v24.559h104.104v-24.559h-26.276c-3.696 0-6.911-2.532-7.777-6.125-1.957-8.121-9.277-14.154-18.009-14.154-8.716 0-16.032 6.035-17.989 14.154-.866 3.593-4.081 6.125-7.777 6.125zm52.042.47c-3.857 0-6.998-3.141-6.998-6.998 0-3.877 3.141-7.018 6.998-7.018 3.877 0 7.018 3.141 7.018 7.018 0 3.857-3.141 6.998-7.018 6.998zm112.271 167.588-72.469 31.064v59.794c0 41.409 30.139 77.19 70.911 84.298l1.558.272 1.559-.272c40.771-7.108 70.911-42.889 70.911-84.298v-59.794zm-50.843 100.836-.017-.017c-7.539-7.511-7.536-19.696.009-27.204 7.5-7.489 19.627-7.503 27.169-.008.005.006.011.012.017.018l11.498 11.498 35.852-36.196.01-.01c7.469-7.514 19.628-7.556 27.142-.087 7.554 7.508 7.551 19.659.098 27.157-21.444 21.657-27.902 28.407-49.478 49.956-7.515 7.541-19.704 7.535-27.194-.001zm11.297-11.33 25.123 25.123c.005.005.011.011.017.017 1.251 1.258 3.282 1.258 4.533 0l.021-.021c21.55-21.524 28-28.265 49.418-49.896l.01-.01c1.248-1.256 1.244-3.286-.018-4.541-1.25-1.242-3.271-1.231-4.514.017l-41.5 41.899c-1.498 1.512-3.536 2.365-5.665 2.37-2.128.005-4.171-.838-5.675-2.343 0 0-17.169-17.168-17.169-17.168-1.272-1.263-3.317-1.279-4.581-.015-.006.006-.012.012-.018.017-1.258 1.251-1.258 3.283 0 4.534.006.005.012.011.018.017zm-142.947-121.768h27.218c9.358 0 16.987 7.629 16.987 16.987v27.217c0 9.325-7.624 16.967-16.987 16.967h-27.218c-9.329 0-16.966-7.637-16.966-16.967v-27.217c0-9.363 7.642-16.987 16.966-16.987zm0 16c-.536 0-.966.448-.966.987v27.217c0 .532.435.967.966.967h27.218c.539 0 .987-.43.987-.967v-27.217c0-.544-.443-.987-.987-.987zm0 60.345h27.218c9.363 0 16.987 7.642 16.987 16.967v27.218c0 9.357-7.629 16.986-16.987 16.986h-27.218c-9.324 0-16.966-7.624-16.966-16.986v-27.218c0-9.33 7.637-16.967 16.966-16.967zm0 16c-.531 0-.966.435-.966.967v27.218c0 .538.43.986.966.986h27.218c.544 0 .987-.443.987-.986v-27.218c0-.536-.448-.967-.987-.967zm73.662-49.286c-4.416 0-8-3.585-8-8s3.584-8 8-8h32.088c4.416 0 8 3.585 8 8s-3.584 8-8 8zm0-93.046c-4.416 0-8-3.584-8-8 0-4.415 3.584-8 8-8h64.177c4.416 0 8 3.585 8 8 0 4.416-3.584 8-8 8zm-73.662-26.358h27.218c9.358 0 16.987 7.629 16.987 16.986v27.218c0 9.32-7.629 16.987-16.987 16.987h-27.218c-9.324 0-16.966-7.662-16.966-16.987v-27.218c0-9.362 7.642-16.986 16.966-16.986zm0 16c-.536 0-.966.448-.966.986v27.218c0 .537.43.987.966.987h27.218c.544 0 .987-.445.987-.987v-27.218c0-.543-.443-.986-.987-.986zm73.662 34.813c-4.416 0-8-3.585-8-8 0-4.416 3.584-8 8-8h32.088c4.416 0 8 3.584 8 8 0 4.415-3.584 8-8 8zm0 44.137c-4.416 0-8-3.585-8-8 0-4.416 3.584-8 8-8h64.177c4.416 0 8 3.584 8 8 0 4.415-3.584 8-8 8z" fill="#ffc107" fill-opacity="1" data-original-color="#000000ff" stroke="none" stroke-opacity="1"></path></g></g></svg>