<?xml version="1.0" encoding="UTF-8"?>
<svg xmlns="http://www.w3.org/2000/svg" width="70" height="70" viewBox="0 0 70 70" fill="none">
  <path d="M54.6875 10.9375V6.5625C54.6875 5.98234 54.457 5.42594 54.0468 5.0157C53.6366 4.60547 53.0802 4.375 52.5 4.375H43.75C43.1698 4.375 42.6134 4.60547 42.2032 5.0157C41.793 5.42594 41.5625 5.98234 41.5625 6.5625V10.9375C40.9823 10.9375 40.4259 11.168 40.0157 11.5782C39.6055 11.9884 39.375 12.5448 39.375 13.125V20.7375C39.375 22.1995 39.9558 23.6016 40.9896 24.6354C42.0234 25.6692 43.4255 26.25 44.8875 26.25H45.9375V50.3125C45.9375 53.2133 44.7852 55.9953 42.734 58.0465C40.6828 60.0977 37.9008 61.25 35 61.25C32.0992 61.25 29.3172 60.0977 27.266 58.0465C25.2148 55.9953 24.0625 53.2133 24.0625 50.3125V26.25H25.1125C26.5745 26.25 27.9766 25.6692 29.0104 24.6354C30.0442 23.6016 30.625 22.1995 30.625 20.7375V13.125C30.625 12.5448 30.3945 11.9884 29.9843 11.5782C29.5741 11.168 29.0177 10.9375 28.4375 10.9375V6.5625C28.4375 5.98234 28.207 5.42594 27.7968 5.0157C27.3866 4.60547 26.8302 4.375 26.25 4.375H17.5C16.9198 4.375 16.3634 4.60547 15.9532 5.0157C15.543 5.42594 15.3125 5.98234 15.3125 6.5625V10.9375C14.7323 10.9375 14.1759 11.168 13.7657 11.5782C13.3555 11.9884 13.125 12.5448 13.125 13.125V20.7375C13.125 22.1995 13.7058 23.6016 14.7396 24.6354C15.7734 25.6692 17.1755 26.25 18.6375 26.25H19.6875V50.3125C19.6875 54.3736 21.3008 58.2684 24.1724 61.1401C27.0441 64.0117 30.9389 65.625 35 65.625C39.0611 65.625 42.9559 64.0117 45.8276 61.1401C48.6992 58.2684 50.3125 54.3736 50.3125 50.3125V26.25H51.3625C52.8245 26.25 54.2266 25.6692 55.2604 24.6354C56.2942 23.6016 56.875 22.1995 56.875 20.7375V13.125C56.875 12.5448 56.6445 11.9884 56.2343 11.5782C55.8241 11.168 55.2677 10.9375 54.6875 10.9375ZM19.6875 8.75H24.0625V10.9375H19.6875V8.75ZM17.5 20.7375V15.3125H26.25V20.7375C26.25 21.0392 26.1302 21.3285 25.9168 21.5418C25.7035 21.7552 25.4142 21.875 25.1125 21.875H18.55C18.2637 21.8529 17.9964 21.7234 17.8017 21.5124C17.6069 21.3014 17.4991 21.0246 17.5 20.7375ZM45.9375 8.75H50.3125V10.9375H45.9375V8.75ZM52.5 20.7375C52.5 21.0392 52.3802 21.3285 52.1668 21.5418C51.9535 21.7552 51.6642 21.875 51.3625 21.875H44.8C44.5137 21.8529 44.2464 21.7234 44.0517 21.5124C43.8569 21.3014 43.7491 21.0246 43.75 20.7375V15.3125H52.5V20.7375Z" fill="white"></path>
</svg>
