<svg xmlns="http://www.w3.org/2000/svg" viewBox="0 0 64 64" id="socket"><path d="M4.974,55.166h31.8A14.353,14.353,0,1,0,55.505,34.7V4.636a3.247,3.247,0,0,0-3.243-3.243H4.974A3.247,3.247,0,0,0,1.731,4.636V51.923A3.247,3.247,0,0,0,4.974,55.166Zm31.509-7.748a12.28,12.28,0,0,1,14.008-12.24L39.791,48.44a1,1,0,0,0,.778,1.628h0l4.738-.011-.849,8.906A12.372,12.372,0,0,1,36.483,47.418Zm-1.97-.582h-23.2a1.248,1.248,0,0,1-1.246-1.247V10.969a1.247,1.247,0,0,1,1.246-1.246h34.62a1.248,1.248,0,0,1,1.247,1.246V33.161a14.156,14.156,0,0,0-3.285.8,16.32,16.32,0,1,0-8.777,9.264A14.248,14.248,0,0,0,34.513,46.836Zm1.9-6.573a14.2,14.2,0,0,1-4.9,2.013V38.985a2.709,2.709,0,0,0-2.9-2.463,2.708,2.708,0,0,0-2.895,2.463v3.3a14.3,14.3,0,0,1,0-28v3.3a2.708,2.708,0,0,0,2.895,2.464,2.709,2.709,0,0,0,2.9-2.464v-3.3a14.294,14.294,0,0,1,9.5,21.116A14.451,14.451,0,0,0,36.411,40.263Zm-6.9,2.281c-.3.019-.6.033-.9.033s-.6-.027-.895-.045V38.985c0-.163.339-.463.895-.463s.9.3.9.463ZM27.723,14.027c.3-.019.593-.046.895-.046s.6.027.9.046v3.546c0,.164-.34.464-.9.464s-.895-.3-.895-.464ZM47.148,48.38a1,1,0,0,0-.739-.326h0l-3.741.009,8.077-10.01-.6,7.226a1,1,0,0,0,.994,1.082l3.9.012L46.683,56.727l.721-7.579A1,1,0,0,0,47.148,48.38Zm14.061-.962a12.279,12.279,0,0,1-14.287,12.2L57.9,46.008a1,1,0,0,0-.775-1.628l-4.9-.016.711-8.6A12.374,12.374,0,0,1,61.209,47.418ZM3.731,4.636A1.245,1.245,0,0,1,4.974,3.393H52.262a1.245,1.245,0,0,1,1.243,1.243v29.21a14.306,14.306,0,0,0-4.33-.774v-22.1a3.25,3.25,0,0,0-3.247-3.246H11.308a3.249,3.249,0,0,0-3.246,3.246v34.62a3.25,3.25,0,0,0,3.246,3.247H34.555a14.248,14.248,0,0,0,1.137,4.33H4.974a1.245,1.245,0,0,1-1.243-1.243Z"></path><path d="M20.868 25.375a2.9 2.9 0 102.9 2.9A2.908 2.908 0 0020.868 25.375zm0 3.809a.9.9 0 11.9-.905A.905.905 0 0120.868 29.184zM36.367 25.375a2.9 2.9 0 102.9 2.9A2.908 2.908 0 0036.367 25.375zm0 3.809a.9.9 0 11.9-.905A.905.905 0 0136.367 29.184z"></path></svg>