<svg xmlns="http://www.w3.org/2000/svg" viewBox="0 0 64 64" id="solar-charging"><g><path d="M59,8H41a3.009,3.009,0,0,0-3,3V45a3.009,3.009,0,0,0,3,3h5v4a1,1,0,0,0,1,1h2v4a3.009,3.009,0,0,1-3,3H23a3.009,3.009,0,0,1-3-3V51h3a1,1,0,0,0,1-1V48H36a1,1,0,0,0,1-1V3a1,1,0,0,0-1-1H3A1,1,0,0,0,2,3V47a1,1,0,0,0,1,1H14v2a1,1,0,0,0,1,1h3v6a5,5,0,0,0,5,5H46a5,5,0,0,0,5-5V53h2a1,1,0,0,0,1-1V48h5a3.009,3.009,0,0,0,3-3V11A3.009,3.009,0,0,0,59,8ZM4,46V4H35V46Zm12,3V48h6v1Zm36,2H48V48h4Zm8-6a1,1,0,0,1-1,1H41a1,1,0,0,1-1-1V11a1,1,0,0,1,1-1H59a1,1,0,0,1,1,1Z"></path><path d="M58,11H42a1,1,0,0,0-1,1V39a1,1,0,0,0,1,1H58a1,1,0,0,0,1-1V12A1,1,0,0,0,58,11ZM57,38H43V13H57Z"></path><circle cx="50" cy="43" r="2"></circle><polygon points="53 25 50 25 50 31 53 25"></polygon><polygon points="50 19 47 25 50 25 50 19"></polygon><path d="M6,18H18a1,1,0,0,0,1-1V7a1,1,0,0,0-1-1H6A1,1,0,0,0,5,7V17A1,1,0,0,0,6,18ZM7,8H17v8H7Z"></path><rect width="8" height="2" x="8" y="9"></rect><rect width="8" height="2" x="8" y="13"></rect><path d="M6,31H18a1,1,0,0,0,1-1V20a1,1,0,0,0-1-1H6a1,1,0,0,0-1,1V30A1,1,0,0,0,6,31ZM7,21H17v8H7Z"></path><rect width="8" height="2" x="8" y="22"></rect><rect width="8" height="2" x="8" y="26"></rect><path d="M19,43V33a1,1,0,0,0-1-1H6a1,1,0,0,0-1,1V43a1,1,0,0,0,1,1H18A1,1,0,0,0,19,43Zm-2-1H7V34H17Z"></path><rect width="8" height="2" x="8" y="35"></rect><rect width="8" height="2" x="8" y="39"></rect><path d="M21,18H33a1,1,0,0,0,1-1V7a1,1,0,0,0-1-1H21a1,1,0,0,0-1,1V17A1,1,0,0,0,21,18ZM22,8H32v8H22Z"></path><rect width="8" height="2" x="23" y="9"></rect><rect width="8" height="2" x="23" y="13"></rect><path d="M21,31H33a1,1,0,0,0,1-1V20a1,1,0,0,0-1-1H21a1,1,0,0,0-1,1V30A1,1,0,0,0,21,31Zm1-10H32v8H22Z"></path><rect width="8" height="2" x="23" y="22"></rect><rect width="8" height="2" x="23" y="26"></rect><path d="M21,44H33a1,1,0,0,0,1-1V33a1,1,0,0,0-1-1H21a1,1,0,0,0-1,1V43A1,1,0,0,0,21,44Zm1-10H32v8H22Z"></path><rect width="8" height="2" x="23" y="35"></rect><rect width="8" height="2" x="23" y="39"></rect></g></svg>