<?xml version="1.0" encoding="UTF-8"?>
<svg xmlns="http://www.w3.org/2000/svg" width="70" height="70" viewBox="0 0 70 70" fill="none">
  <path d="M60.8571 42.175L57.1821 9.1C57.0536 7.81916 56.4589 6.63019 55.5112 5.75907C54.5634 4.88794 53.3286 4.39538 52.0415 4.375H17.9603C16.6741 4.39112 15.4394 4.88281 14.4942 5.75527C13.549 6.62774 12.9603 7.81921 12.8415 9.1L9.16652 42.175C9.07638 42.9365 9.1487 43.7084 9.37871 44.4399C9.60872 45.1714 9.99118 45.8459 10.5009 46.4187C10.9775 46.9517 11.5605 47.3789 12.2123 47.6727C12.8641 47.9666 13.5703 48.1207 14.2853 48.125H28.4384V54.6875C28.0781 54.6894 27.7238 54.7802 27.4071 54.9519C27.0903 55.1237 26.8209 55.371 26.6228 55.6719L22.8821 61.25H19.6884C19.1082 61.25 18.5518 61.4805 18.1416 61.8907C17.7314 62.3009 17.5009 62.8573 17.5009 63.4375C17.5009 64.0177 17.7314 64.5741 18.1416 64.9843C18.5518 65.3945 19.1082 65.625 19.6884 65.625H50.3134C50.8935 65.625 51.4499 65.3945 51.8602 64.9843C52.2704 64.5741 52.5009 64.0177 52.5009 63.4375C52.5009 62.8573 52.2704 62.3009 51.8602 61.8907C51.4499 61.4805 50.8935 61.25 50.3134 61.25H47.1196L43.379 55.6719C43.1809 55.371 42.9114 55.1237 42.5947 54.9519C42.2779 54.7802 41.9237 54.6894 41.5634 54.6875V48.125H55.7165C56.4315 48.1207 57.1376 47.9666 57.7894 47.6727C58.4412 47.3789 59.0242 46.9517 59.5009 46.4187C60.0098 45.8447 60.3933 45.1707 60.6268 44.44C60.8604 43.7092 60.9388 42.9378 60.8571 42.175ZM39.3759 43.75H28.5696L29.0509 35H40.9509L41.4321 43.75H39.3759ZM29.2915 30.625L29.7728 21.875H40.229L40.7103 30.625H29.2915ZM15.8165 21.875H25.3978L24.9165 30.625H15.3134C15.1532 30.6126 14.9923 30.6126 14.8321 30.625L15.8165 21.875ZM30.0134 17.5L30.6259 8.75H39.5946L40.0978 17.5H30.0134ZM44.604 21.875H54.1853L55.1696 30.625C55.0095 30.6126 54.8486 30.6126 54.6884 30.625H45.0853L44.604 21.875ZM52.829 9.58125L53.704 17.5H44.3634L43.8821 8.75H52.0415C52.2508 8.77081 52.4455 8.86628 52.5901 9.01893C52.7347 9.17157 52.8195 9.37119 52.829 9.58125ZM17.9603 8.75H26.1196L25.6384 17.5H16.2978L17.1728 9.58125C17.1822 9.37119 17.2671 9.17157 17.4117 9.01893C17.5563 8.86628 17.751 8.77081 17.9603 8.75ZM13.7603 43.4875C13.6607 43.3751 13.5859 43.243 13.5407 43.0998C13.4955 42.9566 13.4808 42.8055 13.4978 42.6562L14.3728 34.7812C14.6661 34.9233 14.9875 34.9981 15.3134 35H24.6759L24.1728 43.75H14.2853C14.1828 43.7537 14.081 43.7316 13.9893 43.6857C13.8975 43.6399 13.8188 43.5717 13.7603 43.4875ZM41.8478 61.25H28.154L29.6196 59.0625H40.3821L41.8478 61.25ZM37.1884 54.6875H32.8134V48.125H37.1884V54.6875ZM56.2415 43.4875C56.183 43.5717 56.1042 43.6399 56.0125 43.6857C55.9208 43.7316 55.819 43.7537 55.7165 43.75H45.9384L45.4353 35H54.6884C55.0143 34.9981 55.3357 34.9233 55.629 34.7812L56.504 42.6562C56.5209 42.8055 56.5063 42.9566 56.4611 43.0998C56.4159 43.243 56.341 43.3751 56.2415 43.4875Z" fill="white"></path>
</svg>
