<svg xmlns="http://www.w3.org/2000/svg" xmlns:xlink="http://www.w3.org/1999/xlink" xmlns:svgjs="http://svgjs.dev/svgjs" id="Layer_1" data-name="Layer 1" viewBox="0 0 64 64" width="300" height="300"><g width="100%" height="100%" transform="matrix(1,0,0,1,0,0)"><rect x="8" y="43" width="12" height="2" fill="#ffc107" fill-opacity="1" data-original-color="#000000ff" stroke="none" stroke-opacity="1"></rect><path d="M36.447,33.1l-4-2a1,1,0,0,0-.894,0l-4,2A1,1,0,0,0,27,34v8a1,1,0,0,0,1,1h8a1,1,0,0,0,1-1V34A1,1,0,0,0,36.447,33.1ZM35,41H29V34.618l3-1.5,3,1.5Z" fill="#ffc107" fill-opacity="1" data-original-color="#000000ff" stroke="none" stroke-opacity="1"></path><path d="M50.447,33.1l-4-2a1,1,0,0,0-.894,0l-4,2A1,1,0,0,0,41,34v8a1,1,0,0,0,1,1h8a1,1,0,0,0,1-1V34A1,1,0,0,0,50.447,33.1ZM49,41H43V34.618l3-1.5,3,1.5Z" fill="#ffc107" fill-opacity="1" data-original-color="#000000ff" stroke="none" stroke-opacity="1"></path><path d="M50,45H42a1,1,0,0,0-1,1v8a1,1,0,0,0,1,1h8a1,1,0,0,0,1-1V46A1,1,0,0,0,50,45Zm-1,8H43V47h6Z" fill="#ffc107" fill-opacity="1" data-original-color="#000000ff" stroke="none" stroke-opacity="1"></path><path d="M60.9,17.553l-4-8A1,1,0,0,0,56,9H49V4a1,1,0,0,0-1-1H16a1,1,0,0,0-1,1V9H8a1,1,0,0,0-.895.553l-4,8a1,1,0,0,0-.1.447H3v6a5.009,5.009,0,0,0,4,4.9v6.622A10.987,10.987,0,0,0,7,52.479V60a1,1,0,0,0,1,1H56a1,1,0,0,0,1-1V28.9A5.009,5.009,0,0,0,61,24V18H61A1,1,0,0,0,60.9,17.553ZM17,5H47V9H17ZM8.618,11H55.382l3,6H5.618ZM13,19h6v5a3,3,0,0,1-6,0Zm8,0h6v5a3,3,0,0,1-6,0Zm8,0h6v5a3,3,0,0,1-6,0Zm8,0h6v5a3,3,0,0,1-6,0Zm8,0h6v5a3,3,0,0,1-6,0ZM5,24V19h6v5a3,3,0,0,1-6,0ZM5,44a9,9,0,1,1,9,9A9.01,9.01,0,0,1,5,44ZM29,59V47h6V59Zm8,0V46a1,1,0,0,0-1-1H28a1,1,0,0,0-1,1V59H9V53.786A11,11,0,1,0,9,34.214V28.9a4.994,4.994,0,0,0,3-1.93,4.954,4.954,0,0,0,8,0,4.954,4.954,0,0,0,8,0,4.954,4.954,0,0,0,8,0,4.954,4.954,0,0,0,8,0,4.954,4.954,0,0,0,8,0,4.994,4.994,0,0,0,3,1.93V59ZM56,27a3,3,0,0,1-3-3V19h6v5A3,3,0,0,1,56,27Z" fill="#ffc107" fill-opacity="1" data-original-color="#000000ff" stroke="none" stroke-opacity="1"></path></g></svg>