<?xml version="1.0" encoding="UTF-8"?>
<svg xmlns="http://www.w3.org/2000/svg" width="70" height="70" viewBox="0 0 70 70" fill="none">
  <path d="M58.6031 17.5H56.875V13.125C56.875 12.5448 56.6445 11.9884 56.2343 11.5782C55.8241 11.168 55.2677 10.9375 54.6875 10.9375H50.3125V9.42812C50.3067 8.08973 49.7725 6.80779 48.8261 5.86139C47.8797 4.91499 46.5978 4.38076 45.2594 4.375H9.42812C8.08973 4.38076 6.80779 4.91499 5.86139 5.86139C4.91499 6.80779 4.38076 8.08973 4.375 9.42812V60.5719C4.38076 61.9103 4.91499 63.1922 5.86139 64.1386C6.80779 65.085 8.08973 65.6192 9.42812 65.625H45.2594C46.5978 65.6192 47.8797 65.085 48.8261 64.1386C49.7725 63.1922 50.3067 61.9103 50.3125 60.5719V28.4375H54.6875C55.2677 28.4375 55.8241 28.207 56.2343 27.7968C56.6445 27.3866 56.875 26.8302 56.875 26.25V21.875H58.6031C59.3051 21.875 59.9784 22.1539 60.4747 22.6503C60.9711 23.1466 61.25 23.8199 61.25 24.5219V56.875C61.25 57.4552 61.0195 58.0116 60.6093 58.4218C60.1991 58.832 59.6427 59.0625 59.0625 59.0625C58.4823 59.0625 57.9259 58.832 57.5157 58.4218C57.1055 58.0116 56.875 57.4552 56.875 56.875V39.375C56.875 38.7948 56.6445 38.2384 56.2343 37.8282C55.8241 37.418 55.2677 37.1875 54.6875 37.1875C54.1073 37.1875 53.5509 37.418 53.1407 37.8282C52.7305 38.2384 52.5 38.7948 52.5 39.375V56.875C52.5 58.6155 53.1914 60.2847 54.4221 61.5154C55.6528 62.7461 57.322 63.4375 59.0625 63.4375C60.803 63.4375 62.4722 62.7461 63.7029 61.5154C64.9336 60.2847 65.625 58.6155 65.625 56.875V24.5219C65.625 22.6596 64.8852 20.8735 63.5683 19.5567C62.2515 18.2398 60.4654 17.5 58.6031 17.5ZM45.9375 60.5719C45.9375 60.7517 45.8661 60.9242 45.7389 61.0514C45.6117 61.1786 45.4392 61.25 45.2594 61.25H9.42812C9.24827 61.25 9.07579 61.1786 8.94862 61.0514C8.82144 60.9242 8.75 60.7517 8.75 60.5719V9.42812C8.75 9.24827 8.82144 9.07579 8.94862 8.94862C9.07579 8.82144 9.24827 8.75 9.42812 8.75H45.2594C45.4392 8.75 45.6117 8.82144 45.7389 8.94862C45.8661 9.07579 45.9375 9.24827 45.9375 9.42812V60.5719ZM52.5 24.0625H50.3125V15.3125H52.5V24.0625Z" fill="white"></path>
  <path d="M27.3438 13.125C23.5745 13.1308 19.9612 14.6307 17.296 17.296C14.6307 19.9612 13.1308 23.5745 13.125 27.3438V32.8125C13.125 33.3927 13.3555 33.9491 13.7657 34.3593C14.1759 34.7695 14.7323 35 15.3125 35H24.675L24.1719 36.4875C24.062 36.7668 24.0107 37.0656 24.0213 37.3655C24.0318 37.6655 24.104 37.96 24.2332 38.2308C24.3625 38.5017 24.5461 38.743 24.7726 38.9399C24.9992 39.1367 25.2638 39.2848 25.55 39.375C25.7824 39.405 26.0176 39.405 26.25 39.375C26.7086 39.3762 27.156 39.2332 27.5289 38.9663C27.9018 38.6994 28.1814 38.322 28.3281 37.8875L29.2906 35H39.375C39.9552 35 40.5116 34.7695 40.9218 34.3593C41.332 33.9491 41.5625 33.3927 41.5625 32.8125V27.3438C41.5567 23.5745 40.0568 19.9612 37.3915 17.296C34.7263 14.6307 31.113 13.1308 27.3438 13.125ZM37.1875 30.625H30.7344L32.7031 24.7625C32.795 24.4896 32.8323 24.2013 32.8128 23.914C32.7933 23.6266 32.7174 23.346 32.5894 23.088C32.4615 22.83 32.2839 22.5998 32.067 22.4104C31.85 22.2211 31.5979 22.0763 31.325 21.9844C31.0521 21.8925 30.7638 21.8552 30.4765 21.8747C30.1891 21.8942 29.9085 21.9701 29.6505 22.0981C29.3925 22.226 29.1623 22.4036 28.9729 22.6205C28.7836 22.8375 28.6388 23.0896 28.5469 23.3625L26.25 30.625H17.5V27.3438C17.5 24.733 18.5371 22.2292 20.3832 20.3832C22.2292 18.5371 24.733 17.5 27.3438 17.5C29.9545 17.5 32.4583 18.5371 34.3043 20.3832C36.1504 22.2292 37.1875 24.733 37.1875 27.3438V30.625Z" fill="white"></path>
  <path d="M19.6875 43.75C18.3896 43.75 17.1208 44.1349 16.0416 44.856C14.9624 45.5771 14.1212 46.602 13.6245 47.8011C13.1278 49.0003 12.9979 50.3198 13.2511 51.5928C13.5043 52.8658 14.1293 54.0351 15.0471 54.9529C15.9649 55.8707 17.1342 56.4957 18.4072 56.7489C19.6802 57.0021 20.9997 56.8722 22.1989 56.3755C23.398 55.8788 24.4229 55.0376 25.144 53.9584C25.8651 52.8792 26.25 51.6104 26.25 50.3125C26.25 48.572 25.5586 46.9028 24.3279 45.6721C23.0972 44.4414 21.428 43.75 19.6875 43.75ZM19.6875 52.5C19.2549 52.5 18.8319 52.3717 18.4722 52.1313C18.1125 51.891 17.8321 51.5493 17.6665 51.1496C17.5009 50.7499 17.4576 50.3101 17.542 49.8857C17.6264 49.4614 17.8348 49.0716 18.1407 48.7657C18.4466 48.4598 18.8364 48.2514 19.2607 48.167C19.6851 48.0826 20.1249 48.1259 20.5246 48.2915C20.9243 48.4571 21.266 48.7375 21.5063 49.0972C21.7467 49.4569 21.875 49.8799 21.875 50.3125C21.875 50.8927 21.6445 51.4491 21.2343 51.8593C20.8241 52.2695 20.2677 52.5 19.6875 52.5Z" fill="white"></path>
  <path d="M35 43.75C33.7021 43.75 32.4333 44.1349 31.3541 44.856C30.2749 45.5771 29.4337 46.602 28.937 47.8011C28.4403 49.0003 28.3104 50.3198 28.5636 51.5928C28.8168 52.8658 29.4418 54.0351 30.3596 54.9529C31.2774 55.8707 32.4467 56.4957 33.7197 56.7489C34.9927 57.0021 36.3122 56.8722 37.5114 56.3755C38.7105 55.8788 39.7354 55.0376 40.4565 53.9584C41.1776 52.8792 41.5625 51.6104 41.5625 50.3125C41.5625 48.572 40.8711 46.9028 39.6404 45.6721C38.4097 44.4414 36.7405 43.75 35 43.75ZM35 52.5C34.5674 52.5 34.1444 52.3717 33.7847 52.1313C33.425 51.891 33.1446 51.5493 32.979 51.1496C32.8135 50.7499 32.7701 50.3101 32.8545 49.8857C32.9389 49.4614 33.1473 49.0716 33.4532 48.7657C33.7591 48.4598 34.1489 48.2514 34.5732 48.167C34.9976 48.0826 35.4374 48.1259 35.8371 48.2915C36.2368 48.4571 36.5785 48.7375 36.8188 49.0972C37.0592 49.4569 37.1875 49.8799 37.1875 50.3125C37.1875 50.8927 36.957 51.4491 36.5468 51.8593C36.1366 52.2695 35.5802 52.5 35 52.5Z" fill="white"></path>
</svg>
