<?xml version="1.0" encoding="UTF-8"?>
<svg xmlns="http://www.w3.org/2000/svg" width="60" height="62" viewBox="0 0 60 62" fill="none">
  <path d="M52.7844 0H21.6125C19.9416 0 18.3392 0.663748 17.1577 1.84523C15.9762 3.02671 15.3125 4.62914 15.3125 6.3V6.5625H11.6594C9.72744 6.5625 7.87463 7.32996 6.50854 8.69604C5.14246 10.0621 4.375 11.9149 4.375 13.8469V26.4031C3.13461 26.6853 2.02657 27.3797 1.23191 28.373C0.437257 29.3664 0.00296705 30.5998 0 31.8719V38.1281C0.00296705 39.4002 0.437257 40.6337 1.23191 41.627C2.02657 42.6203 3.13461 43.3147 4.375 43.5969V54.6875C4.375 55.2677 4.60547 55.8241 5.0157 56.2343C5.42594 56.6445 5.98234 56.875 6.5625 56.875C7.14266 56.875 7.69906 56.6445 8.1093 56.2343C8.51953 55.8241 8.75 55.2677 8.75 54.6875V43.5969C9.99039 43.3147 11.0984 42.6203 11.8931 41.627C12.6877 40.6337 13.122 39.4002 13.125 38.1281V31.8719C13.122 30.5998 12.6877 29.3664 11.8931 28.373C11.0984 27.3797 9.99039 26.6853 8.75 26.4031V13.8469C8.75572 13.077 9.06408 12.3403 9.60846 11.796C10.1528 11.2516 10.8895 10.9432 11.6594 10.9375H15.3125V24.9594C15.3052 26.1662 15.5825 27.3578 16.1219 28.4375L17.5 31.15V54.9719C17.5058 56.6389 18.1721 58.2358 19.3529 59.4125C20.5338 60.5893 22.1329 61.25 23.8 61.25H50.5969C52.2602 61.2442 53.8537 60.5809 55.0298 59.4048C56.2059 58.2287 56.8692 56.6352 56.875 54.9719V31.15L58.2531 28.4375C58.7925 27.3578 59.0698 26.1662 59.0625 24.9594V6.3C59.0625 4.63292 58.4018 3.0338 57.225 1.85294C56.0483 0.672091 54.4514 0.00578847 52.7844 0ZM8.75 38.1281C8.75297 38.2927 8.72274 38.4562 8.66113 38.6088C8.59952 38.7614 8.50778 38.9 8.3914 39.0164C8.27503 39.1328 8.13639 39.2245 7.98377 39.2861C7.83115 39.3477 7.66768 39.378 7.50312 39.375H5.62188C5.45732 39.378 5.29385 39.3477 5.14123 39.2861C4.98861 39.2245 4.84997 39.1328 4.7336 39.0164C4.61722 38.9 4.52548 38.7614 4.46387 38.6088C4.40226 38.4562 4.37203 38.2927 4.375 38.1281V31.8719C4.37203 31.7073 4.40226 31.5438 4.46387 31.3912C4.52548 31.2386 4.61722 31.1 4.7336 30.9836C4.84997 30.8672 4.98861 30.7755 5.14123 30.7139C5.29385 30.6523 5.45732 30.622 5.62188 30.625H7.50312C7.66768 30.622 7.83115 30.6523 7.98377 30.7139C8.13639 30.7755 8.27503 30.8672 8.3914 30.9836C8.50778 31.1 8.59952 31.2386 8.66113 31.3912C8.72274 31.5438 8.75297 31.7073 8.75 31.8719V38.1281ZM54.6875 25.0031C54.6911 25.5128 54.571 26.0157 54.3375 26.4688L52.7406 29.6844C52.591 29.9759 52.5087 30.2974 52.5 30.625V54.9719C52.5 55.4766 52.2995 55.9607 51.9426 56.3176C51.5857 56.6745 51.1016 56.875 50.5969 56.875H23.8C23.5482 56.8779 23.2984 56.8308 23.065 56.7365C22.8316 56.6421 22.6192 56.5024 22.4401 56.3254C22.2611 56.1484 22.1189 55.9376 22.0219 55.7053C21.9249 55.4729 21.875 55.2236 21.875 54.9719V30.625C21.8729 30.2826 21.7905 29.9454 21.6344 29.6406L20.0375 26.425C19.804 25.972 19.6839 25.469 19.6875 24.9594V6.3C19.6846 6.04639 19.7324 5.79476 19.8281 5.55988C19.9238 5.325 20.0654 5.11163 20.2448 4.93228C20.4241 4.75294 20.6375 4.61126 20.8724 4.51556C21.1073 4.41986 21.3589 4.37207 21.6125 4.375H52.7844C53.0361 4.37498 53.2854 4.42492 53.5178 4.52193C53.7501 4.61894 53.9609 4.76108 54.1379 4.94012C54.3149 5.11917 54.4546 5.33156 54.549 5.56499C54.6433 5.79841 54.6904 6.04824 54.6875 6.3V25.0031Z" fill="white"></path>
  <path d="M50.3125 6.5625H24.0625C23.4823 6.5625 22.9259 6.79297 22.5157 7.2032C22.1055 7.61344 21.875 8.16984 21.875 8.75V24.0625C21.875 24.6427 22.1055 25.1991 22.5157 25.6093C22.9259 26.0195 23.4823 26.25 24.0625 26.25H50.3125C50.8927 26.25 51.4491 26.0195 51.8593 25.6093C52.2695 25.1991 52.5 24.6427 52.5 24.0625V8.75C52.5 8.16984 52.2695 7.61344 51.8593 7.2032C51.4491 6.79297 50.8927 6.5625 50.3125 6.5625ZM48.125 21.875H26.25V10.9375H48.125V21.875Z" fill="white"></path>
  <path d="M32.8131 30.625C30.7019 30.6503 28.6711 31.4381 27.0952 32.8431C25.5192 34.2481 24.5044 36.1756 24.238 38.27C23.9715 40.3645 24.4713 42.4846 25.6452 44.2395C26.8192 45.9944 28.588 47.2656 30.6256 47.8188V50.3125C30.6256 50.8927 30.8561 51.4491 31.2663 51.8593C31.6766 52.2695 32.233 52.5 32.8131 52.5C33.3933 52.5 33.9497 52.2695 34.3599 51.8593C34.7701 51.4491 35.0006 50.8927 35.0006 50.3125V47.8188C37.0382 47.2656 38.8071 45.9944 39.981 44.2395C41.1549 42.4846 41.6547 40.3645 41.3883 38.27C41.1218 36.1756 40.107 34.2481 38.5311 32.8431C36.9551 31.4381 34.9243 30.6503 32.8131 30.625ZM35.0006 43.1375V39.375C35.0006 38.7948 34.7701 38.2384 34.3599 37.8282C33.9497 37.418 33.3933 37.1875 32.8131 37.1875C32.233 37.1875 31.6766 37.418 31.2663 37.8282C30.8561 38.2384 30.6256 38.7948 30.6256 39.375V43.1375C29.7916 42.656 29.1397 41.9127 28.7711 41.0229C28.4026 40.1331 28.3379 39.1466 28.5872 38.2163C28.8365 37.286 29.3857 36.464 30.1498 35.8777C30.9139 35.2914 31.85 34.9736 32.8131 34.9736C33.7762 34.9736 34.7124 35.2914 35.4764 35.8777C36.2405 36.464 36.7898 37.286 37.039 38.2163C37.2883 39.1466 37.2236 40.1331 36.8551 41.0229C36.4865 41.9127 35.8347 42.656 35.0006 43.1375Z" fill="white"></path>
  <path d="M48.125 32.8125H45.9375C45.3573 32.8125 44.8009 33.043 44.3907 33.4532C43.9805 33.8634 43.75 34.4198 43.75 35C43.75 35.5802 43.9805 36.1366 44.3907 36.5468C44.8009 36.957 45.3573 37.1875 45.9375 37.1875H48.125C48.7052 37.1875 49.2616 36.957 49.6718 36.5468C50.082 36.1366 50.3125 35.5802 50.3125 35C50.3125 34.4198 50.082 33.8634 49.6718 33.4532C49.2616 33.043 48.7052 32.8125 48.125 32.8125Z" fill="white"></path>
  <path d="M48.125 39.375H45.9375C45.3573 39.375 44.8009 39.6055 44.3907 40.0157C43.9805 40.4259 43.75 40.9823 43.75 41.5625C43.75 42.1427 43.9805 42.6991 44.3907 43.1093C44.8009 43.5195 45.3573 43.75 45.9375 43.75H48.125C48.7052 43.75 49.2616 43.5195 49.6718 43.1093C50.082 42.6991 50.3125 42.1427 50.3125 41.5625C50.3125 40.9823 50.082 40.4259 49.6718 40.0157C49.2616 39.6055 48.7052 39.375 48.125 39.375Z" fill="white"></path>
</svg>
