<?xml version="1.0" encoding="UTF-8"?>
<svg xmlns="http://www.w3.org/2000/svg" width="60" height="62" viewBox="0 0 60 62" fill="none">
  <path d="M52.7844 0H21.6125C19.9416 0 18.3392 0.663748 17.1577 1.84523C15.9762 3.02671 15.3125 4.62914 15.3125 6.3V6.5625H11.6594C9.72744 6.5625 7.87463 7.32996 6.50854 8.69604C5.14246 10.0621 4.375 11.9149 4.375 13.8469V26.4031C3.13461 26.6853 2.02657 27.3797 1.23191 28.373C0.437257 29.3664 0.00296705 30.5998 0 31.8719V38.1281C0.00296705 39.4002 0.437257 40.6337 1.23191 41.627C2.02657 42.6203 3.13461 43.3147 4.375 43.5969V54.6875C4.375 55.2677 4.60547 55.8241 5.0157 56.2343C5.42594 56.6445 5.98234 56.875 6.5625 56.875C7.14266 56.875 7.69906 56.6445 8.1093 56.2343C8.51953 55.8241 8.75 55.2677 8.75 54.6875V43.5969C9.99039 43.3147 11.0984 42.6203 11.8931 41.627C12.6877 40.6337 13.122 39.4002 13.125 38.1281V31.8719C13.122 30.5998 12.6877 29.3664 11.8931 28.373C11.0984 27.3797 9.99039 26.6853 8.75 26.4031V13.8469C8.75572 13.077 9.06408 12.3403 9.60846 11.796C10.1528 11.2516 10.8895 10.9432 11.6594 10.9375H15.3125V24.9594C15.3052 26.1662 15.5825 27.3578 16.1219 28.4375L17.5 31.15V54.9719C17.5058 56.6389 18.1721 58.2358 19.3529 59.4125C20.5338 60.5893 22.1329 61.25 23.8 61.25H50.5969C52.2602 61.2442 53.8537 60.5809 55.0298 59.4048C56.2059 58.2287 56.8692 56.6352 56.875 54.9719V31.15L58.2531 28.4375C58.7925 27.3578 59.0698 26.1662 59.0625 24.9594V6.3C59.0625 4.63292 58.4018 3.0338 57.225 1.85294C56.0483 0.672091 54.4514 0.00578847 52.7844 0ZM8.75 38.1281C8.75297 38.2927 8.72274 38.4562 8.66113 38.6088C8.59952 38.7614 8.50778 38.9 8.3914 39.0164C8.27503 39.1328 8.13639 39.2245 7.98377 39.2861C7.83115 39.3477 7.66768 39.378 7.50312 39.375H5.62188C5.45732 39.378 5.29385 39.3477 5.14123 39.2861C4.98861 39.2245 4.84997 39.1328 4.7336 39.0164C4.61722 38.9 4.52548 38.7614 4.46387 38.6088C4.40226 38.4562 4.37203 38.2927 4.375 38.1281V31.8719C4.37203 31.7073 4.40226 31.5438 4.46387 31.3912C4.52548 31.2386 4.61722 31.1 4.7336 30.9836C4.84997 30.8672 4.98861 30.7755 5.14123 30.7139C5.29385 30.6523 5.45732 30.622 5.62188 30.625H7.50312C7.66768 30.622 7.83115 30.6523 7.98377 30.7139C8.13639 30.7755 8.27503 30.8672 8.3914 30.9836C8.50778 31.1 8.59952 31.2386 8.66113 31.3912C8.72274 31.5438 8.75297 31.7073 8.75 31.8719V38.1281ZM54.6875 25.0031C54.6911 25.5128 54.571 26.0157 54.3375 26.4688L52.7406 29.6844C52.591 29.9759 52.5087 30.2974 52.5 30.625V54.9719C52.5 55.4766 52.2995 55.9607 51.9426 56.3176C51.5857 56.6745 51.1016 56.875 50.5969 56.875H23.8C23.5482 56.8779 23.2984 56.8308 23.065 56.7365C22.8316 56.6421 22.6192 56.5024 22.4401 56.3254C22.2611 56.1484 22.1189 55.9376 22.0219 55.7053C21.9249 55.4729 21.875 55.2236 21.875 54.9719V30.625C21.8729 30.2826 21.7905 29.9454 21.6344 29.6406L20.0375 26.425C19.804 25.972 19.6839 25.469 19.6875 24.9594V6.3C19.6846 6.04639 19.7324 5.79476 19.8281 5.55988C19.9238 5.325 20.0654 5.11163 20.2448 4.93228C20.4241 4.75294 20.6375 4.61126 20.8724 4.51556C21.1073 4.41986 21.3589 4.37207 21.6125 4.375H52.7844C53.0361 4.37498 53.2854 4.42492 53.5178 4.52193C53.7501 4.61894 53.9609 4.76108 54.1379 4.94012C54.3149 5.11917 54.4546 5.33156 54.549 5.56499C54.6433 5.79841 54.6904 6.04824 54.6875 6.3V25.0031Z" fill="white"></path>
</svg>
