<?xml version="1.0" encoding="UTF-8"?>
<svg xmlns="http://www.w3.org/2000/svg" width="70" height="70" viewBox="0 0 70 70" fill="none">
  <path d="M60.3969 4.83441C59.9381 4.48159 59.3583 4.32493 58.7843 4.39873C58.2103 4.47253 57.6889 4.77078 57.3344 5.22816L53.6813 9.99691C52.2664 10.5823 50.8925 11.2619 49.5687 12.0313C44.1656 15.225 42.8312 16.4063 40.8187 19.4469L35.9406 21.1313C34.3275 21.6789 32.917 22.7005 31.8937 24.0625L10.5 52.0407C10.3276 52.2705 10.2022 52.532 10.1309 52.8103C10.0596 53.0885 10.0439 53.3781 10.0845 53.6625C10.1251 53.9469 10.2214 54.2205 10.3677 54.4677C10.5141 54.7149 10.7077 54.9308 10.9375 55.1032L24.85 65.7344C25.2286 66.0184 25.6892 66.1719 26.1625 66.1719H26.4688C26.7537 66.1317 27.0279 66.0356 27.2756 65.8892C27.5234 65.7428 27.7398 65.549 27.9125 65.3188L49.3063 37.3625C50.3481 35.9957 50.9643 34.3524 51.0781 32.6375L51.4281 27.475C53.7906 24.8282 54.6437 23.1 56.3062 17.15C56.6911 15.7106 56.9906 14.2498 57.2031 12.775L60.8344 8.00629C61.0242 7.77346 61.164 7.50403 61.2451 7.2148C61.3263 6.92556 61.347 6.62272 61.3059 6.32514C61.2649 6.02756 61.163 5.74162 61.0066 5.48515C60.8502 5.22867 60.6426 5.00716 60.3969 4.83441ZM32.375 52.2375L28.8969 49.5907L38.1937 37.4282L41.6719 40.075L32.375 52.2375ZM46.6812 32.3532C46.6161 33.2003 46.3127 34.0117 45.8063 34.6938L44.3406 36.6188L39.1125 32.6157C38.6511 32.2652 38.0694 32.1122 37.4953 32.1901C36.9211 32.268 36.4013 32.5705 36.05 33.0313L24.0625 48.6719C23.7121 49.1333 23.559 49.715 23.6369 50.2891C23.7148 50.8633 24.0174 51.3831 24.4781 51.7344L29.6844 55.7157L25.7031 60.9219L15.3125 52.9594L35.3937 26.7094C35.9115 26.0444 36.6104 25.543 37.4062 25.2657L41.9125 23.7125L47.0094 27.6282L46.6812 32.3532ZM52.0406 15.9907C51.5741 18.7211 50.5219 21.3181 48.9562 23.6032L45.2375 20.7813C47.0402 18.6655 49.2788 16.9642 51.8 15.7938L52.1719 15.5969C52.1063 15.7282 52.0844 15.8594 52.0406 15.9907Z" fill="white"></path>
</svg>
