<?xml version="1.0" encoding="UTF-8"?>
<svg xmlns="http://www.w3.org/2000/svg" width="70" height="70" viewBox="0 0 70 70" fill="none">
  <path d="M59.675 4.375H10.325C8.74696 4.375 7.23356 5.00187 6.11771 6.11771C5.00187 7.23356 4.375 8.74696 4.375 10.325V46.55C4.375 48.128 5.00187 49.6414 6.11771 50.7573C7.23356 51.8731 8.74696 52.5 10.325 52.5H15.3125V63.4375C15.3125 64.0177 15.543 64.5741 15.9532 64.9843C16.3634 65.3945 16.9198 65.625 17.5 65.625H52.5C53.0802 65.625 53.6366 65.3945 54.0468 64.9843C54.457 64.5741 54.6875 64.0177 54.6875 63.4375V52.5H59.675C61.253 52.5 62.7664 51.8731 63.8823 50.7573C64.9981 49.6414 65.625 48.128 65.625 46.55V10.325C65.625 8.74696 64.9981 7.23356 63.8823 6.11771C62.7664 5.00187 61.253 4.375 59.675 4.375ZM10.325 8.75H59.675C60.0927 8.75 60.4933 8.91594 60.7887 9.21131C61.0841 9.50668 61.25 9.90728 61.25 10.325V26.25H60.8563C59.1484 26.6319 57.6121 27.5613 56.4813 28.8969L55.8688 29.4875C55.6536 29.3024 55.4491 29.1052 55.2563 28.8969C54.1254 27.5613 52.5891 26.6319 50.8813 26.25C50.6772 26.2392 50.4728 26.2392 50.2687 26.25C49.822 22.532 48.0282 19.1066 45.2268 16.6216C42.4253 14.1367 38.8104 12.7644 35.0656 12.7644C31.3209 12.7644 27.7059 14.1367 24.9045 16.6216C22.103 19.1066 20.3093 22.532 19.8625 26.25H19.2719C17.564 26.6319 16.0277 27.5613 14.8969 28.8969C14.6969 29.1057 14.4851 29.3029 14.2625 29.4875L13.6719 28.8969C12.541 27.5613 11.0047 26.6319 9.29688 26.25H8.75V10.325C8.75 9.90728 8.91594 9.50668 9.21131 9.21131C9.50668 8.91594 9.90728 8.75 10.325 8.75ZM45.9375 28.4375C45.9375 30.6007 45.296 32.7154 44.0942 34.514C42.8924 36.3127 41.1842 37.7146 39.1856 38.5424C37.187 39.3703 34.9879 39.5869 32.8662 39.1648C30.7445 38.7428 28.7957 37.7011 27.266 36.1715C25.7364 34.6418 24.6947 32.693 24.2727 30.5713C23.8506 28.4496 24.0672 26.2505 24.8951 24.2519C25.7229 22.2533 27.1248 20.5451 28.9235 19.3433C30.7221 18.1415 32.8368 17.5 35 17.5C37.9008 17.5 40.6828 18.6523 42.734 20.7035C44.7852 22.7547 45.9375 25.5367 45.9375 28.4375ZM50.3125 61.25H19.6875V52.5H50.3125V61.25ZM59.675 48.125H10.325C9.90728 48.125 9.50668 47.9591 9.21131 47.6637C8.91594 47.3683 8.75 46.9677 8.75 46.55V30.625C9.40974 30.9094 9.99399 31.3438 10.4563 31.8937C10.9044 32.4703 11.4693 32.9456 12.1139 33.2887C12.7585 33.6317 13.4683 33.8347 14.1969 33.8844C14.9281 33.8432 15.642 33.6462 16.2909 33.3067C16.9398 32.9671 17.5087 32.4929 17.9594 31.9156C18.4605 31.3159 19.1199 30.8687 19.8625 30.625C20.4144 34.2443 22.2448 37.546 25.0219 39.9317C27.799 42.3174 31.3389 43.6291 35 43.6291C38.6611 43.6291 42.201 42.3174 44.9781 39.9317C47.7552 37.546 49.5856 34.2443 50.1375 30.625C50.887 30.8775 51.5478 31.3408 52.0406 31.9594C52.4888 32.5359 53.0537 33.0113 53.6983 33.3543C54.3429 33.6973 55.0527 33.9003 55.7812 33.95C56.5087 33.9057 57.2184 33.7073 57.8633 33.3679C58.5082 33.0285 59.0736 32.5558 59.5219 31.9812C59.9828 31.3991 60.575 30.9343 61.25 30.625V46.4625C61.2619 46.6766 61.23 46.8908 61.1562 47.0921C61.0824 47.2934 60.9683 47.4776 60.8208 47.6332C60.6734 47.7888 60.4957 47.9128 60.2986 47.9973C60.1016 48.0819 59.8894 48.1253 59.675 48.125Z" fill="white"></path>
  <path d="M28.4375 59.0625H41.5625C42.1427 59.0625 42.6991 58.832 43.1093 58.4218C43.5195 58.0116 43.75 57.4552 43.75 56.875C43.75 56.2948 43.5195 55.7384 43.1093 55.3282C42.6991 54.918 42.1427 54.6875 41.5625 54.6875H28.4375C27.8573 54.6875 27.3009 54.918 26.8907 55.3282C26.4805 55.7384 26.25 56.2948 26.25 56.875C26.25 57.4552 26.4805 58.0116 26.8907 58.4218C27.3009 58.832 27.8573 59.0625 28.4375 59.0625Z" fill="white"></path>
  <path d="M40.3596 22.1155C39.843 21.8561 39.2447 21.8117 38.6954 21.992C38.1462 22.1724 37.6906 22.5628 37.4284 23.078L35.0003 27.9124L32.5721 23.078C32.4565 22.8003 32.2848 22.5495 32.0679 22.3411C31.8509 22.1328 31.5933 21.9714 31.3111 21.8671C31.029 21.7628 30.7283 21.7179 30.428 21.735C30.1277 21.7522 29.8341 21.8311 29.5657 21.9668C29.2972 22.1025 29.0597 22.2922 28.8678 22.5239C28.676 22.7556 28.534 23.0243 28.4507 23.3134C28.3674 23.6024 28.3447 23.9056 28.3839 24.2038C28.423 24.5021 28.5233 24.789 28.6784 25.0468L33.0534 33.7968C33.237 34.1551 33.5159 34.4558 33.8594 34.6658C34.2029 34.8758 34.5977 34.9869 35.0003 34.9869C35.4029 34.9869 35.7977 34.8758 36.1412 34.6658C36.4847 34.4558 36.7636 34.1551 36.9471 33.7968L41.3221 25.0468C41.5816 24.5302 41.626 23.9318 41.4457 23.3826C41.2653 22.8333 40.8749 22.3778 40.3596 22.1155Z" fill="white"></path>
</svg>
